<svg width="183" height="26" viewBox="0 0 183 26" fill="none" xmlns="http://www.w3.org/2000/svg">
<path d="M12.0255 21.5634V7.45309L2.28585 21.5634H0V1.3916H2.88215V15.6013L12.7212 1.3916H15.0071V21.5634H12.0255Z" fill="#E40046"/>
<path d="M21.3675 21.5634H18.4854V1.3916H20.8706L27.5294 11.2291L34.1881 1.3916H36.474V21.5634H33.5918V7.35372L28.3244 15.2038H26.6349L21.3675 7.35372V21.5634Z" fill="#E40046"/>
<path d="M42.9339 21.5634H40.0518V1.3916H42.437L49.0958 11.2291L55.7545 1.3916H58.0404V21.5634H55.1582V7.35372L49.8908 15.2038H48.2013L42.9339 7.35372V21.5634Z" fill="#E40046"/>
<path d="M64.301 21.5634L67.1832 15.1045L60.5244 1.3916H63.8041L67.382 8.64551L68.8727 11.8253L70.1647 8.64551L73.2456 1.3916H76.5253L67.4813 21.5634H64.301Z" fill="#E40046"/>
<path d="M81.7943 9.9373H90.3413V1.3916H93.3229V21.5634H90.3413V12.819H81.7943V21.5634H78.9121V1.3916H81.7943V9.9373Z" fill="#E40046"/>
<path d="M99.4835 4.17418C101.372 2.28617 103.956 1.09375 106.739 1.09375C109.621 1.09375 112.205 2.28617 113.994 4.17418C115.783 6.06218 116.975 8.64576 116.975 11.4281C116.975 14.3098 115.783 16.8934 113.994 18.682C112.105 20.57 109.521 21.7624 106.739 21.7624C103.956 21.7624 101.272 20.57 99.4835 18.682C97.6946 16.794 96.502 14.2104 96.502 11.4281C96.502 8.64576 97.6946 6.06218 99.4835 4.17418ZM112.006 6.26092C110.615 4.86976 108.826 4.07481 106.739 4.07481C104.751 4.07481 102.863 4.86976 101.571 6.26092C100.279 7.55271 99.3841 9.44071 99.3841 11.5275C99.3841 13.6142 100.179 15.4028 101.571 16.6946C102.863 18.0858 104.751 18.8807 106.739 18.8807C108.726 18.8807 110.615 18.0858 112.006 16.6946C113.298 15.4028 114.093 13.5148 114.093 11.5275C114.093 9.44071 113.298 7.55271 112.006 6.26092Z" fill="#E40046"/>
<path d="M135.461 18.8805V25.6375H132.579V21.5634H120.354V1.3916H123.336V18.8805H130.79V1.3916H133.771V18.8805H135.461Z" fill="#E40046"/>
<path d="M141.226 18.6817H150.568V21.5634H138.244V1.3916H150.568V4.27329H141.226V9.9373H150.369V12.9184H141.226V18.6817Z" fill="#E40046"/>
<path d="M163.687 12.7196L156.332 21.5634H152.556L158.916 14.0114C155.438 13.4152 153.649 10.7323 153.649 7.85056C153.649 4.67077 155.835 1.3916 160.208 1.3916H167.563V21.5634H164.681V4.37266H160.208C157.724 4.37266 156.531 6.16129 156.531 7.85056C156.531 9.6392 157.724 11.3285 160.208 11.3285H163.587V12.7196H163.687Z" fill="#E40046"/>
<path d="M176.408 0C179.787 0 182.471 2.68295 182.471 6.16085C182.471 9.53939 179.787 12.3217 176.408 12.3217C173.129 12.3217 170.445 9.63875 170.445 6.16085C170.445 2.68295 173.129 0 176.408 0ZM176.408 10.7318C178.893 10.7318 180.781 8.74444 180.781 6.16085C180.781 3.57727 178.893 1.5899 176.408 1.5899C174.023 1.5899 172.135 3.57727 172.135 6.16085C172.135 8.74444 174.023 10.7318 176.408 10.7318ZM175.613 9.73812H174.222V2.68295H176.905C178.495 2.68295 179.291 3.87538 179.291 4.96843C179.291 5.86275 178.794 6.75707 177.7 7.15454L179.291 9.04254L178.098 9.83749L175.911 7.05517V5.96212H176.905C177.601 5.96212 177.899 5.46527 177.899 4.96843C177.899 4.47159 177.601 3.97474 176.905 3.97474H175.613V9.73812Z" fill="#E40046"/>
</svg>
