<svg width="227" height="31" viewBox="0 0 227 31" fill="none" xmlns="http://www.w3.org/2000/svg">
<path opacity="0.6" d="M7.995 21.565C7.695 21.795 7.315 21.955 6.855 22.045C6.395 22.135 5.905 22.18 5.385 22.18C4.755 22.18 4.165 22.075 3.615 21.865C3.065 21.645 2.585 21.315 2.175 20.875C1.765 20.435 1.44 19.875 1.2 19.195C0.96 18.505 0.84 17.69 0.84 16.75C0.84 15.77 0.97 14.94 1.23 14.26C1.5 13.57 1.85 13.01 2.28 12.58C2.72 12.14 3.21 11.82 3.75 11.62C4.29 11.42 4.84 11.32 5.4 11.32C6 11.32 6.49 11.355 6.87 11.425C7.25 11.485 7.575 11.57 7.845 11.68L7.545 12.775C7.065 12.545 6.38 12.43 5.49 12.43C5.08 12.43 4.675 12.505 4.275 12.655C3.875 12.805 3.515 13.05 3.195 13.39C2.885 13.73 2.635 14.175 2.445 14.725C2.255 15.275 2.16 15.95 2.16 16.75C2.16 17.47 2.25 18.1 2.43 18.64C2.61 19.18 2.855 19.63 3.165 19.99C3.485 20.35 3.855 20.62 4.275 20.8C4.705 20.98 5.17 21.07 5.67 21.07C6.12 21.07 6.51 21.025 6.84 20.935C7.18 20.845 7.465 20.73 7.695 20.59L7.995 21.565ZM8.77699 18.25C8.77699 16.98 9.05699 16.01 9.61699 15.34C10.187 14.66 11.002 14.32 12.062 14.32C12.622 14.32 13.107 14.415 13.517 14.605C13.937 14.785 14.282 15.05 14.552 15.4C14.822 15.74 15.022 16.155 15.152 16.645C15.282 17.125 15.347 17.66 15.347 18.25C15.347 19.52 15.062 20.495 14.492 21.175C13.932 21.845 13.122 22.18 12.062 22.18C11.502 22.18 11.012 22.09 10.592 21.91C10.182 21.72 9.84199 21.455 9.57199 21.115C9.30199 20.765 9.10199 20.35 8.97199 19.87C8.84199 19.38 8.77699 18.84 8.77699 18.25ZM10.022 18.25C10.022 18.63 10.057 18.995 10.127 19.345C10.207 19.695 10.327 20 10.487 20.26C10.647 20.52 10.857 20.73 11.117 20.89C11.377 21.05 11.692 21.13 12.062 21.13C13.422 21.14 14.102 20.18 14.102 18.25C14.102 17.86 14.062 17.49 13.982 17.14C13.912 16.79 13.797 16.485 13.637 16.225C13.477 15.965 13.267 15.76 13.007 15.61C12.747 15.45 12.432 15.37 12.062 15.37C10.702 15.36 10.022 16.32 10.022 18.25ZM17.959 18.655V17.68H19.009C19.189 17.68 19.364 17.65 19.534 17.59C19.714 17.53 19.874 17.45 20.014 17.35C20.154 17.24 20.264 17.115 20.344 16.975C20.434 16.825 20.479 16.67 20.479 16.51C20.479 16.12 20.344 15.845 20.074 15.685C19.804 15.525 19.399 15.445 18.859 15.445C18.469 15.445 18.109 15.505 17.779 15.625C17.459 15.745 17.209 15.86 17.029 15.97L16.684 15.04C16.984 14.87 17.334 14.72 17.734 14.59C18.144 14.46 18.629 14.395 19.189 14.395C20.849 14.395 21.679 15.01 21.679 16.24C21.679 16.59 21.564 16.935 21.334 17.275C21.114 17.605 20.794 17.84 20.374 17.98V18.04C20.964 18.15 21.374 18.36 21.604 18.67C21.844 18.98 21.964 19.39 21.964 19.9C21.964 20.22 21.899 20.515 21.769 20.785C21.639 21.055 21.444 21.29 21.184 21.49C20.924 21.69 20.594 21.85 20.194 21.97C19.804 22.08 19.349 22.135 18.829 22.135C18.319 22.135 17.894 22.09 17.554 22C17.224 21.91 16.924 21.8 16.654 21.67L16.999 20.68C17.229 20.81 17.504 20.91 17.824 20.98C18.154 21.05 18.509 21.085 18.889 21.085C19.499 21.085 19.964 20.98 20.284 20.77C20.604 20.56 20.764 20.24 20.764 19.81C20.764 19.45 20.614 19.17 20.314 18.97C20.014 18.76 19.519 18.655 18.829 18.655H17.959ZM30.4901 23.905H29.6801L29.4551 22H23.8151L23.5901 23.905H22.7801V20.95H23.6651C23.7451 20.84 23.8501 20.645 23.9801 20.365C24.1101 20.075 24.2351 19.675 24.3551 19.165C24.4851 18.645 24.5951 18.005 24.6851 17.245C24.7851 16.475 24.8451 15.56 24.8651 14.5H29.3951V20.95H30.4901V23.905ZM28.1951 20.95V15.55H25.9451C25.9251 15.97 25.8901 16.43 25.8401 16.93C25.7901 17.42 25.7201 17.915 25.6301 18.415C25.5501 18.905 25.4451 19.37 25.3151 19.81C25.1851 20.25 25.0351 20.63 24.8651 20.95H28.1951ZM31.8553 15.055C32.2353 14.825 32.6753 14.655 33.1753 14.545C33.6853 14.435 34.2153 14.38 34.7653 14.38C35.2853 14.38 35.7003 14.45 36.0103 14.59C36.3303 14.73 36.5703 14.915 36.7303 15.145C36.9003 15.365 37.0103 15.61 37.0603 15.88C37.1203 16.15 37.1503 16.42 37.1503 16.69C37.1503 17.29 37.1353 17.875 37.1053 18.445C37.0753 19.015 37.0603 19.555 37.0603 20.065C37.0603 20.435 37.0753 20.785 37.1053 21.115C37.1353 21.445 37.1903 21.75 37.2703 22.03H36.3853L36.0703 20.98H35.9953C35.9053 21.12 35.7903 21.26 35.6503 21.4C35.5203 21.53 35.3603 21.65 35.1703 21.76C34.9803 21.86 34.7603 21.945 34.5103 22.015C34.2603 22.085 33.9753 22.12 33.6553 22.12C33.3353 22.12 33.0353 22.07 32.7553 21.97C32.4853 21.87 32.2503 21.73 32.0503 21.55C31.8503 21.36 31.6903 21.135 31.5703 20.875C31.4603 20.615 31.4053 20.32 31.4053 19.99C31.4053 19.55 31.4953 19.185 31.6753 18.895C31.8553 18.595 32.1053 18.36 32.4253 18.19C32.7553 18.01 33.1453 17.885 33.5953 17.815C34.0553 17.735 34.5603 17.695 35.1103 17.695C35.2503 17.695 35.3853 17.695 35.5153 17.695C35.6553 17.695 35.7953 17.705 35.9353 17.725C35.9653 17.425 35.9803 17.155 35.9803 16.915C35.9803 16.365 35.8703 15.98 35.6503 15.76C35.4303 15.54 35.0303 15.43 34.4503 15.43C34.2803 15.43 34.0953 15.445 33.8953 15.475C33.7053 15.495 33.5053 15.53 33.2953 15.58C33.0953 15.62 32.9003 15.675 32.7103 15.745C32.5303 15.805 32.3703 15.875 32.2303 15.955L31.8553 15.055ZM33.9853 21.07C34.2653 21.07 34.5153 21.035 34.7353 20.965C34.9553 20.885 35.1453 20.79 35.3053 20.68C35.4653 20.56 35.5953 20.43 35.6953 20.29C35.8053 20.15 35.8853 20.015 35.9353 19.885V18.64C35.7953 18.63 35.6503 18.625 35.5003 18.625C35.3603 18.615 35.2203 18.61 35.0803 18.61C34.7703 18.61 34.4653 18.63 34.1653 18.67C33.8753 18.7 33.6153 18.765 33.3853 18.865C33.1653 18.955 32.9853 19.085 32.8453 19.255C32.7153 19.415 32.6503 19.62 32.6503 19.87C32.6503 20.22 32.7753 20.51 33.0253 20.74C33.2753 20.96 33.5953 21.07 33.9853 21.07ZM44.0067 18.685H40.6167V22H39.4167V14.5H40.6167V17.635H44.0067V14.5H45.2067V22H44.0067V18.685ZM52.1973 17.56L52.2423 16.63H52.1973L51.5823 17.59L48.2073 22H47.5173V14.5H48.7173V19.075L48.6723 19.96H48.7323L49.3173 19.03L52.6923 14.5H53.3973V22H52.1973V17.56ZM61.1808 21.4C60.8808 21.64 60.5008 21.83 60.0408 21.97C59.5908 22.11 59.1108 22.18 58.6008 22.18C58.0308 22.18 57.5358 22.09 57.1158 21.91C56.6958 21.72 56.3508 21.455 56.0808 21.115C55.8108 20.765 55.6108 20.35 55.4808 19.87C55.3508 19.39 55.2858 18.85 55.2858 18.25C55.2858 16.97 55.5708 15.995 56.1408 15.325C56.7108 14.655 57.5258 14.32 58.5858 14.32C58.9258 14.32 59.2658 14.36 59.6058 14.44C59.9458 14.51 60.2508 14.65 60.5208 14.86C60.7908 15.07 61.0108 15.37 61.1808 15.76C61.3508 16.14 61.4358 16.645 61.4358 17.275C61.4358 17.605 61.4058 17.97 61.3458 18.37H56.5308C56.5308 18.81 56.5758 19.2 56.6658 19.54C56.7558 19.88 56.8958 20.17 57.0858 20.41C57.2758 20.64 57.5208 20.82 57.8208 20.95C58.1308 21.07 58.5058 21.13 58.9458 21.13C59.2858 21.13 59.6258 21.07 59.9658 20.95C60.3058 20.83 60.5608 20.69 60.7308 20.53L61.1808 21.4ZM58.6008 15.37C58.0108 15.37 57.5358 15.525 57.1758 15.835C56.8258 16.145 56.6158 16.675 56.5458 17.425H60.2658C60.2658 16.665 60.1208 16.135 59.8308 15.835C59.5408 15.525 59.1308 15.37 58.6008 15.37ZM72.437 21.505C72.137 21.725 71.782 21.89 71.372 22C70.962 22.12 70.532 22.18 70.082 22.18C69.502 22.18 69.012 22.09 68.612 21.91C68.212 21.72 67.882 21.455 67.622 21.115C67.372 20.765 67.187 20.35 67.067 19.87C66.957 19.38 66.902 18.84 66.902 18.25C66.902 16.98 67.182 16.01 67.742 15.34C68.302 14.66 69.107 14.32 70.157 14.32C70.637 14.32 71.042 14.36 71.372 14.44C71.712 14.51 72.017 14.615 72.287 14.755L71.942 15.79C71.712 15.66 71.457 15.56 71.177 15.49C70.897 15.41 70.597 15.37 70.277 15.37C68.857 15.37 68.147 16.33 68.147 18.25C68.147 18.63 68.182 18.995 68.252 19.345C68.332 19.685 68.457 19.99 68.627 20.26C68.807 20.52 69.037 20.73 69.317 20.89C69.607 21.05 69.962 21.13 70.382 21.13C70.742 21.13 71.062 21.075 71.342 20.965C71.632 20.855 71.867 20.73 72.047 20.59L72.437 21.505ZM73.9696 15.055C74.3496 14.825 74.7896 14.655 75.2896 14.545C75.7996 14.435 76.3296 14.38 76.8796 14.38C77.3996 14.38 77.8146 14.45 78.1246 14.59C78.4446 14.73 78.6846 14.915 78.8446 15.145C79.0146 15.365 79.1246 15.61 79.1746 15.88C79.2346 16.15 79.2646 16.42 79.2646 16.69C79.2646 17.29 79.2496 17.875 79.2196 18.445C79.1896 19.015 79.1746 19.555 79.1746 20.065C79.1746 20.435 79.1896 20.785 79.2196 21.115C79.2496 21.445 79.3046 21.75 79.3846 22.03H78.4996L78.1846 20.98H78.1096C78.0196 21.12 77.9046 21.26 77.7646 21.4C77.6346 21.53 77.4746 21.65 77.2846 21.76C77.0946 21.86 76.8746 21.945 76.6246 22.015C76.3746 22.085 76.0896 22.12 75.7696 22.12C75.4496 22.12 75.1496 22.07 74.8696 21.97C74.5996 21.87 74.3646 21.73 74.1646 21.55C73.9646 21.36 73.8046 21.135 73.6846 20.875C73.5746 20.615 73.5196 20.32 73.5196 19.99C73.5196 19.55 73.6096 19.185 73.7896 18.895C73.9696 18.595 74.2196 18.36 74.5396 18.19C74.8696 18.01 75.2596 17.885 75.7096 17.815C76.1696 17.735 76.6746 17.695 77.2246 17.695C77.3646 17.695 77.4996 17.695 77.6296 17.695C77.7696 17.695 77.9096 17.705 78.0496 17.725C78.0796 17.425 78.0946 17.155 78.0946 16.915C78.0946 16.365 77.9846 15.98 77.7646 15.76C77.5446 15.54 77.1446 15.43 76.5646 15.43C76.3946 15.43 76.2096 15.445 76.0096 15.475C75.8196 15.495 75.6196 15.53 75.4096 15.58C75.2096 15.62 75.0146 15.675 74.8246 15.745C74.6446 15.805 74.4846 15.875 74.3446 15.955L73.9696 15.055ZM76.0996 21.07C76.3796 21.07 76.6296 21.035 76.8496 20.965C77.0696 20.885 77.2596 20.79 77.4196 20.68C77.5796 20.56 77.7096 20.43 77.8096 20.29C77.9196 20.15 77.9996 20.015 78.0496 19.885V18.64C77.9096 18.63 77.7646 18.625 77.6146 18.625C77.4746 18.615 77.3346 18.61 77.1946 18.61C76.8846 18.61 76.5796 18.63 76.2796 18.67C75.9896 18.7 75.7296 18.765 75.4996 18.865C75.2796 18.955 75.0996 19.085 74.9596 19.255C74.8296 19.415 74.7646 19.62 74.7646 19.87C74.7646 20.22 74.8896 20.51 75.1396 20.74C75.3896 20.96 75.7096 21.07 76.0996 21.07ZM86.211 17.56L86.256 16.63H86.211L85.596 17.59L82.221 22H81.531V14.5H82.731V19.075L82.686 19.96H82.746L83.331 19.03L86.706 14.5H87.411V22H86.211V17.56ZM83.256 11.47C83.356 11.93 83.526 12.25 83.766 12.43C84.016 12.61 84.301 12.7 84.621 12.7C84.941 12.7 85.226 12.605 85.476 12.415C85.726 12.225 85.896 11.915 85.986 11.485L86.886 11.77C86.796 12.35 86.536 12.795 86.106 13.105C85.686 13.415 85.181 13.57 84.591 13.57C84.321 13.57 84.051 13.535 83.781 13.465C83.521 13.395 83.286 13.29 83.076 13.15C82.866 13.01 82.686 12.83 82.536 12.61C82.386 12.39 82.286 12.13 82.236 11.83L83.256 11.47ZM94.5045 15.55H92.1495V22H90.9495V15.55H88.5945V14.5H94.5045V15.55ZM95.576 15.055C95.956 14.825 96.396 14.655 96.896 14.545C97.406 14.435 97.936 14.38 98.486 14.38C99.006 14.38 99.421 14.45 99.731 14.59C100.051 14.73 100.291 14.915 100.451 15.145C100.621 15.365 100.731 15.61 100.781 15.88C100.841 16.15 100.871 16.42 100.871 16.69C100.871 17.29 100.856 17.875 100.826 18.445C100.796 19.015 100.781 19.555 100.781 20.065C100.781 20.435 100.796 20.785 100.826 21.115C100.856 21.445 100.911 21.75 100.991 22.03H100.106L99.791 20.98H99.716C99.626 21.12 99.511 21.26 99.371 21.4C99.241 21.53 99.081 21.65 98.891 21.76C98.701 21.86 98.481 21.945 98.231 22.015C97.981 22.085 97.696 22.12 97.376 22.12C97.056 22.12 96.756 22.07 96.476 21.97C96.206 21.87 95.971 21.73 95.771 21.55C95.571 21.36 95.411 21.135 95.291 20.875C95.181 20.615 95.126 20.32 95.126 19.99C95.126 19.55 95.216 19.185 95.396 18.895C95.576 18.595 95.826 18.36 96.146 18.19C96.476 18.01 96.866 17.885 97.316 17.815C97.776 17.735 98.281 17.695 98.831 17.695C98.971 17.695 99.106 17.695 99.236 17.695C99.376 17.695 99.516 17.705 99.656 17.725C99.686 17.425 99.701 17.155 99.701 16.915C99.701 16.365 99.591 15.98 99.371 15.76C99.151 15.54 98.751 15.43 98.171 15.43C98.001 15.43 97.816 15.445 97.616 15.475C97.426 15.495 97.226 15.53 97.016 15.58C96.816 15.62 96.621 15.675 96.431 15.745C96.251 15.805 96.091 15.875 95.951 15.955L95.576 15.055ZM97.706 21.07C97.986 21.07 98.236 21.035 98.456 20.965C98.676 20.885 98.866 20.79 99.026 20.68C99.186 20.56 99.316 20.43 99.416 20.29C99.526 20.15 99.606 20.015 99.656 19.885V18.64C99.516 18.63 99.371 18.625 99.221 18.625C99.081 18.615 98.941 18.61 98.801 18.61C98.491 18.61 98.186 18.63 97.886 18.67C97.596 18.7 97.336 18.765 97.106 18.865C96.886 18.955 96.706 19.085 96.566 19.255C96.436 19.415 96.371 19.62 96.371 19.87C96.371 20.22 96.496 20.51 96.746 20.74C96.996 20.96 97.316 21.07 97.706 21.07Z" fill="white"/>
<path d="M123.067 28.6591C129.731 28.6591 135.134 23.2566 135.134 16.5922C135.134 9.9279 129.731 4.52539 123.067 4.52539C116.403 4.52539 111 9.9279 111 16.5922C111 23.2566 116.403 28.6591 123.067 28.6591Z" fill="#FF4644"/>
<path d="M152.45 24.4955L151.334 21.6598H144.636L143.52 24.4955H139.357L145.783 9.32143C145.903 9.01976 146.235 8.80859 146.537 8.80859H149.433C149.795 8.80859 150.067 8.9896 150.187 9.32143L156.643 24.4955H152.45ZM148.015 13.1527L145.994 18.3112H150.036L148.015 13.1527Z" fill="#2C2A29"/>
<path d="M179.057 17.1053V24.466H175.286V17.9198C175.286 16.5924 174.411 15.7478 173.295 15.7478C171.907 15.7478 170.972 16.7433 170.972 18.7041V24.466H167.171V17.9198C167.171 16.5924 166.296 15.7478 165.15 15.7478C163.792 15.7478 162.887 16.7433 162.887 18.7041V24.466H159.086V13.455C159.086 13.0629 159.448 12.7009 159.841 12.7009H162.887V13.7869C163.672 12.8819 164.848 12.3389 166.387 12.3389C168.016 12.3389 169.464 13.0629 170.278 14.3299C171.214 13.1232 172.662 12.3389 174.472 12.3389C177.036 12.369 179.057 14.2696 179.057 17.1053Z" fill="#2C2A29"/>
<path d="M194.714 24.4953H190.943V23.53C190.038 24.3445 188.801 24.797 187.262 24.797C184.095 24.797 181.44 22.2931 181.44 18.5826C181.44 14.9022 184.095 12.3682 187.262 12.3682C188.801 12.3682 190.038 12.8508 190.943 13.6352V12.7H194.744V24.4953H194.714ZM190.943 18.6128C190.943 16.8027 189.585 15.5659 188.047 15.5659C186.418 15.5659 185.181 16.8027 185.181 18.6128C185.181 20.4228 186.388 21.6596 188.047 21.6596C189.585 21.6295 190.943 20.4228 190.943 18.6128Z" fill="#2C2A29"/>
<path d="M210.582 24.4953H206.78V23.5299C205.875 24.3444 204.639 24.7969 203.1 24.7969C199.933 24.7969 197.278 22.2931 197.278 18.5825C197.278 14.9021 199.933 12.3681 203.1 12.3681C204.639 12.3681 205.875 12.8507 206.78 13.6351V7.63184H210.582V24.4953ZM206.78 18.6127C206.78 16.8026 205.423 15.5658 203.884 15.5658C202.255 15.5658 201.019 16.8026 201.019 18.6127C201.019 20.4227 202.225 21.6595 203.884 21.6595C205.393 21.6294 206.78 20.4227 206.78 18.6127Z" fill="#2C2A29"/>
<path d="M226.239 18.613C226.239 22.3235 223.252 24.8274 219.722 24.8274C216.133 24.8274 213.146 22.3537 213.146 18.613C213.146 14.9326 216.102 12.4287 219.722 12.4287C223.252 12.4287 226.239 14.9024 226.239 18.613ZM222.588 18.613C222.588 16.8029 221.201 15.5661 219.722 15.5661C218.184 15.5661 216.796 16.7728 216.796 18.613C216.796 20.4532 218.184 21.6599 219.722 21.6599C221.17 21.6297 222.588 20.4532 222.588 18.613Z" fill="#2C2A29"/>
<path d="M116.068 29.3523C116.038 29.3222 116.008 29.3222 115.978 29.292C116.038 29.3222 116.068 29.3222 116.068 29.3523Z" fill="#5637E3"/>
<path d="M113.323 25.7019C113.323 25.6718 113.292 25.6718 113.292 25.6416C113.292 25.6718 113.323 25.6718 113.323 25.7019Z" fill="#5637E3"/>
<path d="M145.753 0C145.24 0.271504 144.908 0.754178 144.395 1.02568C144.395 0.995515 144.395 0.965348 144.395 0.935181C144.244 1.02568 144.274 1.08602 144.214 1.17652C144.184 1.23685 144.063 1.29719 144.003 1.29719C143.912 1.29719 143.973 1.29719 143.942 1.23685C143.942 1.26702 143.037 1.90053 142.917 1.99103C142.736 2.14187 142.585 2.26253 142.404 2.41337C142.253 2.53404 142.102 2.77538 141.951 2.86588C141.861 2.92621 141.74 2.92621 141.62 3.01671C141.469 3.10721 141.348 3.22788 141.197 3.31838C141.077 3.40888 140.926 3.43905 140.835 3.49939C140.654 3.65022 140.624 3.86139 140.534 4.01223C140.383 4.19323 140.111 4.34407 139.93 4.46473C139.719 4.61557 139.538 4.76641 139.357 4.94741C138.965 5.27925 138.543 5.61108 138.15 5.94292C137.396 6.6066 136.642 7.30044 135.918 7.99429C135.496 8.38646 135.073 8.8088 134.621 9.20097C134.41 9.38197 134.229 9.56298 134.018 9.77415C133.897 9.89482 133.806 9.98532 133.716 10.106C133.656 10.2267 133.565 10.3775 133.505 10.4982C133.444 8.92947 132.268 7.36078 130.609 7.30044C130.639 7.24011 130.639 7.20994 130.669 7.14961C129.191 6.99877 127.773 7.20994 126.385 7.81328C125.118 8.35629 123.972 9.1708 123.007 10.1362C122.826 9.50264 122.584 8.8088 122.222 8.23562C122.132 8.11495 122.041 7.96412 121.951 7.84345C121.921 7.81328 121.77 7.54178 121.8 7.72278C121.709 7.24011 121.317 6.66693 120.985 6.3351C121.015 6.3351 121.046 6.36526 121.076 6.39543C120.895 6.06359 120.593 5.94292 120.322 5.70159C120.201 5.61108 120.11 5.43008 119.99 5.36975C119.869 5.30941 119.718 5.24908 119.598 5.18875C119.417 5.06808 119.236 5.00774 119.024 4.94741C118.934 4.91724 118.843 4.88707 118.753 4.88707C118.693 4.88707 118.542 4.91724 118.481 4.88707C118.421 4.85691 118.391 4.79657 118.361 4.76641C118.27 4.73624 118.15 4.73624 118.059 4.73624C117.848 4.70607 117.637 4.73624 117.426 4.73624C116.641 4.79657 115.827 5.06808 115.163 5.52058C114.831 5.76192 114.56 6.09376 114.258 6.39543C113.926 6.72727 113.594 7.08927 113.413 7.54178C113.323 7.75295 113.293 7.90379 113.202 8.08479C113.082 8.26579 112.991 8.44679 112.901 8.6278C112.689 9.0803 112.508 9.56298 112.448 10.0457C112.448 10.0155 112.448 9.98532 112.448 9.95515C112.297 10.5283 112.177 11.1317 112.116 11.7048C112.086 11.9462 112.086 12.1875 112.116 12.3987C112.116 12.4289 112.146 12.5194 112.146 12.5495C112.116 12.64 112.116 12.6099 112.056 12.7004C111.965 12.821 111.905 12.8814 111.845 13.0322C111.754 13.2434 111.694 13.4847 111.694 13.6959C111.694 13.9674 111.724 14.2087 111.724 14.4802C111.724 15.0534 111.694 15.6266 111.784 16.1997C111.815 16.3807 111.754 16.5014 111.754 16.7126C111.754 16.8634 111.754 17.0143 111.724 17.1651C111.724 17.2254 111.694 17.1651 111.694 17.2556C111.694 17.3159 111.724 17.4064 111.724 17.4668C111.754 17.6176 111.784 17.7684 111.815 17.9193C111.875 18.2511 111.935 18.5829 111.996 18.9148C112.237 20.2421 112.478 21.5695 112.75 22.8968C112.901 23.6209 113.051 24.3449 113.232 25.099C113.263 25.28 113.293 25.4611 113.353 25.6421C113.413 25.7929 113.504 25.8834 113.655 25.9739C113.926 26.1549 114.409 26.5169 114.379 26.4566C114.68 26.8789 114.922 27.9046 114.861 27.8443C115.223 28.1158 115.344 28.6286 115.736 28.9303C115.827 28.9906 115.947 29.0208 116.008 29.0811C116.038 29.1113 115.978 29.1414 116.038 29.1716C116.128 29.2319 116.279 29.4733 116.159 29.4129C117.697 30.5593 119.658 30.499 121.227 29.4129C122.705 28.3873 123.67 26.7884 124.666 25.3404C125.329 24.375 126.023 23.4399 126.747 22.5047C126.747 22.565 126.747 22.6253 126.717 22.6857C126.838 22.4142 126.928 22.1427 127.049 21.841C127.079 21.8712 127.079 21.9315 127.079 21.9918C127.894 21.2377 128.225 20.1516 128.889 19.2768C128.949 19.3371 128.949 19.4578 129.04 19.4578C129.13 19.4578 129.161 19.2466 129.191 19.1561C129.281 18.9751 129.402 18.8545 129.553 18.7338C129.854 18.4924 130.005 18.2813 129.794 17.9193C129.885 17.9193 129.975 18.0098 130.005 18.1003C130.79 16.6523 131.604 15.2344 132.509 13.8769C132.72 13.5752 132.901 13.2735 133.113 12.9719C133.203 12.821 133.324 12.6702 133.414 12.4892C133.505 12.3082 133.505 12.097 133.535 11.8858C133.565 11.6445 133.565 11.4937 133.716 11.3127C133.837 11.1618 133.957 11.0412 134.078 10.8903C134.349 10.5887 134.621 10.287 134.923 9.98532C134.923 10.0457 135.134 9.83448 135.134 9.86465C135.586 9.77415 135.858 9.32164 136.099 8.9898C136.22 8.83897 136.31 8.68813 136.461 8.59763C136.521 8.56746 136.642 8.5373 136.672 8.50713C136.763 8.38646 136.672 8.26579 136.552 8.23562C137.366 7.42111 138.181 6.63677 139.025 5.85242C139.448 5.46025 139.87 5.06808 140.262 4.6759C140.473 4.4949 140.684 4.28373 140.865 4.10273C140.986 3.98206 141.288 3.55972 141.469 3.77089C142.102 3.04688 142.826 2.41337 143.58 1.84019C143.973 1.53852 144.365 1.26702 144.727 0.995515C144.848 0.905014 145.843 0.150836 145.843 0.150836C145.753 0 145.692 0.0603342 145.692 0.0603342C145.692 0.0301671 145.722 0.0301671 145.753 0C145.572 0.120668 145.179 0.271504 145.753 0ZM129.824 8.05462C130.729 8.17529 131.574 8.5373 132.298 9.11047C132.479 9.26131 132.63 9.38197 132.75 9.62331C132.841 9.83448 132.901 10.0457 132.931 10.2568C132.962 10.468 132.962 10.6792 132.931 10.8903C132.931 10.9808 132.931 11.1015 132.871 11.192C132.811 11.3127 132.66 11.4032 132.569 11.4937C132.177 11.8255 131.725 12.1272 131.333 12.4289C131.121 12.5797 130.94 12.7607 130.759 12.9115C130.669 13.002 130.578 13.0925 130.488 13.2132C130.428 13.2735 130.367 13.4244 130.307 13.3037C130.156 13.6355 129.915 13.9372 129.704 14.2087C129.583 14.3294 129.492 14.4501 129.372 14.5707C129.251 14.6612 129.07 14.7819 129.01 14.9026C128.919 15.0534 128.949 15.2646 128.889 15.4456C128.829 15.5662 128.708 15.6266 128.587 15.6869C128.376 15.8377 128.195 15.9886 128.014 16.1394C126.596 17.2556 125.42 18.5829 124.062 19.7896C122.856 20.8455 121.196 21.8108 119.628 20.936C119.356 20.7851 119.085 20.5438 118.934 20.2421C118.783 19.9706 118.813 19.6388 118.843 19.3371C118.934 18.5226 119.386 17.7986 119.748 17.1048C120.623 15.4757 122.826 12.4289 122.765 12.5495C122.916 12.3384 123.097 12.1573 123.308 11.9763C123.308 12.097 123.369 12.1875 123.369 12.3082C123.369 12.3384 123.338 12.3384 123.338 12.3384C123.308 12.5194 123.399 12.64 123.369 12.7909C123.369 12.9115 123.278 13.6959 123.278 13.726C123.248 13.7562 123.248 13.8165 123.218 13.8467C123.188 13.8467 123.067 14.5104 123.218 14.5104C123.308 14.5104 123.278 14.1484 123.308 14.0579C123.369 13.8165 123.399 13.545 123.459 13.2735C123.519 12.9719 123.459 12.6702 123.429 12.3685C123.429 12.278 123.429 12.1875 123.429 12.097C123.429 12.0367 123.369 11.8858 123.399 11.8255C123.429 11.7652 123.58 11.6445 123.64 11.6143C124.183 11.1317 128.105 7.81328 129.824 8.05462ZM131.333 14.1785C130.367 15.8076 129.342 17.4064 128.346 19.0355C128.316 19.0053 128.286 19.0053 128.256 18.9751C127.471 20.393 126.415 21.6298 125.36 22.8365C124.847 23.4399 124.334 24.0432 123.851 24.6465C123.61 24.9784 123.338 25.3102 123.097 25.6421C122.856 26.0041 122.554 26.3359 122.252 26.6677C121.227 27.8744 119.96 29.3224 118.21 29.2319C117.395 29.2018 116.641 28.8096 116.068 28.2364C115.525 27.6934 115.254 26.9392 114.892 26.3057C114.469 25.5515 113.987 24.7974 113.625 24.013C113.263 23.2287 113.082 22.4745 113.021 21.5997C112.901 19.8198 112.72 18.0399 112.599 16.2902C112.478 14.5707 112.448 12.7607 112.689 11.0412C112.81 10.1965 113.142 9.29147 113.474 8.50713C113.775 7.75295 114.198 7.05911 114.741 6.48593C115.917 5.27925 117.757 4.55523 119.356 5.39991C120.11 5.82225 120.714 6.27476 121.196 7.02894C121.739 7.81328 122.132 8.65796 122.494 9.56298C122.494 9.53281 122.494 9.50264 122.494 9.47248C122.524 9.62331 122.584 9.74398 122.614 9.89482C122.645 9.98532 122.795 10.2267 122.765 10.3172C122.735 10.4077 122.554 10.5585 122.494 10.6188C122.403 10.7093 122.313 10.83 122.222 10.9205C122.041 11.1317 121.86 11.3428 121.649 11.554C121.468 11.735 121.498 11.7048 121.317 11.554C120.653 13.3942 117.908 13.907 117.878 16.0791C117.818 15.9886 117.727 15.8981 117.667 15.8076C117.938 16.2601 117.456 17.1048 117.456 17.2254C117.426 17.3763 117.576 17.6176 117.576 17.7986C117.576 18.1304 117.456 18.4321 117.335 18.7639C117.184 19.1561 117.033 19.5181 117.094 19.9405C117.154 20.3025 117.395 20.6645 117.727 20.8153C117.727 20.8153 117.637 20.8153 117.576 20.8153C117.878 21.0265 118.361 21.1773 118.572 21.5393C118.512 21.5393 118.451 21.6298 118.361 21.6298C118.693 22.2633 119.417 22.565 120.08 22.5348C120.925 22.5047 121.649 22.1125 122.433 21.8108C122.433 21.9315 122.403 22.0522 122.403 22.203C122.645 21.8108 123.157 21.5997 123.55 21.3583C123.972 21.117 124.364 20.8455 124.666 20.4231C124.696 20.4835 124.726 20.5136 124.756 20.574C124.817 20.4231 124.847 20.2723 124.907 20.0913C124.967 20.1516 125.028 20.212 125.088 20.2723C125.209 20.3628 125.148 20.393 125.299 20.3025C125.601 20.1215 125.872 19.9103 126.114 19.6388C126.596 19.126 126.928 18.5528 127.381 18.0399C127.441 18.1304 127.501 18.2209 127.562 18.3114C127.863 17.1953 129.01 16.7428 129.583 15.8076C129.583 15.8377 129.613 15.8679 129.613 15.8981C130.367 15.1741 131.061 14.3595 131.755 13.5752C131.574 13.7562 131.453 13.9674 131.333 14.1785C131.453 13.9674 130.337 15.8377 131.333 14.1785Z" fill="#5637E3"/>
</svg>
