<svg width="175" height="57" viewBox="0 0 175 57" fill="none" xmlns="http://www.w3.org/2000/svg">
<path d="M49.5242 13.0458C56.0548 12.5669 62.7379 12.3927 69.4645 12.4798C69.7692 12.4798 70.074 12.4798 70.357 12.5016C71.2713 12.5233 72.1856 12.5451 73.0781 12.5669C73.5352 12.5886 74.0142 12.5886 74.4713 12.6104C75.5162 12.6539 76.5394 12.6975 77.5843 12.741C78.1938 12.7628 78.8251 12.8063 79.4346 12.8281C80.1312 12.8716 80.8278 12.8934 81.5244 12.9369C82.0033 12.9587 82.4605 12.9805 82.9176 13.024C105.535 14.5043 127.152 18.7928 141.694 24.7574C124.997 -12.1843 40.0547 -1.10398 10.1225 22.1452C9.42592 22.6894 8.79462 23.2118 8.16333 23.7778C8.03271 23.8867 7.9021 23.9955 7.77149 24.1261C7.14019 24.6921 6.55243 25.2364 5.98644 25.8241C5.44222 26.3683 4.94153 26.9343 4.46262 27.5003C4.35377 27.6309 4.22317 27.7833 4.11432 27.9139C3.65718 28.4799 3.20003 29.0459 2.80819 29.6337C1.04491 32.2242 0.174152 34.6405 0.0217702 36.8827C1.32834e-06 37.2092 0 37.514 0 37.8405C0.0653066 40.1698 0.870758 42.2596 2.22043 44.1317C3.5701 46.0039 5.48576 47.6365 7.77149 49.0515C8.68578 49.6175 9.66538 50.1617 10.6885 50.6624C11.7117 51.1631 12.7783 51.642 13.8885 52.0774C14.4328 52.2951 14.9988 52.5128 15.5647 52.7087C16.6967 53.1223 17.8722 53.4924 19.0478 53.8407C19.6355 54.0148 20.2451 54.1672 20.8328 54.3413C22.0301 54.6461 23.2492 54.9291 24.4682 55.1903C29.3444 56.2135 34.2207 56.7577 38.3785 56.8883C39.4234 56.9318 40.403 56.9318 41.3391 56.9101C42.2752 56.8883 43.1459 56.8448 43.9731 56.7794C33.7853 56.257 9.40415 47.5277 7.83679 34.2487C6.31297 21.3833 25.056 14.9179 49.5242 13.0458Z" fill="white"/>
<path d="M23.2922 23.6907V37.5357H23.4663L33.0229 23.6907H36.3317V44.001H32.6528V30.156H32.4786L22.9003 44.001H19.635V23.6907H23.2922Z" fill="white"/>
<path d="M51.6136 39.8213L56.1416 28.7627H60.4953V44.0009H57.0776V33.6172L52.8762 44.0009H50.3728L46.3238 33.726V44.0009H42.8625V28.7627H47.2163L51.6136 39.8213Z" fill="white"/>
<path d="M66.8091 44.0009V28.7627H79.6745V44.0009H76.2132V31.7015H70.2486V44.0009H66.8091Z" fill="white"/>
<path d="M84.9852 44.0009L84.9634 41.0403H85.4858C86.0083 41.0403 86.4437 40.888 86.7484 40.5397C87.0532 40.2131 87.2926 39.6471 87.4668 38.8417C87.6192 38.0362 87.728 36.926 87.7933 35.511L88.0546 28.7627H99.1567V44.0009H95.6954V31.7233H91.3199L91.0804 36.6213C90.9716 39.1682 90.5144 41.0186 89.7308 42.2159C88.9471 43.4131 87.728 44.0009 86.0954 44.0009H84.9852Z" fill="white"/>
<path d="M112.109 44.2845C110.629 44.2845 109.323 43.958 108.235 43.3049C107.146 42.6518 106.297 41.7376 105.709 40.562C105.1 39.3865 104.817 38.0151 104.817 36.4477C104.817 34.8804 105.122 33.4871 105.709 32.3116C106.297 31.1361 107.146 30.2218 108.235 29.547C109.323 28.8939 110.607 28.5674 112.109 28.5674C113.59 28.5674 114.896 28.8939 115.984 29.547C117.073 30.2 117.922 31.1143 118.51 32.3116C119.097 33.4871 119.402 34.8586 119.402 36.4477C119.402 38.0151 119.097 39.3865 118.51 40.562C117.922 41.7376 117.073 42.6518 115.984 43.3049C114.896 43.958 113.612 44.2845 112.109 44.2845ZM112.131 41.411C112.937 41.411 113.612 41.1933 114.156 40.7362C114.7 40.3008 115.092 39.6913 115.353 38.9294C115.614 38.1675 115.745 37.3402 115.745 36.4042C115.745 35.4681 115.614 34.6191 115.353 33.879C115.092 33.1171 114.678 32.5293 114.156 32.0722C113.612 31.615 112.937 31.3973 112.131 31.3973C111.304 31.3973 110.629 31.615 110.085 32.0722C109.541 32.5293 109.127 33.1171 108.866 33.879C108.605 34.6409 108.452 35.4899 108.452 36.4042C108.452 37.3185 108.583 38.1675 108.866 38.9294C109.127 39.6913 109.541 40.279 110.085 40.7362C110.629 41.1933 111.326 41.411 112.131 41.411Z" fill="white"/>
<path d="M125.127 44.0009V28.7627H131.527C133.334 28.7627 134.749 29.1328 135.794 29.8511C136.839 30.5695 137.361 31.5709 137.361 32.8552C137.361 33.7042 137.056 34.4008 136.469 34.9451C135.881 35.4675 135.075 35.8376 134.052 36.0335C135.249 36.1423 136.229 36.5342 136.969 37.2308C137.709 37.9274 138.101 38.7981 138.101 39.8648C138.101 41.1274 137.622 42.1288 136.643 42.8689C135.663 43.6091 134.292 44.0009 132.507 44.0009H125.127ZM128.501 35.0757H131.614C132.332 35.0757 132.92 34.9233 133.334 34.5968C133.747 34.292 133.965 33.8566 133.965 33.3124C133.965 32.7899 133.747 32.3763 133.312 32.0716C132.877 31.7668 132.289 31.6362 131.549 31.6362H128.523V35.0757H128.501ZM128.501 41.171H132.528C133.181 41.171 133.704 41.0186 134.096 40.692C134.466 40.3873 134.662 39.9519 134.662 39.4077C134.662 38.7764 134.466 38.2757 134.096 37.9274C133.726 37.5573 133.203 37.3832 132.528 37.3832H128.501V41.171Z" fill="white"/>
<path d="M147.223 39.1247L153.319 28.7627H157.019V44.0009H153.558V33.6172L147.463 44.0009H143.762V28.7627H147.223V39.1247Z" fill="white"/>
<path d="M161.677 31.7015V28.7627H175V31.7015H170.08V44.0009H166.597V31.7015H161.677Z" fill="white"/>
</svg>
