<svg width="120" height="39" viewBox="0 0 120 39" fill="none" xmlns="http://www.w3.org/2000/svg">
<path d="M33.9595 8.41801C38.4376 8.08961 43.0203 7.9702 47.6328 8.02991C47.8418 8.02991 48.0508 8.02991 48.2449 8.04483C48.8718 8.05976 49.4987 8.07469 50.1108 8.08961C50.4242 8.10454 50.7526 8.10454 51.0661 8.11947C51.7826 8.14932 52.4842 8.17918 53.2007 8.20903C53.6187 8.22396 54.0515 8.25381 54.4695 8.26874C54.9472 8.2986 55.4249 8.31352 55.9025 8.34338C56.2309 8.3583 56.5444 8.37323 56.8579 8.40309C72.3673 9.41814 87.19 12.3588 97.1614 16.4489C85.7122 -8.88266 27.4661 -1.2847 6.94117 14.6576C6.4635 15.0308 6.03061 15.389 5.59772 15.7771C5.50815 15.8518 5.41859 15.9264 5.32903 16.016C4.89614 16.4041 4.4931 16.7773 4.10499 17.1803C3.73181 17.5535 3.38848 17.9416 3.06008 18.3297C2.98545 18.4193 2.89589 18.5238 2.82125 18.6133C2.50778 19.0014 2.19431 19.3895 1.92562 19.7926C0.716511 21.5689 0.119419 23.2258 0.0149282 24.7633C9.10864e-07 24.9873 0 25.1962 0 25.4201C0.0447817 27.0174 0.597092 28.4504 1.52258 29.7341C2.44807 31.0179 3.76167 32.1374 5.32903 33.1077C5.95597 33.4958 6.6277 33.869 7.32928 34.2123C8.03086 34.5556 8.76229 34.884 9.52358 35.1826C9.89676 35.3318 10.2849 35.4811 10.673 35.6155C11.4492 35.8991 12.2553 36.1528 13.0613 36.3917C13.4644 36.5111 13.8823 36.6156 14.2854 36.735C15.1064 36.944 15.9423 37.138 16.7782 37.3172C20.1219 38.0187 23.4656 38.3919 26.3167 38.4815C27.0332 38.5113 27.705 38.5113 28.3468 38.4964C28.9887 38.4815 29.5858 38.4516 30.153 38.4068C23.1671 38.0486 6.44857 32.0628 5.37381 22.9571C4.3289 14.1351 17.1813 9.70176 33.9595 8.41801Z" fill="#46C0C1"/>
<path d="M15.9726 15.7168V25.2105H16.092L22.6451 15.7168H24.914V29.6439H22.3913V20.1502H22.2719L15.7039 29.6439H13.4648V15.7168H15.9726Z" fill="#333333"/>
<path d="M35.3933 26.7784L38.4982 19.1953H41.4836V29.6444H39.1401V22.5241L36.2591 29.6444H34.5425L31.766 22.5987V29.6444H29.3926V19.1953H32.378L35.3933 26.7784Z" fill="#333333"/>
<path d="M45.8125 29.6444V19.1953H54.6345V29.6444H52.2611V21.2105H48.171V29.6444H45.8125Z" fill="#333333"/>
<path d="M58.2747 29.6444L58.2598 27.6143H58.618C58.9763 27.6143 59.2748 27.5098 59.4838 27.271C59.6928 27.047 59.857 26.6589 59.9764 26.1066C60.0809 25.5543 60.1555 24.793 60.2003 23.8228L60.3794 19.1953H67.9923V29.6444H65.6189V21.2254H62.6185L62.4543 24.584C62.3797 26.3305 62.0662 27.5993 61.5288 28.4203C60.9915 29.2413 60.1555 29.6444 59.036 29.6444H58.2747Z" fill="#333333"/>
<path d="M76.8756 29.838C75.8606 29.838 74.9649 29.6141 74.2186 29.1663C73.4722 28.7185 72.8901 28.0915 72.487 27.2855C72.0691 26.4794 71.875 25.539 71.875 24.4642C71.875 23.3894 72.084 22.4341 72.487 21.628C72.8901 20.822 73.4722 20.195 74.2186 19.7323C74.9649 19.2845 75.8456 19.0605 76.8756 19.0605C77.8907 19.0605 78.7863 19.2845 79.5327 19.7323C80.279 20.1801 80.8612 20.807 81.2642 21.628C81.6673 22.4341 81.8763 23.3745 81.8763 24.4642C81.8763 25.539 81.6673 26.4794 81.2642 27.2855C80.8612 28.0915 80.279 28.7185 79.5327 29.1663C78.7863 29.6141 77.9056 29.838 76.8756 29.838ZM76.8906 27.8676C77.4429 27.8676 77.9056 27.7183 78.2788 27.4049C78.652 27.1063 78.9207 26.6884 79.0998 26.1659C79.2789 25.6435 79.3685 25.0762 79.3685 24.4344C79.3685 23.7925 79.2789 23.2103 79.0998 22.7028C78.9207 22.1803 78.637 21.7773 78.2788 21.4638C77.9056 21.1504 77.4429 21.0011 76.8906 21.0011C76.3233 21.0011 75.8606 21.1504 75.4874 21.4638C75.1142 21.7773 74.8306 22.1803 74.6515 22.7028C74.4723 23.2252 74.3679 23.8074 74.3679 24.4344C74.3679 25.0613 74.4574 25.6435 74.6515 26.1659C74.8306 26.6884 75.1142 27.0914 75.4874 27.4049C75.8606 27.7183 76.3383 27.8676 76.8906 27.8676Z" fill="#333333"/>
<path d="M85.8008 29.6444V19.1953H90.1894C91.4284 19.1953 92.3986 19.4491 93.1151 19.9417C93.8316 20.4343 94.1899 21.1209 94.1899 22.0016C94.1899 22.5838 93.9809 23.0615 93.5779 23.4346C93.1748 23.7929 92.6225 24.0467 91.921 24.181C92.742 24.2556 93.4137 24.5243 93.9212 25.002C94.4287 25.4797 94.6974 26.0768 94.6974 26.8082C94.6974 27.674 94.369 28.3606 93.6973 28.8682C93.0256 29.3757 92.0852 29.6444 90.8611 29.6444H85.8008ZM88.1145 23.5242H90.2491C90.7417 23.5242 91.1447 23.4197 91.4284 23.1958C91.712 22.9868 91.8612 22.6883 91.8612 22.3151C91.8612 21.9569 91.712 21.6732 91.4134 21.4643C91.1149 21.2553 90.7118 21.1657 90.2043 21.1657H88.1294V23.5242H88.1145ZM88.1145 27.7038H90.876C91.3239 27.7038 91.6821 27.5993 91.9508 27.3754C92.2046 27.1665 92.3389 26.8679 92.3389 26.4947C92.3389 26.0618 92.2046 25.7185 91.9508 25.4797C91.697 25.2259 91.3388 25.1065 90.876 25.1065H88.1145V27.7038Z" fill="#333333"/>
<path d="M100.954 26.3007L105.133 19.1953H107.671V29.6444H105.297V22.5241L101.118 29.6444H98.5801V19.1953H100.954V26.3007Z" fill="#333333"/>
<path d="M110.865 21.2105V19.1953H120.001V21.2105H116.627V29.6444H114.239V21.2105H110.865Z" fill="#333333"/>
</svg>
