<svg width="40" height="28" viewBox="0 0 40 28" fill="none" xmlns="http://www.w3.org/2000/svg">
<path d="M37.65 0H2.35C1.72674 0 1.12901 0.247588 0.688299 0.688299C0.247588 1.12901 0 1.72674 0 2.35V25.15C0 25.7733 0.247588 26.371 0.688299 26.8117C1.12901 27.2524 1.72674 27.5 2.35 27.5H37.65C38.2733 27.5 38.871 27.2524 39.3117 26.8117C39.7524 26.371 40 25.7733 40 25.15V2.35C40 1.72674 39.7524 1.12901 39.3117 0.688299C38.871 0.247588 38.2733 0 37.65 0ZM37.5 25H2.5V2.5H37.5V25Z" fill="white"/>
<path d="M8.19922 11.8125C8.9409 11.8125 9.66592 11.5926 10.2826 11.1805C10.8993 10.7685 11.3799 10.1828 11.6638 9.49757C11.9476 8.81234 12.0219 8.05834 11.8772 7.33091C11.7325 6.60348 11.3753 5.9353 10.8509 5.41085C10.3264 4.88641 9.65824 4.52925 8.93081 4.38456C8.20338 4.23986 7.44938 4.31412 6.76416 4.59795C6.07893 4.88178 5.49326 5.36243 5.08121 5.97911C4.66915 6.5958 4.44922 7.32082 4.44922 8.0625C4.44922 9.05707 4.84431 10.0109 5.54757 10.7142C6.25083 11.4174 7.20466 11.8125 8.19922 11.8125ZM8.19922 6.0625C8.59676 6.05256 8.98824 6.16136 9.32365 6.37499C9.65906 6.58862 9.92317 6.89739 10.0822 7.26185C10.2413 7.62632 10.2881 8.02993 10.2167 8.42113C10.1453 8.81233 9.95883 9.17335 9.68122 9.45808C9.40361 9.74281 9.04742 9.93831 8.65816 10.0196C8.26889 10.1009 7.86422 10.0644 7.49585 9.91456C7.12748 9.76477 6.81212 9.50856 6.59007 9.17866C6.36801 8.84877 6.24934 8.46017 6.24922 8.0625C6.24906 7.54062 6.45289 7.03934 6.81722 6.66568C7.18154 6.29201 7.6775 6.07555 8.19922 6.0625Z" fill="white"/>
<path d="M7.01147 22.4996C7.24449 22.4996 7.46795 22.407 7.63272 22.2423L14.8754 14.9996L18.8504 18.9746L16.8343 20.9907C16.2775 21.5475 16.6718 22.4996 17.4593 22.4996C17.6937 22.4996 17.9185 22.4065 18.0843 22.2407L27.1504 13.1746L33.4876 19.4613C34.0478 20.0171 35.0004 19.6202 35.0004 18.8311C35.0004 18.5949 34.9062 18.3684 34.7388 18.2018L27.7504 11.2496C27.5842 11.0847 27.3595 10.9922 27.1254 10.9922C26.8913 10.9922 26.6666 11.0847 26.5004 11.2496L20.0504 17.6996L15.4629 13.1246C15.2967 12.9597 15.072 12.8672 14.8379 12.8672C14.6038 12.8672 14.3791 12.9597 14.2129 13.1246L6.38815 21.0018C5.83753 21.5562 6.23016 22.4996 7.01147 22.4996Z" fill="white"/>
</svg>
