<svg width="20" height="18" viewBox="0 0 20 18" fill="none" xmlns="http://www.w3.org/2000/svg">
<path d="M9.99996 17.7937C10.2847 17.7937 10.5592 17.6905 10.7731 17.5031C11.5811 16.7966 12.36 16.1327 13.0473 15.5471L13.0508 15.544C15.0657 13.827 16.8057 12.3441 18.0163 10.8834C19.3697 9.25037 20 7.70206 20 6.01061C20 4.36724 19.4365 2.85112 18.4134 1.74134C17.3781 0.618441 15.9575 0 14.4128 0C13.2583 0 12.201 0.364992 11.2704 1.08475C10.8007 1.44807 10.375 1.89271 9.99996 2.41136C9.62474 1.89271 9.19917 1.44807 8.72935 1.08475C7.79872 0.364992 6.74143 0 5.58695 0C4.04245 0 2.62169 0.618441 1.58638 1.74134C0.563274 2.85112 -8.2016e-05 4.36724 -8.2016e-05 6.01061C-8.2016e-05 7.70206 0.630108 9.25037 1.98342 10.8832C3.19405 12.3441 4.93387 13.8268 6.94849 15.5437C7.63697 16.1303 8.41716 16.7953 9.22695 17.5034C9.44072 17.6905 9.71538 17.7937 9.99996 17.7937ZM14.5249 1.39745C15.7384 1.39745 16.5945 1.82528 17.4055 2.7048C18.2286 3.5976 18.6242 4.66234 18.6242 6.01061C18.6242 7.4332 18.1257 8.5646 16.9402 9.99496C15.7944 11.3776 14.1685 12.8925 12.1953 14.5742C11.5054 15.1621 10.8139 15.7757 9.99996 16.4874C9.18117 15.7744 8.34699 15.1041 7.65576 14.5153C5.68264 12.8336 4.17041 11.3776 3.02462 9.99496C1.83932 8.5646 1.29626 7.4332 1.29626 6.01061C1.29626 4.66234 1.73623 3.5976 2.55929 2.7048C3.37015 1.82528 4.37356 1.39745 5.58695 1.39745C6.47593 1.39745 7.15667 1.6379 7.87735 2.19515C8.51959 2.69198 8.96465 3.1363 9.22695 3.57576C9.36183 3.80174 9.73705 4.05647 9.99996 4.05647C10.2629 4.05647 10.6382 3.80174 10.7731 3.57576C11.0353 3.1363 11.5115 2.69198 12.1539 2.19515C12.8746 1.6379 13.6361 1.39745 14.5249 1.39745Z" fill="#46C0C1"/>
</svg>
