<svg width="318" height="37" viewBox="0 0 318 37" fill="none" xmlns="http://www.w3.org/2000/svg">
<path d="M237.695 8.06372C241.875 7.75722 246.152 7.64576 250.457 7.70149C250.652 7.70149 250.847 7.70149 251.028 7.71542C251.613 7.72935 252.198 7.74329 252.769 7.75722C253.062 7.77115 253.368 7.77115 253.661 7.78508C254.33 7.81294 254.984 7.84081 255.653 7.86867C256.043 7.8826 256.447 7.91047 256.837 7.9244C257.283 7.95226 257.729 7.9662 258.175 7.99406C258.481 8.00799 258.774 8.02192 259.067 8.04979C273.542 8.99715 287.376 11.7417 296.683 15.5591C285.997 -8.08332 231.635 -0.991999 212.478 13.8872C212.033 14.2355 211.628 14.5699 211.224 14.9321C211.141 15.0018 211.057 15.0715 210.974 15.155C210.57 15.5173 210.193 15.8656 209.831 16.2417C209.483 16.59 209.163 16.9523 208.856 17.3145C208.786 17.3981 208.703 17.4956 208.633 17.5792C208.341 17.9414 208.048 18.3036 207.797 18.6798C206.669 20.3377 206.111 21.8841 206.014 23.3191C206 23.5281 206 23.7231 206 23.9321C206.042 25.4228 206.557 26.7603 207.421 27.9584C208.285 29.1566 209.511 30.2015 210.974 31.107C211.559 31.4693 212.186 31.8176 212.841 32.138C213.495 32.4584 214.178 32.7649 214.889 33.0436C215.237 33.1829 215.599 33.3222 215.961 33.4476C216.686 33.7123 217.438 33.9491 218.19 34.172C218.567 34.2835 218.957 34.381 219.333 34.4925C220.099 34.6875 220.879 34.8686 221.659 35.0358C224.78 35.6906 227.901 36.0389 230.562 36.1225C231.231 36.1504 231.858 36.1504 232.457 36.1364C233.056 36.1225 233.613 36.0946 234.142 36.0528C227.622 35.7185 212.019 30.1318 211.015 21.6334C210.04 13.3996 222.036 9.26186 237.695 8.06372Z" fill="#46C0C1"/>
<path d="M220.903 14.877V23.7376H221.015L227.131 14.877H229.248V27.8754H226.894V19.0147H226.782L220.652 27.8754H218.562V14.877H220.903Z" fill="#333333"/>
<path d="M239.032 25.2004L241.93 18.123H244.716V27.8754H242.529V21.2299L239.84 27.8754H238.238L235.647 21.2995V27.8754H233.432V18.123H236.218L239.032 25.2004Z" fill="#333333"/>
<path d="M248.756 27.8754V18.123H256.99V27.8754H254.774V20.0038H250.957V27.8754H248.756Z" fill="#333333"/>
<path d="M260.389 27.8754L260.375 25.9806H260.709C261.044 25.9806 261.322 25.8831 261.517 25.6602C261.712 25.4512 261.866 25.089 261.977 24.5735C262.075 24.058 262.144 23.3475 262.186 22.4419L262.353 18.123H269.459V27.8754H267.243V20.0178H264.443L264.29 23.1525C264.22 24.7825 263.928 25.9667 263.426 26.7329C262.925 27.4992 262.144 27.8754 261.099 27.8754H260.389Z" fill="#333333"/>
<path d="M277.753 28.0569C276.806 28.0569 275.97 27.8479 275.273 27.4299C274.577 27.012 274.033 26.4268 273.657 25.6745C273.267 24.9222 273.086 24.0445 273.086 23.0414C273.086 22.0383 273.281 21.1466 273.657 20.3943C274.033 19.642 274.577 19.0569 275.273 18.625C275.97 18.207 276.792 17.998 277.753 17.998C278.7 17.998 279.536 18.207 280.233 18.625C280.93 19.0429 281.473 19.6281 281.849 20.3943C282.225 21.1466 282.42 22.0244 282.42 23.0414C282.42 24.0445 282.225 24.9222 281.849 25.6745C281.473 26.4268 280.93 27.012 280.233 27.4299C279.536 27.8479 278.714 28.0569 277.753 28.0569ZM277.767 26.2179C278.283 26.2179 278.714 26.0785 279.063 25.786C279.411 25.5073 279.662 25.1172 279.829 24.6296C279.996 24.142 280.08 23.6126 280.08 23.0135C280.08 22.4145 279.996 21.8711 279.829 21.3974C279.662 20.9098 279.397 20.5336 279.063 20.2411C278.714 19.9485 278.283 19.8092 277.767 19.8092C277.238 19.8092 276.806 19.9485 276.457 20.2411C276.109 20.5336 275.844 20.9098 275.677 21.3974C275.51 21.885 275.413 22.4284 275.413 23.0135C275.413 23.5987 275.496 24.142 275.677 24.6296C275.844 25.1172 276.109 25.4934 276.457 25.786C276.806 26.0785 277.252 26.2179 277.767 26.2179Z" fill="#333333"/>
<path d="M286.08 27.8754V18.123H290.176C291.332 18.123 292.238 18.3599 292.907 18.8196C293.575 19.2794 293.91 19.9203 293.91 20.7422C293.91 21.2856 293.715 21.7314 293.339 22.0797C292.962 22.4141 292.447 22.6509 291.792 22.7763C292.558 22.846 293.185 23.0967 293.659 23.5425C294.133 23.9884 294.383 24.5456 294.383 25.2283C294.383 26.0364 294.077 26.6772 293.45 27.1509C292.823 27.6246 291.945 27.8754 290.803 27.8754H286.08ZM288.24 22.1633H290.232C290.692 22.1633 291.068 22.0658 291.332 21.8568C291.597 21.6617 291.736 21.3831 291.736 21.0348C291.736 20.7004 291.597 20.4357 291.318 20.2407C291.04 20.0456 290.664 19.9621 290.19 19.9621H288.253V22.1633H288.24ZM288.24 26.0642H290.817C291.235 26.0642 291.569 25.9667 291.82 25.7577C292.057 25.5627 292.182 25.284 292.182 24.9357C292.182 24.5317 292.057 24.2113 291.82 23.9884C291.583 23.7515 291.249 23.6401 290.817 23.6401H288.24V26.0642Z" fill="#333333"/>
<path d="M300.219 24.7546L304.12 18.123H306.488V27.8754H304.273V21.2299L300.372 27.8754H298.004V18.123H300.219V24.7546Z" fill="#333333"/>
<path d="M309.475 20.0038V18.123H318.001V20.0038H314.852V27.8754H312.623V20.0038H309.475Z" fill="#333333"/>
<path d="M2.03149 28.8729L3.54883 25.4244L0 18.1387H1.74307L3.64915 21.9759L4.43917 23.6939L5.12888 22.001L6.78416 18.1387H8.53977L3.72439 28.8729H2.03149Z" fill="#46C0C1"/>
<path d="M17.0454 22.6527H18.6506C19.7165 22.6527 20.1177 21.7749 20.1177 21.0726C20.1177 19.9064 19.0895 19.5051 18.0862 19.5051C17.2711 19.5051 16.4435 19.9691 16.2429 20.7967L14.8509 20.4582C15.2397 18.8405 16.6567 18.0254 18.0862 18.0254C19.9296 18.0254 21.6351 18.9032 21.6602 21.0726C21.6602 21.9128 21.4595 22.7906 20.682 23.3047C21.6476 23.869 22.1367 24.7343 22.1241 25.8755C22.1116 27.4179 20.7573 28.9854 18.1866 28.9854C15.8917 28.9854 14.8008 27.6561 14.5625 26.189L16.0046 25.9256C16.1425 26.7783 16.8448 27.5433 18.1991 27.5433C19.9046 27.5433 20.6068 26.6153 20.6068 25.725C20.6068 24.96 20.0676 24.0697 18.6756 24.0697H17.0705V22.6527H17.0454Z" fill="#46C0C1"/>
<path d="M33.2563 27.3422V30.5776H31.7389V28.8596H25.3686V30.5776H23.8262V27.6181L24.6789 27.4551C25.2934 26.8156 25.5065 25.4362 25.5943 24.458L26.0081 18.1504H32.3785V27.3548H33.2563V27.3422ZM30.7859 27.3422V19.6301H27.4753L27.2496 23.4423C27.1744 25.1101 27.1117 26.4143 26.422 27.3422H30.7859Z" fill="#46C0C1"/>
<path d="M36.5984 19.6177C37.5766 18.627 38.956 18 40.4608 18C41.9781 18 43.345 18.627 44.3356 19.6177C45.3012 20.6083 45.9282 21.9752 45.9282 23.4925C45.9282 25.0099 45.3012 26.3767 44.3356 27.3674C43.345 28.3832 41.9781 28.9851 40.4608 28.9851C38.956 28.9851 37.5766 28.3706 36.5984 27.3674C35.6329 26.3767 35.0059 25.0099 35.0059 23.4925C35.0059 21.9752 35.6329 20.6209 36.5984 19.6177ZM43.2321 20.7212C42.5173 20.0064 41.5141 19.555 40.4608 19.555C39.4074 19.555 38.4293 19.9939 37.7145 20.7212C37.0123 21.4234 36.5608 22.4016 36.5608 23.4925C36.5608 24.5835 36.9997 25.5616 37.7145 26.2639C38.4168 26.9787 39.3949 27.4301 40.4608 27.4301C41.5141 27.4301 42.5173 26.9912 43.2321 26.2639C43.9218 25.5616 44.3607 24.5961 44.3607 23.4925C44.3607 22.389 43.9218 21.436 43.2321 20.7212Z" fill="#46C0C1"/>
<path d="M52.0071 18.1387C54.3144 18.1387 55.4807 19.9319 55.4807 21.7251C55.4807 23.5184 54.3144 25.2865 52.0071 25.2865H49.6495V28.8604H48.082V18.1387H52.0071ZM52.0071 23.7566C53.3112 23.7566 53.9508 22.7409 53.9508 21.7377C53.9508 20.7094 53.3112 19.7062 52.0071 19.7062H49.6495V23.7691H52.0071V23.7566Z" fill="#46C0C1"/>
<path d="M58.9871 19.6177C59.9652 18.627 61.3446 18 62.8494 18C64.3668 18 65.7337 18.627 66.7243 19.6177C67.6899 20.6083 68.3169 21.9752 68.3169 23.4925C68.3169 25.0099 67.6899 26.3767 66.7243 27.3674C65.7337 28.3832 64.3668 28.9851 62.8494 28.9851C61.3446 28.9851 59.9652 28.3706 58.9871 27.3674C58.0215 26.3767 57.3945 25.0099 57.3945 23.4925C57.3945 21.9752 58.0215 20.6209 58.9871 19.6177ZM65.6208 20.7212C64.906 20.0064 63.9028 19.555 62.8494 19.555C61.7961 19.555 60.818 19.9939 60.1032 20.7212C59.4009 21.4234 58.9495 22.4016 58.9495 23.4925C58.9495 24.5835 59.3884 25.5616 60.1032 26.2639C60.8054 26.9787 61.7835 27.4301 62.8494 27.4301C63.9028 27.4301 64.906 26.9912 65.6208 26.2639C66.3105 25.5616 66.7494 24.5961 66.7494 23.4925C66.7494 22.389 66.3105 21.436 65.6208 20.7212Z" fill="#46C0C1"/>
<path d="M74.8705 18.1387C77.4161 18.1387 78.7078 21.4492 76.6763 22.9666C77.9052 23.4933 78.3566 24.6219 78.3566 25.6251C78.3566 27.2302 77.3033 28.8604 75.2467 28.8604H70.4062V18.1387H74.8705ZM71.9487 22.4148H74.8454C76.5258 22.4148 76.5634 19.6184 74.8705 19.6184H71.9487V22.4148ZM71.9487 27.3556H75.2592C76.3001 27.3556 76.8268 26.4778 76.8268 25.6376C76.8268 24.7974 76.3001 23.9322 75.2592 23.9322H71.9487V27.3556Z" fill="#46C0C1"/>
<path d="M81.0938 28.8604V18.1387H82.6613V21.7126H85.0188C87.3261 21.7126 88.4924 23.4933 88.4924 25.274C88.4924 27.0672 87.3261 28.8604 85.0188 28.8604H81.0938ZM82.6613 23.2425V27.3305H85.0188C86.3229 27.3305 86.9625 26.2897 86.9625 25.2614C86.9625 24.2457 86.3229 23.2425 85.0188 23.2425H82.6613Z" fill="#46C0C1"/>
<path d="M95.6993 24.1571L91.7994 28.8596H89.793L93.1788 24.8342C91.3354 24.5082 90.4074 23.0786 90.4074 21.5613C90.4074 19.8558 91.5736 18.1504 93.8936 18.1504H97.7935V28.8721H96.2511V19.7179H93.8936C92.5894 19.7179 91.9498 20.6459 91.9498 21.5738C91.9498 22.5018 92.5894 23.4423 93.8936 23.4423H95.6993V24.1571Z" fill="#46C0C1"/>
<path d="M105.198 27.3054H110.164V28.8604H103.631V18.1387H110.152V19.6811H105.198V22.7032H110.051V24.2582H105.198V27.3054Z" fill="#46C0C1"/>
<path d="M113.454 19.6805C114.394 18.7149 115.711 18.0879 117.166 18.0879C119.611 18.0879 121.542 19.6178 122.157 22.038H120.627C120.062 20.4329 118.746 19.6178 117.166 19.6178C116.137 19.6178 115.209 20.0567 114.532 20.7715C113.855 21.4737 113.429 22.4267 113.429 23.5303C113.429 24.5962 113.855 25.5492 114.532 26.2515C115.209 26.9537 116.137 27.4051 117.166 27.4051C118.783 27.4051 120.163 26.4772 120.714 24.847H122.232C121.617 27.2797 119.661 28.935 117.166 28.935C115.711 28.935 114.394 28.3206 113.454 27.3424C112.538 26.3643 111.924 25.01 111.924 23.5303C111.924 22.0129 112.538 20.6586 113.454 19.6805Z" fill="#46C0C1"/>
<path d="M126.035 28.8604V19.6059H122.787V18.1387H130.813V19.6059H127.577V28.8604H126.035Z" fill="#46C0C1"/>
<path d="M132.816 28.8604V18.1387H134.384V21.7126H136.741C139.049 21.7126 140.215 23.4933 140.215 25.274C140.215 27.0672 139.049 28.8604 136.741 28.8604H132.816ZM134.371 23.2425V27.3305H136.729C138.033 27.3305 138.673 26.2897 138.673 25.2614C138.673 24.2457 138.033 23.2425 136.729 23.2425H134.371Z" fill="#46C0C1"/>
<path d="M154.095 28.8604V21.374L148.928 28.8604H147.699V18.1387H149.229V25.6878L154.446 18.1387H155.65V28.8604H154.095Z" fill="#46C0C1"/>
<path d="M161.101 28.8604H159.559V18.1387H160.813L164.349 23.3428L167.885 18.1387H169.114V28.8604H167.584V21.3113L164.775 25.4746H163.91L161.101 21.3113V28.8604Z" fill="#46C0C1"/>
<path d="M177.166 24.159L173.266 28.8615H171.26L174.646 24.8362C172.802 24.5101 171.874 23.0806 171.874 21.5632C171.874 19.8578 173.04 18.1523 175.36 18.1523H179.26V28.8741H177.718V19.7198H175.36C174.056 19.7198 173.417 20.6478 173.417 21.5758C173.417 22.5037 174.056 23.4442 175.36 23.4442H177.166V24.159Z" fill="#46C0C1"/>
<line x1="184" y1="22.5" x2="200" y2="22.5" stroke="#46C0C1"/>
</svg>
