<svg width="25" height="25" viewBox="0 0 25 25" fill="none" xmlns="http://www.w3.org/2000/svg">
<path d="M18.9262 17.6704L18.4644 18.2204L18.9727 18.7277L24.1627 23.9066C24.163 23.907 24.1633 23.9073 24.1636 23.9076C24.1981 23.9429 24.2174 23.9903 24.2174 24.0397C24.2174 24.0868 24.1998 24.1321 24.1684 24.1668C24.1317 24.1993 24.0843 24.2174 24.0351 24.2174C23.9845 24.2174 23.9358 24.1983 23.8987 24.1639L18.7243 18.9766L18.217 18.4679L17.6669 18.9301C15.6392 20.6335 13.0323 21.4883 10.3898 21.316C7.74743 21.1438 5.27348 19.9579 3.48398 18.0056C1.69447 16.0532 0.727588 13.4853 0.785029 10.8373C0.842471 8.18923 1.9198 5.66563 3.79228 3.79279C5.66475 1.91996 8.1878 0.842479 10.8352 0.78503C13.4826 0.72758 16.05 1.69459 18.0019 3.48443C19.9538 5.27428 21.1396 7.74876 21.3118 10.3918C21.484 13.0349 20.6294 15.6423 18.9262 17.6704ZM1.18433 11.0842L1.18434 11.0852C1.18778 13.7093 2.23154 16.225 4.08676 18.0806C5.942 19.9362 8.45727 20.9802 11.081 20.9837H11.0821C13.0397 20.9837 14.9533 20.403 16.581 19.3153C18.2087 18.2275 19.4773 16.6814 20.2264 14.8725C20.9755 13.0636 21.1715 11.0732 20.7896 9.15292C20.4077 7.23264 19.4651 5.46873 18.0809 4.08425C16.6966 2.69978 14.933 1.75692 13.013 1.37493C11.093 0.992949 9.10291 1.189 7.29432 1.93828C5.48573 2.68757 3.93992 3.95643 2.85236 5.58439C1.76481 7.21234 1.18434 9.12629 1.18433 11.0842Z" stroke="#46C0C1" stroke-width="1.56522"/>
</svg>
