<svg width="20" height="18" viewBox="0 0 20 18" fill="none" xmlns="http://www.w3.org/2000/svg">
<path d="M10.7731 17.5031C10.5592 17.6905 10.2847 17.7937 9.99996 17.7937C9.71538 17.7937 9.44072 17.6905 9.22695 17.5034C8.41716 16.7953 7.63697 16.1303 6.94849 15.5437L6.9482 15.5435C4.9337 13.8267 3.194 12.344 1.98342 10.8832C0.630108 9.25037 -8.2016e-05 7.70206 -8.2016e-05 6.01061C-8.2016e-05 4.36724 0.563274 2.85112 1.58638 1.74134C2.62169 0.618441 4.04245 0 5.58695 0C6.74143 0 7.79872 0.364992 8.72935 1.08475C9.19917 1.44807 9.62474 1.89271 9.99996 2.41136C10.375 1.89271 10.8007 1.44807 11.2704 1.08475C12.201 0.364992 13.2583 0 14.4128 0C15.9575 0 17.3781 0.618441 18.4134 1.74134C19.4365 2.85112 20 4.36724 20 6.01061C20 7.70206 19.3697 9.25037 18.0163 10.8834C16.8057 12.3441 15.0657 13.827 13.0508 15.544L13.0473 15.5471C12.36 16.1327 11.5811 16.7966 10.7731 17.5031Z" fill="#46C0C1"/>
</svg>
