<svg width="14" height="18" viewBox="0 0 14 18" fill="none" xmlns="http://www.w3.org/2000/svg">
    <path d="M6.57692 18C6.39677 18 6.23007 17.9189 6.11953 17.7783C5.4936 16.9745 0 9.82424 0 6.47019C0 2.90287 2.95015 0 6.57692 0C10.2037 0 13.1538 2.90287 13.1538 6.47019C13.1538 9.82424 7.66087 16.9745 7.03432 17.7783C6.9244 17.9189 6.75768 18 6.57692 18ZM6.57692 1.13363C3.58586 1.13363 1.15234 3.52706 1.15234 6.47019C1.15234 8.95914 5.13025 14.5354 6.34976 16.1845C6.40289 16.2566 6.48716 16.2986 6.57754 16.2986C6.66792 16.2986 6.75219 16.2566 6.80532 16.1845C8.02483 14.5348 12.0027 8.95914 12.0027 6.47019C12.0021 3.52706 9.5686 1.13363 6.57692 1.13363Z" fill="#46C0C1"/>
    <path d="M6.57693 9.69226C4.85905 9.69226 3.46155 8.29428 3.46155 6.57657C3.46155 4.85886 4.85905 3.46149 6.57693 3.46149C8.2948 3.46149 9.69232 4.85946 9.69232 6.57657C9.69292 8.29428 8.29541 9.69226 6.57693 9.69226ZM6.57693 4.6014C5.48769 4.6014 4.60155 5.48744 4.60155 6.57657C4.60155 7.6663 5.48769 8.55236 6.57693 8.55236C7.66616 8.55236 8.5529 7.6663 8.5529 6.57657C8.5529 5.48744 7.66677 4.6014 6.57693 4.6014Z" fill="#46C0C1"/>
</svg>