<svg width="17" height="17" viewBox="0 0 17 17" fill="none" xmlns="http://www.w3.org/2000/svg">
<path d="M16.8088 15.8821L13.2774 12.3581C14.5237 10.874 15.1491 8.96592 15.0231 7.03183C14.897 5.09773 14.0294 3.28696 12.601 1.97718C11.1726 0.667396 9.29376 -0.0402704 7.35639 0.00177147C5.41901 0.0438134 3.57266 0.832317 2.20241 2.20283C0.832158 3.57335 0.043805 5.42005 0.00177114 7.35779C-0.0402627 9.29554 0.667268 11.1747 1.9768 12.6034C3.28633 14.032 5.09675 14.8999 7.03048 15.0259C8.96421 15.152 10.8719 14.5265 12.3558 13.2799L15.879 16.812C16.0037 16.9326 16.1704 17 16.3439 17C16.5174 17 16.684 16.9326 16.8088 16.812C16.9313 16.6882 17 16.5211 17 16.347C17 16.1729 16.9313 16.0058 16.8088 15.8821ZM1.33752 7.53724C1.33752 6.31111 1.70104 5.1125 2.38212 4.09301C3.0632 3.07351 4.03124 2.27891 5.16382 1.80968C6.29641 1.34046 7.54268 1.21769 8.74502 1.4569C9.94737 1.69611 11.0518 2.28655 11.9186 3.15356C12.7855 4.02057 13.3758 5.12521 13.615 6.32779C13.8541 7.53037 13.7314 8.77687 13.2623 9.90968C12.7931 11.0425 11.9987 12.0107 10.9794 12.6919C9.96008 13.3731 8.7617 13.7367 7.5358 13.7367C5.89258 13.7346 4.31727 13.0807 3.15534 11.9185C1.9934 10.7564 1.33968 9.18078 1.33752 7.53724Z" fill="#46C0C1"/>
</svg>
