<svg width="165" height="46" viewBox="0 0 165 46" fill="none" xmlns="http://www.w3.org/2000/svg">
<path d="M91.1232 23.7107H89.5204L79.5703 3.87109H82.8668L90.3067 18.7205L97.6558 3.87109H101.073L91.1232 23.7107Z" fill="#318D38"/>
<path d="M104.944 23.7107V3.87109H123.544V6.77445H108.029V11.7343H118.221V14.5772H108.029V20.8376H124.391V23.7107H104.944Z" fill="#318D38"/>
<path d="M128.806 23.7107V3.87109H131.921V20.8376H146.649V23.7107H128.806Z" fill="#318D38"/>
<path d="M15.1821 15.9083V13.0351H23.3478V19.0536C22.1986 20.7472 20.7166 22.0476 18.8718 22.9247C17.027 23.8017 14.8797 24.2554 12.4602 24.2554C8.80079 24.2554 5.80671 23.2574 3.47797 21.2916C1.14924 19.3257 0 16.8156 0 13.761C0 10.7367 1.17949 8.22647 3.50822 6.23041C5.83695 4.23436 8.83103 3.23633 12.4602 3.23633C14.7587 3.23633 16.785 3.62949 18.5694 4.41582C20.3537 5.20214 21.8054 6.38163 22.9849 7.89379L20.5957 9.61766C19.7488 8.5289 18.6298 7.65184 17.1782 7.01674C15.7567 6.38163 14.1841 6.07919 12.4602 6.07919C9.73833 6.07919 7.53057 6.80503 5.80671 8.22647C4.08284 9.67814 3.20579 11.4927 3.20579 13.7005C3.20579 15.9083 4.08284 17.7228 5.80671 19.1745C7.53057 20.6262 9.76857 21.3218 12.4905 21.3218C14.1841 21.3218 15.7567 21.0194 17.2084 20.3843C18.6601 19.7491 19.6581 18.9628 20.2327 18.0253V15.878H15.1821V15.9083Z" fill="#318D38"/>
<path d="M32.1785 14.9713V23.6511H29.0635V3.8418H42.7334C44.7597 3.8418 46.3626 4.32569 47.4816 5.29347C48.6309 6.26126 49.2055 7.6222 49.2055 9.34607C49.2055 10.7675 48.7518 11.9772 47.8445 13.0055C46.9372 14.0338 45.7578 14.6689 44.3061 14.9108L49.8104 23.6209H46.4534L40.8281 14.9411H32.1785V14.9713ZM32.1785 12.068H42.7334C43.7919 12.068 44.6085 11.826 45.1831 11.3724C45.7578 10.9187 46.0299 10.2534 46.0299 9.37631C46.0299 8.49926 45.7578 7.83391 45.1831 7.38026C44.6085 6.92661 43.7919 6.68466 42.7334 6.68466H32.1785V12.068Z" fill="#318D38"/>
<path d="M155.722 5.95732C154.361 7.25778 153.454 8.80018 152.849 10.2216C152.244 8.80018 151.337 7.22753 149.976 5.95732C146.498 2.63056 141.447 2.32812 141.447 2.32812C141.447 2.32812 141.992 7.37875 145.439 10.7055C147.224 12.3991 149.431 13.3064 151.155 13.7903C151.246 13.8206 151.307 13.8811 151.307 13.9718V23.6799H154.361V14.0625C154.361 13.9415 154.452 13.8508 154.543 13.8206C156.266 13.3367 158.474 12.4294 160.228 10.7358C163.706 7.40899 164.22 2.35837 164.22 2.35837C164.22 2.35837 159.17 2.6608 155.722 5.95732ZM144.23 4.80807C143.232 4.38467 142.869 3.65883 142.869 3.65883C142.869 3.65883 143.625 3.44713 144.623 3.90077C146.105 4.53588 146.316 5.17099 146.316 5.17099C146.316 5.17099 145.712 5.44318 144.23 4.80807ZM161.499 4.80807C160.017 5.47342 159.412 5.17099 159.412 5.17099C159.412 5.17099 159.623 4.53588 161.105 3.90077C162.134 3.44713 162.859 3.65883 162.859 3.65883C162.859 3.65883 162.497 4.35442 161.499 4.80807Z" fill="#318D38"/>
<path d="M74.0055 6.2906C71.7373 4.32479 65.235 0 65.235 0C65.235 0 58.7932 4.32479 56.5249 6.2906C54.2567 8.25641 53.1074 10.7666 53.1074 13.8212C53.1074 16.8455 54.2567 19.3557 56.5249 21.3517C58.7932 23.3478 61.6965 24.3458 65.235 24.3458C68.8037 24.3458 71.707 23.3478 74.0055 21.3517C76.2738 19.3557 77.423 16.8455 77.423 13.8212C77.423 10.7666 76.2738 8.25641 74.0055 6.2906ZM59.6702 8.49836C57.402 10.7666 56.0713 10.6759 56.0713 10.6759C56.0713 10.6759 55.9805 9.37541 58.2488 7.10717C59.8214 5.53452 61.3033 5.3833 61.3033 5.3833C61.3033 5.3833 61.1824 6.98619 59.6702 8.49836Z" fill="#318D38"/>
<path d="M37.9854 45.6064V33.7812H45.274C46.4837 33.7812 47.391 34.0232 48.0261 34.5373C48.631 35.0212 48.9637 35.7773 48.9637 36.7148C48.9637 37.1987 48.8729 37.6221 48.6612 37.9851C48.4798 38.348 48.1773 38.6504 47.8144 38.8924C48.4798 39.2553 48.9637 39.7089 49.2963 40.2533C49.629 40.7977 49.8105 41.3723 49.8105 42.0377C49.8105 43.1264 49.4475 44.0035 48.6915 44.6386C47.9656 45.2737 46.9374 45.5761 45.6369 45.5761H37.9854V45.6064ZM45.2437 35.4749H39.8604V38.2573H45.274C45.8788 38.2573 46.3022 38.1363 46.6047 37.8943C46.9071 37.6524 47.0583 37.3197 47.0583 36.8358C47.0583 36.3822 46.9071 36.0193 46.6047 35.8075C46.3022 35.5958 45.8486 35.4749 45.2437 35.4749ZM45.8486 40.0114H39.8604V43.9127H45.8788C46.5139 43.9127 47.0281 43.7313 47.391 43.3986C47.7539 43.0659 47.9354 42.582 47.9354 41.9469C47.9354 41.3421 47.7539 40.8582 47.391 40.5255C46.9978 40.1928 46.514 40.0114 45.8486 40.0114Z" fill="#318D38"/>
<path d="M59.6998 45.9992C57.5828 45.9992 55.8589 45.3943 54.498 44.2148C53.137 43.0051 52.4717 41.5232 52.4717 39.7086C52.4717 37.894 53.137 36.3818 54.498 35.2023C55.8589 34.0228 57.5828 33.418 59.7301 33.418C61.8773 33.418 63.6314 33.9926 64.9621 35.1721C66.3231 36.3516 66.9884 37.8637 66.9884 39.6783C66.9884 41.4929 66.3231 43.0051 64.9319 44.1846C63.571 45.3943 61.8168 45.9992 59.6998 45.9992ZM59.6998 44.2451C61.2725 44.2451 62.5729 43.8217 63.571 42.9446C64.569 42.0978 65.0831 41.009 65.0831 39.6783C65.0831 38.3779 64.569 37.2589 63.571 36.4121C62.5729 35.5652 61.2725 35.1116 59.6998 35.1116C58.1272 35.1116 56.8267 35.535 55.8589 36.4121C54.8609 37.2589 54.377 38.3476 54.377 39.6783C54.377 41.009 54.8609 42.0978 55.8589 42.9446C56.8267 43.8217 58.0969 44.2451 59.6998 44.2451Z" fill="#318D38"/>
<path d="M72.7958 45.6073V35.3851H67.8057V33.752H79.661V35.3851H74.6406V45.6073H72.7958Z" fill="#318D38"/>
<path d="M78.209 45.6073L84.2274 33.752H85.4069L91.4858 45.6073H89.4897L87.9473 42.583H81.687L80.1446 45.6073H78.209ZM82.5035 41.0103H87.161L84.8625 36.4738L82.5035 41.0103Z" fill="#318D38"/>
<path d="M93.3008 45.6073V33.752H94.2686L101.829 42.0689V33.752H103.644V45.6073H102.676L95.1456 37.2904V45.6073H93.3008Z" fill="#318D38"/>
<path d="M109.602 33.7207H107.727V45.6063H109.602V33.7207Z" fill="#318D38"/>
<path d="M126.266 42.7026C125.6 43.7612 124.693 44.5777 123.604 45.1524C122.516 45.727 121.245 45.9992 119.854 45.9992C117.767 45.9992 116.044 45.3943 114.713 44.2148C113.352 43.0353 112.687 41.5232 112.687 39.7086C112.687 37.894 113.352 36.3818 114.713 35.2023C116.074 34.0228 117.767 33.418 119.854 33.418C121.155 33.418 122.334 33.6599 123.393 34.1438C124.451 34.6277 125.298 35.3233 125.963 36.2003L124.481 37.2286C123.998 36.5633 123.332 36.0189 122.546 35.656C121.76 35.2931 120.852 35.1116 119.884 35.1116C118.372 35.1116 117.102 35.535 116.104 36.4121C115.106 37.2891 114.622 38.3779 114.622 39.6783C114.622 40.9788 115.136 42.0675 116.134 42.9446C117.132 43.8217 118.403 44.2451 119.884 44.2451C120.943 44.2451 121.88 44.0334 122.667 43.6099C123.483 43.1865 124.179 42.5514 124.784 41.6744L126.266 42.7026Z" fill="#318D38"/>
</svg>
