<svg width="25" height="25" viewBox="0 0 25 25" fill="none" xmlns="http://www.w3.org/2000/svg">
    <path d="M1.28553 6.29425e-05C0.956224 6.29425e-05 0.626914 0.125319 0.376713 0.377403C-0.125571 0.879686 -0.125571 1.69402 0.376713 2.1963L22.8037 24.6233C23.306 25.1256 24.1203 25.1256 24.6226 24.6233C25.1249 24.121 25.1249 23.3067 24.6226 22.8041L2.19592 0.377403C1.94384 0.126888 1.61453 6.29425e-05 1.28553 6.29425e-05Z" fill="white"/>
    <path d="M23.7141 6.29425e-05C23.3848 6.29425e-05 23.0558 0.125319 22.8053 0.377403L0.376713 22.8041C-0.125571 23.3067 -0.125571 24.121 0.376713 24.6233C0.878997 25.1256 1.69333 25.1256 2.19592 24.6233L24.6226 2.1963C25.1249 1.69402 25.1249 0.879686 24.6226 0.377403C24.3705 0.126888 24.0415 6.29425e-05 23.7141 6.29425e-05Z" fill="white"/>
</svg>