<svg width="482" height="540" viewBox="0 0 482 540" fill="none" xmlns="http://www.w3.org/2000/svg">
<path d="M149.979 309.753C148.346 316.387 161.106 303.098 162.343 301.931C162.941 301.271 168.803 296.545 164.66 297.269C159.924 301.02 154.053 305.25 149.979 309.753Z" fill="#E0E0E0"/>
<path d="M102.151 292.262C100.987 293.238 99.3128 295.521 98.7668 296.943C98.5527 297.749 96.4204 300.002 97.5771 300.706C98.6604 301.565 100.059 298.791 100.736 298.32C102.245 297.415 106.54 290.388 102.151 292.262Z" fill="#E0E0E0"/>
<path d="M130.671 296.438C129.667 297.831 117 311.996 123.672 309.889C124.574 309.185 136.04 293.935 130.671 296.438Z" fill="#E0E0E0"/>
<path d="M226.899 231.045C226.567 229.562 224.881 229.096 223.635 229.768C222.086 230.56 221.21 232.675 219.263 232.558C218.576 230.433 216.003 229.411 213.913 229.831C211.899 230.173 209.782 231.166 207.711 230.517C204.65 229.923 201.35 228.8 198.185 228.781C195.711 229.017 192.985 230.098 190.634 228.69C185.25 226.192 179.472 231.337 173.893 230.637C165.386 226.249 149.718 238.98 141.433 242.529C161.675 229.714 178.961 211.686 198.971 198.685C198.755 199.414 198.365 201.024 198.684 201.782C199.589 203.331 201.564 202.875 202.806 201.974C206.239 204.164 212.136 199.246 204.61 200.567C205.248 199.983 206.336 199.047 206.896 198.387C207.512 198.72 208.707 199.423 209.174 199.911C208.882 200.642 209.58 201.278 210.268 201.38C210.475 202.292 211.707 202.919 212.145 201.842C212.527 201.911 213.255 202.089 213.639 202.235C212.962 202.743 212.524 203.82 212.539 204.66L213.131 205.718C214.981 206.83 217.486 206.173 219.504 206.06C218.755 206.799 218.06 208.415 218.042 209.484C218.017 210.248 217.021 212.061 218.134 212.46C219.746 213.042 223.528 205.07 220.446 205.432C221.096 203.435 216.999 204.579 215.884 204.064C216.829 203.627 217.344 202.587 217.25 201.596C216.368 199.246 213.43 199.146 211.296 199.223C210.079 197.261 208.02 195.198 205.794 194.399C205.244 193.493 203.683 193.636 202.908 192.963C202.983 192.885 203.058 192.807 203.094 192.692C206.583 193.736 208.845 192.32 204.428 190.606C204.417 189.996 203.99 189.584 203.379 189.519C203.999 187.942 202.134 186.067 201.256 188.068C199.582 188.29 198.868 190.937 198.971 192.424C199.34 193.83 200.692 194.798 202.033 195.155C201.693 195.314 201.09 195.707 200.867 196.016C200.217 193.814 197.001 197.308 196.055 197.669C195.212 197.455 195.533 196.266 195.408 195.657C195.647 196.226 196.19 196.75 196.8 196.739L196.798 196.625C198.745 196.742 199.381 194.02 198.67 192.62C198.652 191.666 197.538 191.228 196.784 191.662C196.067 192.057 195.587 192.944 195.372 193.711C195.364 193.253 195.694 192.522 195.496 192.105C195.643 191.836 196.128 191.216 196.046 190.912C196.843 190.745 197.904 190.382 198.742 190.29C200.148 190.074 199.542 188.176 198.252 188.543C198.364 188.426 198.626 188.116 198.7 188C200.695 190.751 200.519 185.333 200.957 184.218L201.033 184.217C202.056 181.793 201.147 177.916 198.89 181.698C198.631 182.123 198.261 182.74 197.808 183.016C195.432 184.433 192.882 186.809 193.243 189.856L193.753 190.648L194.215 190.869C186.448 204.029 172.492 212.376 160.257 220.96C155.732 223.753 151.727 227.872 147.71 231.305C144.174 233.927 138.021 237.361 134.133 239.493C111.969 251.426 87.1279 258.751 64.5264 269.7C51.2305 276.585 38.7754 285.668 27.5553 295.57C42.6162 276.742 59.8724 257.034 63.8465 232.414C65.8374 220.315 65.8337 207.564 67.977 195.461C72.4328 172.169 81.622 149.173 94.605 129.314C96.4908 130.272 99.0848 130.339 100.823 131.567C99.7462 133.152 101.651 135.141 102.333 132.838C102.853 134.164 105.504 135.261 104.737 132.947C105.235 133.052 106.028 132.618 106.365 132.306C106.66 131.766 106.911 130.845 106.938 130.234C107.479 130.682 108.215 131.28 108.942 131.419C108.72 131.805 108.845 132.375 108.966 132.755L109.625 133.354C109.97 133.462 110.544 133.528 110.883 133.331L110.959 133.329C111.252 136.836 113.344 134.469 112.801 131.883L113.097 131.382C113.968 131.022 114.954 130.737 115.869 130.758C117.737 134.924 119.642 134.813 123.702 133.746C124.575 133.501 126.32 133.011 127.153 132.729C127.911 132.486 131.469 133.146 130.906 131.515L130.944 131.514C136.654 137.289 121.788 97.7813 119.734 100.147C120.864 99.3634 122.544 99.5236 123.84 99.4618L126.543 103.421C125.603 102.102 120.693 98.3739 122.065 102.51C124.82 105.132 127.361 108.598 129.666 111.61C133.137 115.861 136.431 120.878 137.939 126.195C137.232 127.162 127.581 135.279 132.632 134.156C135.028 131.745 137.95 128.867 140.503 126.683C141.639 130.441 143.578 128.039 142.005 125.434C142.606 124.926 143.358 124.378 144.076 123.983C143.552 124.566 143.189 125.565 143.774 126.241C142.67 128.476 141.961 131.39 140.857 133.586C126.924 147.354 105.411 149.006 90.0667 160.624C86.3412 163.326 83.8625 167.494 81.0671 171.019C79.0492 173.27 76.3812 175.419 74.4797 177.782C70.5382 183.275 70.0668 190.88 68.429 197.247C68.0763 198.819 67.5442 201.005 66.9996 202.504C68.3105 207.481 70.4874 199.309 70.6501 197.78C72.0365 192.257 72.8732 185.866 75.4862 180.703C77.0814 178.269 79.5983 176.2 81.6966 174.176C84.2821 171.686 86.2417 168.329 88.5951 165.652C93.836 160.326 101.25 157.061 108.101 154.302C105.304 161.95 101.637 169.957 96.1068 176.128C94.2386 178.223 91.4272 180.871 89.2491 182.705C88.8403 183.285 85.5534 184.948 86.3733 186.002C82.5744 188.858 77.1213 193.004 73.6293 195.969C68.1734 199.963 72.7613 200.642 76.0515 197.07C82.8105 195.534 90.0025 192.655 96.4787 190.246C96.1065 190.749 95.5148 191.752 95.2203 192.331L95.2965 192.329C94.2002 192.845 92.8301 192.985 91.6935 193.387C90.2951 194.062 88.634 194.97 87.1163 195.38C82.7551 196.681 77.5409 197.196 73.7786 199.975C71.7115 201.616 70.3097 204.199 69.0555 206.513C68.5794 207.59 64.4404 212.705 68.1119 211.225C71.2032 207.199 72.7738 201.329 78.1204 199.705C82.7816 198.131 88.0742 197.729 92.3756 195.246C94.1573 194.679 96.6377 194.786 97.3236 192.674C98.5843 192.804 100.202 191.591 100.561 190.401C101.388 189.737 102.367 189.07 103.391 188.784C103.705 191.336 106.146 191.368 107.446 189.512C108.003 188.662 108.364 187.548 109.075 186.81C109.945 186.412 111.095 186.773 112.011 186.832C116.892 186.858 121.16 182.543 124.38 179.315C136.527 167.947 140.264 151.234 143.18 135.529C144.779 133.285 146.179 130.588 147.277 128.086C147.529 127.242 147.856 126.358 147.687 125.483C147.838 125.404 147.91 125.135 147.946 125.02C149.62 124.837 151.745 124.302 152.322 122.497C152.91 123.364 152.82 124.664 153.18 125.612C155.322 128.054 154.86 123.672 154.381 122.497C154.174 121.585 153.281 120.685 152.621 120.048C154.268 120.476 155.446 122.325 157.243 122.598C158.85 122.912 160.583 121.735 160.666 120.054C160.795 118.754 160.085 117.469 159.568 116.295C159.831 116.061 160.359 115.746 160.662 115.626C161.372 116.911 163.534 116.337 162.479 114.906C164.338 114.414 164.915 112.609 164.541 110.898C165.652 109.083 162.739 108.258 162.356 110.25C162.215 110.864 162.268 111.703 162.28 112.351C161.75 112.59 161.067 112.755 160.499 112.957C158.128 110.48 155.445 107.628 152.44 105.965C151.616 104.644 150.33 103.14 149.166 102.054C143.672 97.6495 136.227 95.0366 129.631 92.9427C129.745 92.9406 130.031 91.9047 130.067 91.7895L130.063 91.5605C130.868 91.7749 134.354 92.6657 135.157 92.8038C140.54 97.363 149.324 100.257 155.675 103.539L160.565 106.122C161.367 106.222 165.825 110.225 166.522 108.724C167.605 107.444 162.071 105.064 161.601 104.385C156.164 101.087 149.572 97.122 143.694 94.7096C148.056 95.5081 153.678 96.4363 157.716 98.3478C159.72 99.5329 161.472 101.524 163.141 103.135C163.811 104.307 166.883 105.51 165.733 103.088C163.95 101.479 162.232 99.2962 160.449 97.6872C153.611 92.7727 143.981 91.6121 135.835 90.2718C144.244 91.3783 153.428 91.1345 161.524 93.9264C164.134 94.8332 166.905 96.2715 169.11 97.9874C171.293 100.62 173.315 98.5597 170.344 96.6669C172.384 95.599 168.963 94.1343 168.412 93.1518C168.483 92.8833 168.439 92.5787 168.245 92.3532C169.506 90.4214 168.847 87.7229 168.124 85.7128C167.412 84.3133 163.757 76.2485 163.163 81.3367C156.234 79.7833 147.876 79.4013 140.837 80.2168C143.041 79.7948 148.917 77.9316 151.163 77.7379C154.513 77.4096 158.29 77.5317 161.685 77.6225C162.399 79.1365 165.508 80.2632 164.124 77.578C165.674 76.8625 164.088 75.5935 162.987 75.8426C161.931 74.373 160.505 71.4595 159.11 70.2633C161.345 69.4591 159.142 67.8195 157.71 68.7618C157.161 67.932 155.832 68.2234 155.697 69.1803C152.924 69.7653 148.404 70.6876 145.668 71.2338C147.442 70.247 149.978 69.2082 151.912 68.6385C153.009 68.1604 159.985 68.0332 156.404 66.1134C146.827 65.7917 139.409 72.9894 130.523 74.9457C131.313 74.3968 130.987 73.2194 130.367 72.658C134.921 71.5061 140.412 69.4208 144.726 67.6243C146.533 66.3697 153.456 65.4799 153.721 63.2609C152.205 61.6852 146.131 65.2317 143.96 65.3477C139.369 66.6148 133.72 68.3594 129.37 70.2711C128.297 69.9853 126.853 70.2788 125.745 70.1082C125.782 70.0693 125.856 69.9535 125.894 69.9146L125.892 69.8383L125.93 69.8376C126.263 69.2589 126.173 68.497 125.744 67.9704L125.241 67.5596C127.446 67.2522 131.176 64.7791 132.944 63.4489C133.586 63.1318 135.183 62.8736 134.82 61.8113C134.892 61.5428 134.847 61.1618 134.577 61.014C142.298 55.7959 123.996 62.0468 122.908 63.0211C120.068 66.2032 125.8 64.7626 127.121 64.0513C126.217 64.6786 122.89 66.2281 125.047 67.4104C124.468 67.0392 123.206 66.795 122.482 66.8464C121.398 65.9499 119.56 65.5253 118.316 66.3115C118.316 66.2734 118.314 66.1971 118.351 66.12C118.596 64.9321 116.711 63.9739 116.238 65.2423C115.593 65.4068 114.684 65.767 114.119 66.159L113.53 67.315C113.592 70.6734 117.822 70.5581 120.214 70.0181C120.236 71.2012 121.4 72.3252 122.548 72.5715L122.555 72.915L122.593 72.9143C122.777 74.6289 124.841 74.9348 126.247 74.6419C126.007 76.1352 127.49 78.0169 129.016 78.0273C128.789 78.1459 128.678 78.3388 128.567 78.5317C127.733 78.8141 127.567 80.1152 128.412 80.4815C126.58 80.3622 124.645 82.9934 127.393 83.1342L130.432 82.5062C130.247 82.8149 130.328 83.1188 130.562 83.3818C128.802 83.0322 125.863 84.9564 128.853 85.8181C135.482 85.5445 142.685 85.3368 149.288 85.7508C155.208 86.2919 161.2 88.7022 165.807 92.5121C165.736 92.7807 165.977 93.4634 166.134 93.6896C156.659 88.4796 145.208 87.8104 134.602 87.4693C134.432 86.518 133.469 85.9629 132.554 85.9796C130.038 86.0255 127.093 85.5066 124.667 86.3143C123.877 86.8632 123.938 88.1219 124.747 88.6034C124.747 88.6034 125.4 88.8587 125.63 88.9309L125.302 89.7767C125.357 90.6538 125.943 91.4447 126.712 91.8125C126.636 91.8139 126.486 91.9311 126.448 91.97C125.493 91.8729 122.368 89.8302 121.707 91.2548C117.686 90.2973 121.579 94.6547 122.775 95.4346L123.022 96.4227C123.255 96.6856 123.721 97.1353 124.103 97.2046C122.238 97.3913 119.987 97.2797 118.368 98.4163C117.276 99.1616 116.155 100.442 114.706 100.43C113.026 100.308 111.367 99.2311 109.652 99.2624C107.68 99.8328 108.847 101.148 111.024 101.299C112.137 101.737 113.482 102.285 114.703 102.339C116.458 102.421 118.001 101.286 119.355 100.269C117.577 101.065 120.639 105.857 120.699 107.04C119.877 105.871 118.621 103.909 117.912 102.662C115.893 100.714 115.381 103.968 116.662 105.243C117.578 113.663 123.227 122.34 126.234 130.417C126.158 130.418 125.892 130.499 125.816 130.463L122.224 130.032C117.654 101.102 106.752 88.7024 117.427 128.363C116.073 127.319 114.097 127.66 112.581 128.184C112.399 126.546 114.493 95.013 110.13 102.499C109.525 111.099 110.069 120.061 110.493 128.642C109.468 128.928 108.979 129.281 108.163 128.418C106.688 127.032 104.304 127.992 104.38 130.052C104.182 129.674 103.752 129.071 103.328 128.849C103.4 128.619 103.544 128.12 103.616 127.89C104.75 127.373 112.169 95.1317 106.622 102.448C106.545 102.411 106.467 102.336 106.39 102.3C106.529 101.572 106.705 100.767 106.273 100.088L106.272 100.011L106.31 100.01C106.116 99.8232 105.847 99.6754 105.652 99.488C104.425 99.0905 103.184 100.029 102.045 100.317C101.552 100.441 101.017 100.374 100.929 99.765C101.607 99.2564 102.9 99.0801 102.881 98.0497C102.881 98.0497 102.88 98.0115 102.88 97.9734C102.867 97.2864 102.098 96.9569 101.49 97.0443C101.51 96.0514 101.098 94.3792 101.041 93.3495C99.9676 90.9258 97.2869 90.2875 98.0364 93.7478L97.4986 93.5286C96.5075 93.5467 95.4507 94.1386 94.6198 94.5737C95.2328 90.554 89.5093 92.4145 87.3116 91.0802C87.981 90.1518 88.1486 88.8889 87.2192 88.1042L85.9523 87.631C85.7243 87.6734 84.4707 87.9253 84.321 88.0807C84.6896 87.3868 84.2557 86.593 83.6763 86.1837C82.6728 85.5148 81.3859 86.0346 80.363 86.3968C78.2069 85.2527 78.6828 82.0754 76.9771 80.5413C78.8434 80.4309 81.255 78.8599 80.1114 76.7811C80.1114 76.7811 79.9152 76.4793 79.7988 76.3669C78.9824 75.5037 77.7301 75.832 76.8243 76.3448C77.8659 74.9133 79.3232 73.2833 79.4415 71.4106C80.407 72.0801 80.9121 70.5057 81.0901 69.8153C81.8476 69.5343 82.4823 68.7974 82.5058 67.9952C84.9716 67.3013 87.8261 67.0202 90.2087 65.946C93.8496 62.7874 85.7489 63.9277 84.3476 64.4495C84.112 64.072 83.7253 63.7737 83.3399 63.5517C83.3392 63.5135 84.1673 62.9258 84.2048 62.8869C85.1195 62.8702 88.5514 62.884 89.505 62.9048L91.4428 64.6255C93.0618 65.5886 93.2869 63.2939 91.9791 62.6688C92.774 62.3489 96.2848 62.5139 96.492 61.3267C97.0007 62.0428 98.1352 61.5258 98.0055 60.6883L98.0097 60.9173L98.2272 60.3025C99.2085 59.7502 100.548 60.0311 101.491 59.4795C100.859 60.369 101.112 61.7006 101.812 62.4513L102.888 62.8898C103.841 62.8724 104.745 62.2833 105.459 61.6977C104.874 63.0445 107.133 63.5759 107.144 62.0869C107.781 61.5026 108.727 61.0655 108.977 60.1828L108.847 59.3072L108.035 58.673L107.692 58.6793L108.139 58.1366L106.615 56.1029C110.474 50.2299 113.044 42.7388 112.953 35.6398C113.033 35.8292 113.189 36.0172 113.382 36.1664C113.502 38.5693 116.832 39.2721 118.054 37.2647C118.016 37.2654 117.937 37.1523 117.937 37.1141C118.247 37.4139 118.336 38.0994 118.496 38.5164C119.184 40.6799 120.99 39.349 120.233 37.5685C120.183 34.859 117.923 34.2894 115.769 35.3594C115.256 34.3762 113.251 33.1911 112.823 34.7641C112.665 34.4998 112.355 34.2 112.053 34.3582C110.114 32.5993 106.242 33.548 103.88 33.6674C104.435 30.6414 101.742 31.4158 101.979 33.9693C101.526 34.2066 101.424 34.8574 101.774 35.2328C100.824 41.7018 100.803 48.9174 101.494 55.4328C100.988 54.8694 100.628 53.9598 99.8609 53.7065C99.8228 53.7072 99.7459 53.6704 99.6689 53.6337C99.1428 51.9635 96.9689 35.2059 94.0489 40.2601C93.7654 39.3491 93.1581 37.4132 92.8746 36.5022C94.6898 37.767 96.96 36.8094 98.6967 35.8615C101.16 35.0531 100.472 32.8515 98.0132 33.927C96.1539 34.4191 93.776 33.6607 92.1135 34.4927C88.4368 31.5057 93.793 47.1364 93.6282 48.5519C91.8247 45.8362 88.5038 37.269 85.0317 37.1414C83.18 38.0533 87.9741 43.7685 88.1079 44.835C90.0229 47.396 93.4025 52.9081 94.5996 55.8258C93.3799 55.848 92.0902 56.2151 90.9544 56.6557C87.2996 50.6906 83.8568 43.8054 79.5618 38.2719C83.4446 35.8342 82.1138 33.9497 78.31 36.5387C77.9163 35.8587 77.2177 35.1843 76.4263 35.695C75.1634 33.3511 73.3187 34.6445 71.8565 36.0074C70.2459 35.5023 65.3663 35.5531 68.4595 37.9017C70.9523 38.6961 73.5291 39.909 76.1896 39.4405C78.3321 44.0207 80.336 49.3669 83.0079 53.7084C86.3326 56.2055 84.5566 50.817 83.7325 49.534C85.3363 51.7572 87.6845 55.0738 89.2516 57.3739C88.8733 57.5335 87.7388 58.0505 87.3611 58.2483C85.0033 56.497 69.8102 38.7933 68.3129 42.4091C66.2523 40.2325 62.3587 37.8984 60.0505 40.9564C56.1578 40.7602 50.6801 41.4708 48.7289 45.2858L48.8322 46.7728C49.1469 47.3015 49.7679 47.901 50.3078 48.2347C49.5268 49.3179 47.9606 49.1556 46.8496 48.8704L43.6804 48.6228C41.9673 48.7685 42.8427 50.7759 44.2863 50.4823C41.6599 52.8208 43.9782 54.4964 45.9506 56.0256L45.9527 56.1401C44.8515 56.3893 43.5105 56.032 42.3698 56.2055C41.2263 56.2263 41.3352 58.0186 42.4399 57.9603C43.9625 57.818 45.7672 58.5104 47.1615 57.6069C49.1863 55.7376 46.5215 53.8774 45.2026 52.6416C50.1795 55.834 56.0095 59.8125 60.9489 63.0437C55.5404 61.2717 48.759 59.4866 43.0381 59.4C42.3423 58.8783 40.4925 57.8049 40.5224 59.4459C39.0595 60.7705 41.4706 61.261 42.4609 61.2048C42.8865 61.5406 44.9684 62.8006 45.4695 63.0969C51.7888 66.7229 58.9659 69.3025 66.1894 70.2397C64.926 69.9573 27.1795 67.9351 36.0505 71.4001C36.3687 72.1196 36.9204 73.1021 37.2766 73.8209C33.7706 73.923 35.3426 76.4903 38.0329 75.5632C38.0759 75.8297 38.2762 76.3605 38.3192 76.6269L38.245 76.7428C36.8652 76.348 34.4529 77.8809 36.7538 78.6024C35.6769 80.1873 40.1382 84.3816 41.3724 83.0611C42.1464 81.5963 39.3867 80.8068 38.9445 79.555C39.3208 79.281 39.9244 78.9264 40.2231 78.5773C49.2968 78.5264 58.9895 78.9605 67.9733 80.2474C66.265 80.6603 65.1791 81.749 67.4045 82.5101C67.2562 82.7419 67.1481 83.0874 67.381 83.3122C66.5738 85.0448 70.1186 84.9802 70.246 83.6036C70.4705 83.3704 70.6181 83.1005 70.573 82.7196C71.1039 82.5572 71.589 81.9757 71.2362 81.4477C71.4212 81.1389 71.3006 80.7975 71.067 80.5345C73.342 77.7444 66.5926 77.7148 65.0554 77.0556C67.0042 77.2873 70.1007 77.7272 72.0509 78.0352C72.2124 78.5285 72.6047 79.1322 72.9921 79.4687L72.6595 80.0474L72.6811 81.2304C73.0422 82.2164 74.1179 82.6549 75.0735 82.7902C75.1928 83.0553 75.3917 83.5097 75.4735 83.8136C74.9738 83.5937 72.3751 85.359 71.9586 85.5193C71.6944 83.5771 66.5849 85.6554 65.553 85.5216C57.9859 86.6521 49.6829 89.2467 42.2407 90.9476C41.8574 90.8401 41.3619 90.8491 41.1402 91.2349C39.2323 91.1552 39.3932 93.71 41.2872 93.0265C41.9284 94.7327 44.0852 95.915 45.4027 97.0744C48.8541 98.1568 45.0712 93.5301 44.4793 92.4338C52.0789 90.9973 60.7132 89.8473 68.1464 87.6503C63.8519 90.5154 57.6515 91.3156 52.7977 92.7785C49.9191 95.9232 57.7674 93.4895 58.8721 93.4312C55.0731 96.2873 48.913 99.301 45.5784 102.53C43.361 106.388 50.8662 101.861 51.8904 101.575C51.3826 102.997 50.7659 104.726 50.7937 106.253C50.2296 106.683 50.4757 107.633 51.2013 107.696C51.8363 109.059 53.6679 109.14 54.9576 108.773L54.8461 108.928L54.8676 110.111L55.5697 110.976C56.1845 111.232 57.0244 111.293 57.6717 111.243C57.9843 111.657 57.9199 112.307 58.0058 112.84C57.8812 114.37 60.1329 114.481 59.7987 112.884C60.2887 112.57 61.1251 112.44 61.3434 111.863C64.308 109.251 87.3688 96.3092 85.1807 93.4096C85.4724 92.679 84.8493 91.965 84.0884 92.0552C84.1965 91.7097 84.15 91.2524 83.8035 91.0678C84.1064 90.9478 84.6358 90.7091 84.8998 90.5516C84.0186 94.4997 89.842 93.9354 92.3654 94.3094C92.2601 94.8076 92.1562 95.3821 92.3184 95.9136L91.6413 96.4222C91.6413 96.4222 91.6364 96.1551 91.4445 96.0822C91.5141 91.5381 76.6109 104.37 74.335 105.022C69.814 108.006 63.5957 112.013 59.0351 114.921C56.9404 119.235 65.3311 113.088 66.09 112.884C66.8351 114.015 70.4711 110.59 71.1926 110.424C74.6575 108.07 79.3006 105.504 82.8432 103.225C80.178 105.526 76.2017 109.111 73.5371 111.45C73.1311 112.183 68.4139 114.865 69.5789 116.027C70.4806 117.385 74.0286 113.312 74.8249 113.068C76.5172 111.777 80.1276 109.039 81.8199 107.749C78.1423 110.984 72.87 114.593 69.114 117.715C67.9919 116.819 66.3792 116.2 65.0728 115.651C64.341 115.244 63.1461 114.541 62.5544 115.544C61.8691 117.694 65.5401 118.276 66.6699 119.592C66.1792 119.868 66.0033 120.673 66.5424 120.969L66.2847 121.47L66.4241 122.841C67.3723 124.657 69.8242 125.299 71.2427 123.632C72.841 125.549 73.567 121.451 73.2793 120.311C71.9839 118.274 70.6674 121.352 69.535 121.983C70.3624 121.357 70.9112 120.087 70.3221 119.144C71.2632 118.478 73.1834 117.145 74.0871 116.517C78.2395 114.227 83.1618 110.244 87.4258 107.799C89.8242 105.503 96.407 102.672 97.5344 99.6742C97.6868 99.6714 98.7513 99.4993 98.9412 99.4577L98.8338 99.8414C98.8761 100.07 99.0418 100.792 99.1977 100.98C93.3184 104.752 87.5389 109.82 82.5585 114.798C81.6722 116.379 73.0917 122.567 75.4799 123.898C75.4806 123.936 75.4813 123.974 75.482 124.012C74.3933 124.949 76.0186 126.255 76.8758 125.17C78.8808 126.394 80.9343 128.189 83.3052 128.565C84.2804 129.769 85.9949 129.7 87.4434 129.673C70.4001 152.699 63.4851 181.227 59.5335 209.168C58.5499 215.866 59.2545 223.145 58.0422 229.848C53.5709 250.201 41.9274 268.241 30.5339 285.361C31.3681 283.017 33.2237 278.134 34.1335 275.751C35.4297 279.927 38.4727 269.067 39.4872 268.247C42.5818 262.312 46.4665 255.789 48.8687 249.523C50.7152 244.145 51.0218 237.955 52.2938 232.434C54.4471 225.065 56.6324 217.352 57.2555 209.705C57.5442 204.623 53.3926 200.69 52.1254 196.018C51.8745 194.801 52.3061 193.38 52.0545 192.125C51.7085 189.879 49.4762 188.736 48.3395 187.039C47.9582 184.946 48.8305 182.602 47.6882 180.599C49.3743 178.965 48.8196 175.73 46.7373 178.631C45.0828 175.722 42.5946 173.095 40.0774 170.965C40.394 169.509 38.0987 169.092 37.8583 170.547C37.144 173.195 38.4617 176.454 37.7107 179.178L37.7093 179.101C36.0079 179.896 33.7224 180.014 32.6504 181.866C29.7822 185.583 27.4235 190.055 25.8264 194.474C24.5931 197.932 27.4147 202.118 25.3753 205.286C21.3969 208.756 21.7702 214.59 21.0956 219.412C20.91 221.783 19.8547 224.551 19.8591 226.879C20.0458 230.846 22.3635 234.583 23.2717 238.384C24.2881 243.939 24.0161 249.938 24.9944 255.494C26.3187 263.296 29.1385 271.566 28.5223 279.595C28.1456 284.03 26.7433 288.675 25.8309 293.005C23.7244 296.67 20.333 300.969 18.1087 304.446C13.0235 307.86 7.8372 312.001 4.03771 316.919C-1.22606 323.084 -5.95604 331.34 -12.4618 336.307C-14.7791 338.869 -32.7443 348.97 -29.27 351.311C-29.9131 351.59 -31.6131 352.461 -32.2548 352.816C-34.0807 355.14 -30.3599 354.271 -29.3842 353.413C-23.9323 351.29 -17.8534 348.011 -13.0745 344.526C-7.01224 340.331 -0.128798 335.166 5.97438 331.123C7.33056 330.22 10.1982 328.564 11.6715 327.812C12.386 327.265 16.07 326.472 15.2792 324.921C22.2437 320.022 30.3383 320.638 38.0844 323.055C49.3865 326.017 59.7457 333.731 70.2315 337.93C74.6768 341.246 80.2054 345.421 84.0527 349.398C85.1006 350.409 87.2311 352.241 88.4195 350.502C90.8654 352.9 96.1665 355.056 97.2223 350.227C100.469 352.611 104.519 355.171 107.258 350.654C108.486 351.09 109.425 352.409 110.729 352.805C112.457 353.461 113.964 352.479 115.477 351.841C119.451 352.264 128.857 353.735 126.981 347.012C128.275 346.912 129.763 346.961 131.013 346.518C132.337 345.921 133.911 344.442 135.039 343.543C136.539 344.28 138.487 344.435 139.721 343.115C140.467 342.223 141.21 341.14 142.465 340.965C145.491 339.65 154.68 339.635 153.026 334.664C156.21 337.775 160.261 334.112 161.73 331.031C164.289 331.29 166.956 329.104 168.021 326.832C168.45 325.259 167.538 323.367 168.273 321.865C171.152 322.881 171.616 319.093 172.846 317.505C175.623 319.287 177.1 316.626 178.512 314.615C179.678 313.716 181.435 313.913 182.6 312.976C183.915 311.883 184.762 310.226 185.267 308.651C185.626 307.461 188.011 300.241 184.898 303.046C183.998 305.964 183.841 309.937 181.015 311.745C179.762 312.073 178.318 312.328 177.265 313.149C176.251 313.969 175.863 315.694 174.613 316.175C173.069 315.096 171.284 315.511 170.554 317.28C166.044 316.675 161.287 315.12 156.705 314.746C159.586 313.853 163.936 311.942 166.698 310.746C166.74 313.074 175.157 310.439 176.44 309.728C177.576 309.25 179.844 308.178 180.978 307.622C181.578 307.115 184.73 306.409 184.097 305.122C183.615 303.795 180.979 305.599 180.18 305.69C178.135 306.453 175.478 307.15 173.39 307.608C177.774 305.467 183.059 302.583 187.246 300.102C189.534 300.099 191.681 298.647 193.724 297.77C195.588 295.445 192.057 296.273 190.927 297.057C189.791 297.46 188.507 298.132 187.285 298.04C185.544 296.697 183.652 295.396 181.47 294.901C180.051 294.469 178.306 294.959 176.923 294.373C175.368 290.622 171.409 293.099 168.675 293.722C168.81 290.627 165.537 290.992 163.85 292.55C163.105 293.518 160.744 293.714 161.269 295.307C162.409 297.157 164.652 294.749 165.939 294.192C166.321 298.46 171.501 296.037 174.044 295.418C175.305 297.647 178.047 297.445 180.255 297.29C181.975 297.488 183.741 298.143 185.133 299.224C175.545 304.553 165.141 308.98 154.555 311.845C149.063 313.892 142.769 315.802 136.907 316.366L136.096 315.809C137.226 317.124 139.873 313.793 140.78 313.395C143.83 311.277 147.349 307.701 149.661 304.834C150.966 303.245 153.115 299.77 153.958 297.922C153.926 294.067 150.821 299.468 150.38 300.354C147.364 304.341 142.47 307.79 138.989 311.328C138.471 312.215 134.737 314.421 135.981 315.734C135.007 314.607 133.122 315.787 134.136 317.028C133.295 316.929 131.728 316.728 130.888 316.629C130.037 315.995 127.795 314.28 127.604 316.383C125.735 316.341 122.686 316.435 120.819 316.507C124.903 314.6 151.145 283.772 133.411 300.282C131.848 302.372 116.484 315.059 120.172 316.557C119.067 316.615 116.515 316.738 115.41 316.758C113.99 316.25 107.786 312.698 109.19 316.528C102.842 315.499 96.2175 313.94 90.012 312.373C96.4473 309.813 103.916 307.462 107.846 301.321C108.473 300.164 114.788 293.139 110.505 294.515C108.231 297.343 105.925 300.554 103.186 302.971C98.4027 306.227 91.5294 307.765 87.3293 311.621C83.4226 310.661 78.9228 310.629 74.9532 310.396C77.0391 309.785 79.421 308.672 81.1118 307.305C81.8535 308.246 83.4321 306.996 84.2283 306.752C85.8971 306.264 87.9345 305.081 89.4453 304.29C90.4972 303.431 93.8091 303.142 93.588 301.466C93.1845 300.252 91.2996 301.432 90.5386 301.522C88.9835 301.97 86.7818 302.507 85.2669 303.069C87.6168 300.201 90.0719 296.835 92.4993 294.042C93.3211 291.011 90.0148 293.705 89.4237 294.747C85.3893 299.325 81.1698 304.212 75.6938 307.099C74.3722 307.81 72.7062 308.451 71.2266 308.86C70.5821 309.063 69.1725 309.127 69.0749 310.045C67.0498 309.814 62.2465 309.864 60.1882 309.901C63.288 308.432 66.4903 306.312 68.8859 303.864C69.7071 302.894 82.6373 290.595 77.0247 292.262C70.5246 299.634 62.4728 305.546 54.0196 310.357C50.4041 310.729 45.7976 311.118 42.2286 311.947C46.0075 310.083 49.1488 306.705 51.9532 303.676C52.8125 302.706 54.5685 300.727 55.4278 299.757C55.7583 299.064 58.6591 297.14 57.4976 296.169C55.6534 295.401 53.5545 299.486 52.0451 300.353C50.1353 302.258 47.7743 304.516 45.5921 306.121C42.9179 307.926 39.902 309.813 37.0316 311.316C35.7177 312.447 32.3662 312.661 32.173 314.611C26.0946 315.829 19.6814 317.511 14.3246 320.663C17.0423 317.063 20.4358 312.878 23.6567 309.689C24.8206 312.875 28.0928 310.41 28.5847 308.111C30.5433 308.877 32.4413 306.322 33.9499 305.417C37.674 302.638 41.378 298.753 45.2594 296.239C47.2996 295.21 49.7272 294.516 51.7688 293.563C53.5265 295.86 55.9407 292.341 57.3697 291.247L57.3316 291.247C62.1826 289.632 67.5777 288.579 72.6389 288.029C74.158 287.695 75.1558 285.959 76.7172 285.855C79.4097 287.142 83.1454 291.273 85.7488 287.675C85.7883 287.751 85.8285 287.864 85.868 287.94C85.5923 289.548 88.2377 290.34 87.7815 288.325C88.5057 288.312 89.6852 288.176 90.3734 288.278C92.6412 291.367 95.1531 286.931 97.1552 285.902C97.8996 286.995 98.3862 288.59 99.2435 289.605C100.987 291.138 103.643 290.403 103.481 287.81C103.763 288.645 104.829 290.648 105.757 289.257C107.249 289.497 108.924 289.39 110.413 289.478C112.284 289.634 113.708 292.433 115.388 292.594C118.698 294.251 122.846 293.794 126.34 293.043C123.555 297.179 120.976 302.112 117.341 305.576C115.275 307.293 111.605 308.849 109.303 310.151C110.646 308.523 113.178 305.194 114.521 303.566C116.403 298.034 102.577 311.381 104.583 312.68C97.1542 319.306 117.081 310.124 118.162 308.806C122.733 304.332 125.476 297.945 128.695 292.542C130.25 292.094 133.407 291.693 135.051 291.93C137.764 294.362 138.989 292.507 141.365 291.089C141.487 291.507 141.728 292.152 141.963 292.529C142.864 293.849 144.782 292.363 143.353 291.397C142.512 287.06 139.745 290.05 137.473 290.931C133.561 287.567 127.086 290.052 122.52 290.555C120.809 290.815 118.64 291.084 116.953 290.58C115.96 290.484 115.136 289.201 114.112 289.525C112.125 287.156 109.154 287.363 106.365 287.032C106.268 285.927 105.216 284.686 104.042 285.127C103.308 284.606 102.244 284.778 101.566 285.249C101.381 285.519 100.861 286.292 100.906 286.673C99.0807 280.675 95.2242 282.463 92.1696 286.413C91.042 285.212 88.8805 285.862 87.4341 286.003L87.0446 285.552C85.5054 284.778 84.4673 286.4 83.4154 287.259C79.1296 286.421 77.5866 281.258 72.936 285.504C70.4772 286.579 66.7349 286.266 64.0799 287.039C60.8921 287.861 56.6237 287.977 54.3085 290.653C54.2863 289.432 52.7463 288.62 51.7304 289.364C51.1275 289.757 50.8746 290.525 50.5808 291.141C48.4616 292.02 45.957 292.676 43.878 293.669C39.3126 296.31 35.118 300.471 30.9053 303.64C30.2739 302.468 28.4852 302.653 27.5455 303.396C26.418 304.294 26.1042 305.903 25.6698 307.171C24.6467 305.434 22.7999 306.613 21.6738 307.588C17.5236 312.092 13.4248 317.32 10.1638 322.495L8.27535 323.484C16.1713 309.024 31.1906 300.466 43.8231 290.654C65.878 272.729 94.7767 266.285 120.107 254.447C118.331 257.418 123.22 255.802 124.59 255.625C126.073 255.407 128.09 255.217 129.577 255.19C134.075 255.108 139.123 255.97 143.454 257.189C149.165 258.803 155.121 261.329 160.795 263.058C161.447 263.237 162.321 263.106 162.886 262.714C163.333 262.133 163.776 261.324 164.573 261.118C165.68 261.174 166.873 261.802 168.018 261.857C169.58 261.79 171.432 260.879 171.744 259.193L172.47 259.256C173.132 260.046 174.173 260.676 175.239 260.58C176.074 260.336 176.898 259.557 177.188 258.712C178.763 259.332 180.387 260.601 182.211 260.262C183.504 260.048 184.781 258.994 186.118 259.122C188.107 259.468 190.484 260.226 192.414 259.389L193.233 258.305C193.301 257.846 193.326 257.158 193.09 256.743C195.339 256.702 197.942 257.265 200.142 256.652C205.816 254.144 210.496 249.439 214.491 244.785C216.815 242.605 220.072 241.362 222.318 239.069C223.917 236.864 226.272 234.301 226.258 231.438L226.899 231.045ZM196.942 194.064C196.942 194.064 196.829 194.143 196.754 194.182C196.828 194.104 196.942 194.064 197.018 194.025C197.018 194.025 196.718 194.336 196.681 194.374L196.942 194.064ZM138.674 145.613C136.505 156.303 132.741 167.328 125.032 175.333C121.145 179.642 116.297 185.609 109.83 184.314C107.544 184.432 106.824 186.736 105.824 188.358C105.779 187.977 105.423 187.296 105.188 186.957C104.183 186.212 102.817 186.542 101.798 187.133C101.359 186.034 97.1632 188.058 96.439 188.071C92.4944 189.212 87.0688 190.685 83.1249 191.864C85.0438 190.455 89.4484 187.358 91.4477 186.177C91.3571 189.576 108.952 182.154 111.382 181.576C113.655 180.771 118.278 179.198 120.551 178.393C121.005 178.232 121.264 177.769 121.141 177.313C120.98 176.858 120.518 176.599 120.063 176.722C117.711 177.375 113.044 178.644 110.691 179.26C105.947 180.453 99.9896 182.051 95.447 183.851C116.686 173.462 126.784 164.765 138.916 144.234L138.636 145.575L138.674 145.613ZM139.964 138.947L139.546 141.13C138.428 140.464 136.383 145.426 135.819 145.856L132.476 150.727C126.301 159.2 119.1 167.844 109.657 172.75C113.577 168.174 118.326 163.01 121.55 157.912C122.21 156.488 130.396 145.382 124.802 148.042C118.37 157.092 111.988 166.714 104.938 175.318C101.803 176.94 98.0253 178.88 94.9685 180.615C100.787 175.623 106.01 169.267 108.392 161.893C108.546 159.905 111.661 155.077 109.426 153.781C119.914 149.773 131.089 145.751 139.998 138.755L140.002 138.946L139.964 138.947ZM116.6 66.2665C116.6 66.2665 116.481 66.0014 116.44 65.8495C116.481 66.0014 116.484 66.1923 116.639 66.3421L116.638 66.2658L116.6 66.2665ZM117.947 66.9673L117.871 66.9686L118.021 66.8514L118.023 66.9659L117.947 66.9673ZM128.622 75.2858C128.622 75.2858 128.465 75.0214 128.426 74.9839C128.693 74.9791 129.076 75.0866 129.343 75.0818L128.622 75.2858ZM135.957 78.1297C138.836 77.1228 143.074 75.3277 145.874 74.1695C148.106 73.1744 153.288 73.0036 154.819 71.2196L156.564 70.7297C157.161 72.0931 158.88 74.3523 159.965 75.3251C152.169 74.322 143.388 75.8182 135.919 78.1304L135.957 78.1297ZM165.484 89.4258C160.378 85.3959 153.739 83.0738 147.32 82.3509C152.337 81.4578 159.068 82.5567 163.949 82.5822C164.681 85.1266 166.33 87.7306 166.645 90.359L165.522 89.4251L165.484 89.4258ZM139.475 124.678C139.348 123.993 138.784 122.362 138.544 121.717C138.896 122.245 139.497 123.838 139.737 124.444L139.475 124.678ZM139.687 102.876C143.184 104.339 148.06 106.197 151.446 107.892C152.74 109.853 154.241 112.727 155.347 114.807C158.623 116.732 155.664 111.289 155.073 110.23C156.157 111.127 157.747 112.625 158.756 113.561C156.001 115.1 157.218 117.063 157.909 119.379C155.862 117.966 152.952 115.194 150.515 117.491C146.442 111.571 141.828 105.28 135.765 101.077L139.61 102.801L139.687 102.876ZM126.916 94.6338L127.031 94.6317C128.796 95.2866 132.407 96.7478 134.174 97.4791C132.607 97.2405 129.015 94.7482 127.505 95.5392C127.231 95.1625 126.772 95.0945 126.387 94.8725L126.879 94.6726L126.916 94.6338ZM135.113 100.86C134.654 100.753 134.046 100.879 133.98 101.453C133.398 100.891 132.042 99.7322 131.423 99.209C131.615 99.2819 134.921 100.787 135.114 100.898L135.113 100.86ZM126.422 98.8803L126.648 98.7234C133.639 105.735 142.765 112.745 149.602 119.683C149.573 120.18 149.627 121.019 149.636 121.515C148.993 121.832 148.158 122.038 147.474 122.165C145.535 120.368 143.001 121.522 141.352 123.079C138.294 114.316 132.458 105.833 126.422 98.8803L126.498 98.8789L126.422 98.8803ZM125.27 121.463C125.27 121.463 123.86 117.328 123.819 117.176C124.72 118.495 126.232 121.942 126.832 123.458C127.038 124.332 128.078 131.147 129.535 127.455L130.22 129.428C130.22 129.428 128.358 129.805 128.206 129.808C127.596 127.72 125.995 123.588 125.308 121.462L125.27 121.463ZM119.01 123.181C119.341 124.587 120.252 128.579 120.544 129.91L119.059 130.051L118.9 129.672C120.631 128.419 118.372 123.727 118.567 121.853L119.048 123.18L119.01 123.181ZM77.7898 77.0143L77.7919 77.1288L77.7537 77.1295L77.7517 77.015L77.7898 77.0143ZM116.458 35.4613L116.38 35.3864L116.496 35.4607L116.458 35.4613ZM104.042 36.2604L104.105 35.5339C106.247 35.9147 109.344 36.3546 111.507 35.8188C111.266 39.2972 110.081 43.3273 108.498 46.4484C108.083 48.7846 103.879 54.5113 105.895 56.307C105.78 56.3091 105.062 56.6657 104.949 56.706C105.091 54.0311 105.595 48.2574 104.369 45.8365C104.205 43.0908 103.978 39.0102 104.08 36.2597L104.042 36.2604ZM90.0536 59.5353C91.1881 59.0184 92.739 58.3411 93.9913 58.0129C94.8998 57.6527 96.3227 58.3139 96.6046 57.049C96.6046 57.049 97.1301 58.681 97.1689 58.7184L96.8321 59.0682L96.6222 60.1027C95.4634 59.284 90.8957 59.7109 89.563 59.8115L90.0543 59.5735L90.0536 59.5353ZM49.1867 51.5764C49.0391 51.8464 49.1209 52.1503 49.2776 52.3765L47.5436 51.3773C48.1901 51.2892 48.9899 51.2364 49.6365 51.1483C49.4473 51.2281 49.2969 51.3454 49.186 51.5383L49.1867 51.5764ZM58.3551 65.0761C55.2163 64.408 51.6492 63.2515 48.7273 61.9304C51.7122 62.525 56.05 64.1256 58.8915 65.2191L58.3551 65.0761ZM57.5496 43.9033C58.3112 43.8513 59.3771 43.7555 60.1415 43.8561C61.0002 44.9475 62.1646 46.0716 63.6428 45.5865C64.5888 45.1875 64.8312 43.8469 64.0938 43.135C63.7812 42.7208 63.0549 42.6195 62.7804 42.2046C64.842 40.2582 68.5128 47.1011 69.8349 44.3283C74.5035 49.4351 80.4327 54.6716 85.6619 59.1573C84.3023 59.8692 82.725 61.196 81.0832 61.0732C82 59.0714 77.9616 57.1599 76.9815 55.6889C71.3912 50.2172 63.9679 46.6877 56.7131 44.0331L57.5122 43.9422L57.5496 43.9033ZM52.0103 45.4168C52.5765 45.1011 53.7491 44.5835 54.3957 44.4953C55.8782 46.3389 59.7786 46.9549 61.7885 48.4453C64.8684 50.0689 68.0364 52.3398 70.783 54.5039C65.2941 52.5044 58.6935 50.1815 53.2421 48.143C53.4145 47.1473 52.596 46.1697 51.8614 45.6104L52.0096 45.3787L52.0103 45.4168ZM51.6317 51.8373C52.629 52.1627 54.5508 53.0057 55.4761 53.5614C55.0145 53.3408 52.1695 52.0565 51.6317 51.8373ZM57.1403 75.8256C52.5268 75.8334 46.2404 76.1007 41.6325 76.4138C41.7032 76.1071 41.692 75.4965 41.6109 75.2308C46.6395 74.9864 52.1713 75.1527 57.1791 75.8631L57.1403 75.8256ZM75.7643 80.9452L75.7616 80.7925L75.7643 80.9452ZM75.2115 73.6255C74.734 74.6268 73.3986 74.5748 72.7278 75.4269C62.4202 72.6371 51.4302 72.1504 40.8512 73.2977C40.4977 72.7315 39.8345 71.9037 39.4054 71.3771C42.1013 70.7553 76.1229 75.5177 71.3067 70.6809C72.3698 70.4324 72.3427 68.9441 71.308 68.6575C71.6462 68.3841 71.5221 67.8519 71.3259 67.5501C73.953 65.2498 56.2601 56.8302 54.0957 55.2281C57.8687 57.2208 62.9148 60.0302 66.7252 61.984C68.148 62.6452 73.683 69.2632 73.7971 65.0618C75.1153 66.2594 78.6164 65.8901 76.5192 63.7905C74.4005 62.6076 70.1639 60.2797 68.0459 59.1349C65.5717 57.2713 62.8915 54.5715 60.0445 53.1727C66.2417 56.381 73.9102 58.7226 80.1754 61.4715C79.6896 62.0148 80.1637 62.9224 80.8872 62.871L80.7113 63.6759C79.3828 64.0056 77.915 65.0631 77.904 66.5521C74.6558 66.1532 73.7697 69.8343 76.729 71.1164C76.5551 72.0358 75.7707 72.9282 75.2122 73.6637L75.2115 73.6255ZM76.4224 85.667C76.4224 85.667 76.5339 85.5122 76.6088 85.4345C76.6871 85.5476 77.3206 86.834 77.3976 86.8708L73.7481 87.4718L76.4224 85.667ZM72.5695 100.206C69.1136 103.056 64.8719 106.721 61.3779 109.572C61.3702 109.152 61.6571 108.154 61.7637 107.733L61.2903 106.863C62.0309 103.567 59.516 103.651 58.4974 106.341L57.6449 105.593L56.5361 105.423C62.3213 102.76 69.7898 100.409 75.6561 98.0117L72.5689 100.168L72.5695 100.206ZM79.3197 91.9131C75.9842 93.0047 71.7161 95.2203 68.5809 96.8427C66.7355 98.098 62.2565 99.2104 61.0314 101.027C59.3675 101.783 55.5879 103.608 54.0404 104.476C54.0196 103.331 55.0132 101.366 53.5925 100.819C61.3014 97.0136 71.5892 94.5355 78.0097 89.0738C78.4276 88.9898 78.8052 88.7921 78.9889 88.407C79.3375 88.706 80.104 88.9211 80.5621 88.9509C80.5393 89.7912 81.2026 90.619 81.933 90.9492L79.3197 91.9131ZM82.7243 88.3389L82.8019 88.4138L82.7243 88.3389ZM91.3209 101.849L90.9813 102.046C90.4732 101.368 89.5633 101.652 89.0394 102.196C90.5418 100.947 93.7267 97.873 95.2686 96.6997C94.97 97.0487 94.9472 97.889 95.031 98.3074C95.1482 98.4579 95.5426 99.1761 95.7713 99.1719L91.359 101.848L91.3209 101.849ZM99.4351 97.2727C98.8648 97.3594 97.7248 97.5711 97.1523 97.5434C97.828 96.9584 98.9278 96.6329 99.3318 95.7857C99.3325 95.8239 100.157 97.1068 100.196 97.1824L99.4358 97.3108L99.4351 97.2727ZM96.591 106.487C97.7503 105.244 100.312 103.556 101.124 102.09C101.432 102.237 102.004 102.227 102.346 102.182C101.531 103.495 97.3428 105.9 96.1793 106.914L96.6298 106.524L96.591 106.487ZM98.3853 117.067C100.528 113.287 103.266 108.694 105.177 104.803C103.368 112.204 104.246 120.625 101.9 127.921C100.171 127.189 98.2315 127.453 96.5024 126.721C99.7073 122.655 96.3129 122.602 94.6637 126.259L93.8203 126.007C94.3102 125.692 94.6415 125.037 94.2131 124.549C95.2089 122.698 97.3507 118.88 98.4234 117.066L98.3853 117.067ZM86.797 123.501C85.4823 122.494 83.9438 123.858 83.3174 125.053C82.0894 124.617 80.7046 123.955 79.5119 123.366C84.4716 119.344 90.6836 114.993 95.6439 111.009C93.0835 114.873 89.7476 120.126 87.1491 123.991C87.0694 123.801 86.9141 123.651 86.7589 123.501L86.797 123.501ZM87.0606 127.504C89.5165 124.176 93.0159 119.532 95.5487 116.24C93.8933 119.554 91.195 124.222 89.577 127.497C88.8528 127.51 87.7862 127.567 87.0599 127.466L87.0606 127.504ZM62.2946 220.494C62.0471 209.007 64.7621 196.894 66.6914 185.597C70.6 165.751 78.1352 146.144 90.1136 129.739C91.0867 130.829 91.8481 128.677 92.2563 128.059C92.4102 128.132 92.9112 128.428 93.0651 128.502C74.58 156.096 64.2341 188.849 62.283 221.945L62.2565 220.494L62.2946 220.494ZM48.0596 263.701C52.6101 256.059 56.7968 247.279 59.4248 238.756C56.9313 248.383 51.92 257.942 46.5809 266.247L48.0596 263.701ZM141 243.911C143.008 245.249 148.751 240.296 150.987 239.568C156.802 236.446 163.062 232.629 169.678 231.592C172.085 231.853 174.133 233.381 176.753 232.761C180.822 232.19 184.862 229.979 189.024 230.323C191.107 231.659 193.746 232.069 196.137 231.491C200.918 230.22 205.627 233.341 210.391 233.216C212.485 233.025 215.085 231.336 216.908 233.021C217.111 233.743 217.32 234.731 218.163 234.983C205.154 245.032 187.994 242.825 172.649 241.883C160.323 241.306 147.13 243.379 135.215 246.574C136.723 245.63 139.854 243.741 141.361 242.797C140.985 243.033 140.803 243.533 141.001 243.949L141 243.911ZM206.063 198.67L205.986 198.671L206.063 198.67ZM202.807 197.889C202.807 197.889 202.361 198.508 202.289 198.739L201.912 198.975L201.91 198.86L202.807 197.851L202.807 197.889ZM197.4 187.833C197.4 187.833 197.404 188.024 197.367 188.101C197.367 188.101 197.363 187.872 197.361 187.758L197.362 187.834L197.4 187.833ZM197.173 187.914L197.285 187.797L197.138 188.067L197.135 187.914L197.173 187.914ZM198.727 187.427C198.727 187.427 198.461 187.432 198.384 187.434L198.423 187.433C198.423 187.433 198.689 187.428 198.804 187.426L198.727 187.427ZM29.6885 287.094C29.6885 287.094 29.8791 287.09 29.9554 287.089L29.5105 287.784L29.6885 287.094ZM35.3586 273.934L36.084 271.898C36.084 271.898 36.1603 271.896 36.1984 271.896L35.3205 273.935L35.3586 273.934ZM46.2374 251.594C43.4914 257.829 39.6851 264.464 36.7853 270.625L36.6647 270.284C37.5349 267.825 38.541 264.447 39.2199 261.953C41.9031 258.545 45.4509 252.372 47.4022 248.557C47.4036 248.633 46.2742 251.517 46.2381 251.632L46.2374 251.594ZM49.5199 237.142C49.3551 238.558 48.9485 241.352 48.7456 242.768C46.5461 245.519 42.8423 251.503 40.7212 254.367C40.8597 253.601 40.9802 251.843 41.0037 251.041C45.4908 248.287 47.4507 238.669 49.9958 233.965L49.5199 237.142ZM54.5508 211.931C53.5879 217.675 52.7083 223.799 50.9796 229.366C49.5491 228.285 47.054 235.736 46.377 236.245C44.9738 238.752 42.0261 244.379 41.1981 247.067L41.2805 245.309C41.6317 243.661 41.1719 239.356 41.2536 237.56C42.0636 235.98 43.3115 233.323 44.0446 231.706C47.3901 224.888 49.982 216.481 54.6373 210.402C54.6401 210.555 54.5092 211.741 54.512 211.893L54.5508 211.931ZM52.0427 201.936C52.9126 203.638 54.1325 205.716 54.5477 207.579C48.6457 214.291 44.1195 223.268 40.9918 231.571C40.8864 229.97 40.636 226.691 40.5686 225.089C42.5213 221.35 43.4946 216.179 45.3301 212.29C45.6405 210.49 49.6563 206.981 48.5238 205.513C45.5847 205.337 40.9206 215.119 40.0185 217.922C40.0067 217.273 39.621 212.852 39.6106 212.28C43.3076 208.013 46.9856 200.616 49.7179 195.718C49.946 197.775 51.0945 200.121 52.0046 201.937L52.0427 201.936ZM46.372 187.877C46.9758 189.622 48.9745 190.501 49.6899 192.092C46.6873 196.804 41.8089 203.192 39.3844 208.237C39.2664 205.949 39.2584 201.33 39.331 199.038C42.2803 195.586 44.0442 187.766 46.2976 183.793C46.0918 185.057 45.9291 186.587 46.3713 187.838L46.372 187.877ZM45.6695 180.712C43.9911 182.766 41.0441 188.432 40.0214 190.894C40.5491 186.379 42.2966 181.843 43.7433 177.541C44.3276 178.217 45.2737 179.918 45.6695 180.712ZM40.8989 174.195C41.1325 174.458 41.8318 175.171 42.0272 175.434C41.7376 176.279 41.157 177.893 40.8292 178.739C40.9553 177.286 40.7673 175.343 40.6272 173.933L40.8989 174.195ZM35.2306 183.27C36.3019 181.379 39.1371 182.129 40.2853 180.276C35.3623 192.582 35.924 206.659 36.9991 219.619C35.0419 208.469 35.9218 196.084 34.0789 184.932C34.3381 184.507 34.9333 183.695 35.2306 183.27ZM29.0491 206.02C30.4821 203.055 29.1228 199.606 28.9902 196.516C29.0919 193.727 30.8714 190.946 32.0084 188.482C32.1914 198.519 32.6947 209.39 34.5901 219.243C35.2785 221.444 36.5011 223.674 37.5672 225.678C37.828 229.529 38.8409 234.894 38.3762 238.681C33.4511 232.052 33.099 223.202 31.2419 215.448C30.3629 213.25 30.5358 208.093 28.6036 206.678L29.0498 206.059L29.0491 206.02ZM24.7977 219.612C25.5314 215.934 24.951 211.287 27.3347 208.19C28.7131 216.868 29.4955 226.322 33.2648 234.384C34.8049 237.296 37.0686 240.156 38.7598 242.988C39.0123 246.381 38.6121 251.619 38.2935 255.06C32.4326 245.203 30.4738 231.878 24.3177 222.56C24.3925 222.483 24.8005 219.765 24.8351 219.573L24.7977 219.612ZM28.7267 259.434C27.0338 252.326 27.5828 244.795 26.499 237.638C25.8161 233.642 22.9987 229.685 23.5708 225.514C27.2675 235.868 31.0489 248.779 37.9867 257.051C37.5094 260.152 36.5097 263.873 35.611 266.867C34.8555 265.163 29.7096 244.337 27.5839 251.133C28.9489 256.987 32.3266 264.484 34.6001 269.978C33.732 272.552 31.9568 277.661 31.0117 280.198C31.8415 273.426 30.0668 266.014 28.726 259.396L28.7267 259.434ZM104.268 349.793C104.268 349.793 104.119 349.948 104.081 349.987C101.941 349.721 100.041 347.961 98.2658 346.81C97.5283 346.098 96.346 346.081 95.7134 346.933C94.8901 347.788 95.2215 349.232 94.5902 350.16L94.7427 350.157C92.1126 350.205 90.2711 347.49 88.1891 346.23C87.6118 345.935 86.8904 346.101 86.4795 346.567C86.4795 346.567 86.3298 346.722 86.2931 346.799C86.2931 346.799 86.1448 347.031 86.1462 347.107C83.6601 344.595 79.2494 341.087 76.3898 339.001C75.4314 338.713 71.4614 334.281 70.3859 335.942C58.2914 329.253 46.124 320.656 32.2758 318.16C38.4498 315.909 45.4049 314.675 51.9804 315.625C52.0124 317.38 55.0285 317.592 56.0058 318.911C58.0489 320.133 59.4677 322.665 60.7236 324.627C64.8452 326.919 59.292 317.209 58.0978 316.544C64.796 317.949 71.4022 320.577 77.0409 324.521C79.7819 326.379 83.6132 329.478 86.1312 331.646C86.7078 331.903 90.0623 336.041 90.923 335.148C95.1646 339.842 100.104 345.135 104.606 349.481L104.382 349.752L104.268 349.793ZM124.265 348.665C120.513 349.916 116.153 347.095 112.768 349.638C111.971 349.805 111.27 349.016 110.69 348.569C109.837 347.782 108.379 347.313 107.197 347.334C106.895 347.492 105.647 348.011 105.462 348.358C102.779 345.506 90.7478 327.63 87.4048 330.402C78.8315 322.35 68.5485 314.635 56.5126 313.251C61.1233 313.091 66.7694 313.255 71.3878 313.515C70.8057 315.052 73.3242 315.159 74.2071 315.486C75.2051 315.85 77.0895 316.732 77.9759 317.25C82.4475 319.917 86.2948 323.894 90.0949 327.375C99.7425 335.788 112.16 341.365 124.172 345.612C123.922 346.571 124.513 347.591 124.606 348.506L124.228 348.703L124.265 348.665ZM131.971 342.607C130.29 344.508 127.639 343.411 125.556 344.136C115.806 340.573 105.84 335.639 97.5292 329.415C90.7981 324.117 84.9131 317.124 76.8461 313.835C84.4839 314.497 92.5792 315.151 100.011 317.077C105.568 320.717 111.664 324.653 117.036 328.563C122.449 332.664 127.667 338.677 134.303 340.846C133.963 341.005 132.348 342.333 132.009 342.568L131.971 342.607ZM166.481 326.02C165.779 327.255 164.349 328.273 162.983 328.68C162.903 328.452 162.439 328.079 162.284 327.967L161.367 327.87L160.576 328.38C160.391 328.727 160.211 329.303 160.295 329.721C159.446 331.264 158.032 333.16 156.207 333.461C154.479 332.805 153.133 330.081 151.052 330.921C145.766 327.505 140.375 322.526 135.164 319.032C135.584 319.063 136.92 319.153 137.339 319.145C145.242 325.988 156.599 327.766 166.456 324.646C166.463 325.028 166.513 325.714 166.482 326.058L166.481 326.02ZM159.461 317.444C162.974 317.724 166.841 318.569 170.315 318.811C170.169 319.158 169.949 319.658 169.609 319.817C167.869 318.512 166.279 321.214 166.384 322.777C157.963 325.183 149.002 323.056 141.601 318.686C141.792 318.683 142.36 318.481 142.55 318.44C143.682 319.87 146.247 318.372 147.851 318.496C151.579 318.046 155.721 317.245 159.499 317.443L159.461 317.444ZM122.191 318.544C124.515 318.425 127.753 318.251 130.082 318.438C136.012 323.713 143.308 328.619 150.129 332.617C150.263 333.646 151.042 334.586 151.29 335.612C145.591 338.846 139.83 332.347 135.541 329.257C130.938 325.638 125.521 321.346 120.287 318.693L122.192 318.582L122.191 318.544ZM110.07 318.765C111.254 318.858 113.81 318.926 114.915 318.905C117.263 320.122 120.002 321.867 122.202 323.315C129.603 327.723 136.544 334.087 144.35 337.686C142.793 338.057 140.969 338.396 139.692 339.412C139.091 339.919 138.65 340.843 137.969 341.161C138.82 339.695 134.349 339.166 133.73 338.681C132.037 337.834 128.948 335.714 127.553 334.48C121.382 328.56 114.824 322.266 107.089 318.399L110.108 318.764L110.07 318.765ZM118.572 251.802C98.6468 261.061 76.9626 267.946 57.6716 278.529C51.5199 282 45.3967 287.036 39.7939 291.338C32.6083 296.661 24.7775 302.148 18.3335 308.412C14.7737 311.836 10.9658 316.296 8.41235 320.542C7.93424 321.505 6.27189 324.437 5.98644 325.511C5.08348 326.176 3.74469 328.033 3.19034 328.998C1.93056 331.006 -1.66683 332.369 -3.46789 333.967C-10.9889 339.716 -18.9401 346.962 -27.7579 350.597C-22.8142 345.696 -16.018 342.022 -10.4872 337.951C-5.89481 334.699 -1.56655 329.504 1.89894 325.089C3.97671 326.12 6.31526 320.542 7.85855 319.445C12.2984 314.096 18.1006 308.187 23.1594 303.323C39.3938 288.215 58.0296 275.163 78.6583 266.846C95.3431 259.708 113.103 253.009 129.312 244.849C137.998 240.263 147.935 235.271 154.781 228.046C167.212 217.626 182.667 209.977 192.607 196.777C192.774 197.576 193.404 198.672 194.061 199.156C169.296 216.939 146.671 239.15 118.533 251.765L118.572 251.802ZM162.667 259.053C162.667 259.053 161.844 259.946 161.845 259.985C149.033 255.752 135.353 249.931 121.696 253.769C124.943 251.992 129.344 250.804 132.873 249.862C131.941 253.124 137.959 250.685 139.608 251.19C145.482 251.312 151.747 251.961 157.419 253.537C158.637 255.538 161.378 257.359 163.158 258.777L162.667 259.053ZM222.845 234.516C221.112 237.755 217.555 239.27 214.656 241.27C211.164 244.235 208.151 248.375 204.231 250.889C202.686 251.872 200.919 253.24 199.057 253.58C196.276 253.745 192.858 252.395 190.491 254.309L189.982 255.692L190.145 256.262C188.808 256.133 187.428 255.701 186.093 255.687C184.837 255.824 183.553 256.496 182.379 256.9C181.428 257.032 180.535 256.17 179.652 255.842C178.189 255.067 175.979 255.146 175.209 256.84C173.542 255.343 169.502 255.417 169.517 258.318C168.199 259.22 166.607 257.684 165.126 257.978C164.619 257.376 163.06 255.534 162.554 254.932C163.555 255.487 168.149 256.51 165.855 254.071C163.211 253.317 159.9 251.583 157.374 251.095L155.572 250.517C158.89 250.571 164.217 249.977 167.541 250.337C173.173 247.638 150.231 246.186 150.667 249.156C146.681 248.045 141.988 247.901 137.92 248.51C150.263 245.842 163.734 244.374 176.362 244.793C191.783 245.695 208.869 245.957 220.946 234.933C221.818 234.688 222.911 233.942 223.509 233.283C223.361 233.552 222.953 234.171 222.805 234.441L222.845 234.516Z" fill="#E0E0E0"/>
<path d="M181.966 251.028C180.726 249.905 166.984 244.888 171.117 249.89C172.732 250.662 176.143 251.592 177.938 251.751C178.897 252.077 184.38 253.733 181.966 250.99L181.966 251.028Z" fill="#E0E0E0"/>
<path d="M198.479 249.086C194.656 248.583 186.763 244.375 183.684 246.988C182.125 249.307 203.575 252.581 198.479 249.086Z" fill="#E0E0E0"/>
<path d="M206.952 245.419C204.408 245.961 198.751 245.187 198.006 248.292C198.056 251.002 211.968 246.549 206.952 245.419Z" fill="#E0E0E0"/>
<path d="M154.813 242.399C157.621 241.661 164.786 241.454 166.147 238.757C165.805 236.701 148.374 240.531 154.813 242.399Z" fill="#E0E0E0"/>
<path d="M175.572 239.081C176.644 239.329 197.379 238.951 191.877 236.226C190.049 236.374 169.778 234.988 175.572 239.081Z" fill="#E0E0E0"/>
<path d="M199.222 237.581C201.209 237.812 205.016 237.514 206.913 236.983C207.669 236.587 211.791 236.856 211.536 235.371C211.508 233.883 207.522 234.834 206.717 234.581C205.186 234.265 194.369 234.921 199.222 237.581Z" fill="#E0E0E0"/>
<path d="M211.279 177.426C210.809 178.808 212.044 179.626 213.303 179.641C214.918 180.413 217.302 179.415 214.95 178.008C218.058 174.897 212.191 175.118 211.279 177.426ZM213.794 177.303C213.794 177.303 213.408 177.081 213.329 176.93L213.794 177.303Z" fill="#E0E0E0"/>
<path d="M217.079 181.786C218.073 181.959 219.145 182.207 220.09 181.731C221.192 181.52 221.661 180.061 220.771 179.352C220.462 179.167 219.886 178.948 219.546 179.069L219.66 179.067L219.468 178.994C220.323 177.795 221.608 175.099 219.912 174.099C219.335 173.805 218.616 174.085 218.167 174.551C217.264 175.217 214.942 177.511 217.457 177.427C217.467 178 217.253 178.805 217.756 179.216C216.077 179.132 214.864 181.636 217.079 181.786ZM219.553 181.588L219.707 181.662L219.553 181.588ZM219.574 176.434L219.65 176.433C219.65 176.433 219.423 176.513 219.346 176.515C219.423 176.513 219.687 176.356 219.763 176.354L219.574 176.434Z" fill="#E0E0E0"/>
<path d="M202.402 158.958C202.134 160.986 204.031 162.555 204.439 159.799C206.706 160.75 209.423 159.211 206.38 157.511C207.086 156.505 207.569 153.71 207.738 152.523C207.684 151.684 209.151 148.489 207.773 148.171C206.429 147.699 205.959 151.181 205.437 151.84C204.961 152.879 203.864 155.457 203.885 156.602L203.389 156.611L202.526 157.352C202.343 157.813 202.318 158.501 202.403 158.996L202.402 158.958Z" fill="#E0E0E0"/>
<path d="M196.562 177.426C197.249 181.651 198.632 180.099 199.53 177.067C199.134 176.272 199.259 174.781 198.077 174.765C197.208 173.139 195.182 172.832 193.501 172.672C189.559 171.866 191.219 175.042 194.088 175.601L193.939 175.756C191.712 174.919 189.2 173.056 186.699 173.903C184.696 174.894 186.037 177.351 187.463 178.203C186.609 179.44 188.374 180.057 189.156 179.05C190.655 179.672 192.83 179.747 193.949 178.428C194.184 178.73 194.572 179.104 194.769 179.444C191.772 180.301 187.674 181.368 185.779 184.113L185.878 185.333C186.35 186.126 187.235 186.606 188.113 186.666C186.762 189.936 189.273 189.623 190.21 186.666C191.996 186.29 198.103 182.476 195.587 180.422C195.584 180.269 195.656 180.039 195.502 179.927C197.142 179.974 196.193 178.12 195.608 177.367C195.798 177.364 196.256 177.356 196.446 177.352L196.562 177.426ZM196.284 174.721L196.133 174.8L196.208 174.722L196.246 174.722L196.284 174.721Z" fill="#E0E0E0"/>
<path d="M224.008 166.58L223.704 166.662L223.742 166.662C223.742 166.662 223.472 166.476 223.394 166.401C225.139 161.711 224.367 159.13 218.89 159.84C217.446 160.134 208.277 161.217 213.005 163.307C215.673 163.258 218.596 162.556 221.273 162.965C221.373 164.3 220.6 165.803 220.929 167.095C221.33 168.194 222.562 168.859 223.67 168.953C224.738 168.972 225.6 168.155 226.468 167.681L227.233 167.82C227.541 168.005 229.098 169.732 229.478 169.649C228.391 170.7 227.984 173.456 230.081 173.456C231.033 173.362 231.662 172.358 232.377 171.811C233.55 171.331 234.084 169.222 232.262 169.675C232.887 168.442 231.151 167.328 230.373 168.526C230.368 168.297 229.942 167.923 229.787 167.773C235.433 163.738 232.63 160.582 228.582 166.497C228.5 166.193 226.661 165.73 226.392 165.621C225.709 165.786 224.535 166.227 223.97 166.619L224.008 166.58Z" fill="#E0E0E0"/>
<path d="M234.532 200.098C235.6 197.978 237.158 195.621 238.148 193.465C238.807 191.965 239.154 185.888 236.469 189.22C235.236 192.679 233.665 196.449 232.891 199.975C232.136 198.347 229.396 198.588 230.386 200.631C231.561 202.328 232.021 204.572 233.385 206.15C233.385 206.15 233.344 206.036 233.305 205.999C233.348 206.227 233.735 206.564 233.89 206.714L234.313 206.897L235.972 205.874C235.966 205.531 235.994 204.996 235.799 204.732C235.277 203.291 234.296 201.782 233.322 200.616C233.744 200.799 234.275 200.599 234.458 200.175L234.532 200.098Z" fill="#E0E0E0"/>
<path d="M226.899 203.864C225.1 203.476 223.218 202.747 221.602 201.937C220.412 201.5 218.726 198.973 217.448 199.989C216.588 200.921 218.477 202.032 218.907 202.635C219.995 203.722 221.28 205.226 222.74 205.81C224.318 206.621 230.523 206.05 226.898 203.825L226.899 203.864Z" fill="#E0E0E0"/>
<path d="M186.148 170.898C187.341 171.525 194.755 174.558 191.557 170.608C193.003 170.467 191.982 168.844 191.437 168.205C192.665 168.641 194.445 167.998 194.189 166.475L194.227 166.475C194.227 166.475 194.144 166.094 194.065 165.943C195.864 166.368 198.627 165.249 196.084 163.768C200.02 164.269 191.716 152.128 190.4 153.183C189.116 153.855 191.455 156.676 191.584 157.475C192.304 159.333 194.002 162.508 195.662 163.662C193.362 162.978 188.819 162.641 189.303 166.183L189.655 166.672L189.43 166.867C188.843 168.138 189.814 169.151 190.556 170.092C186.46 167.112 174.859 164.499 186.11 170.898L186.148 170.898ZM192.312 166.013L192.198 166.015C192.198 166.015 192.274 166.014 192.312 166.013ZM191.944 164.684L191.752 164.611L191.944 164.684Z" fill="#E0E0E0"/>
<path d="M213.765 207.043L213.482 206.17C211.207 204.798 210.005 205.851 211.117 208.275C212.854 209.389 215.268 209.994 213.726 207.044L213.765 207.043Z" fill="#E0E0E0"/>
<path d="M231.884 188.693C231.946 189.952 230.283 197.045 233.092 194.283C233.527 193.053 234.436 190.594 234.948 189.401C235.851 184.574 233.209 183.973 231.884 188.693Z" fill="#E0E0E0"/>
<path d="M241.221 175.887C241.221 175.887 240.652 176.088 240.577 176.166C240.577 176.166 240.427 176.283 240.39 176.36L240.465 176.282L240.427 176.283C239.153 177.49 237.34 178.439 236.531 180.057C237.609 178.587 237.931 171.137 235.1 174.777C234.149 177.008 233.469 179.464 234.2 181.894C231.513 183.012 239.755 189.619 240.877 188.415C241.649 186.836 238.489 184.984 237.853 183.583C239.422 183.898 242.017 181.942 240.276 180.523C241.178 179.82 242.233 179.113 242.901 178.147L241.259 175.886L241.221 175.887ZM242.416 178.69L242.529 178.612L242.454 178.689L242.416 178.69Z" fill="#E0E0E0"/>
<path d="M210.253 158.738L210.867 158.956C209.353 161.656 211.679 161.69 213.016 159.719C214.108 158.973 214.957 157.431 213.493 156.579C214.393 155.8 218.883 144.838 215.047 147.733C213.72 150.238 211.415 153.449 211.201 156.354C209.557 156.117 208.261 158.24 210.291 158.737L210.253 158.738ZM211.306 157.955C211.306 157.955 211.303 157.765 211.339 157.688L211.341 157.764L211.524 157.341C211.527 157.531 211.38 157.84 211.307 157.994L211.306 157.955Z" fill="#E0E0E0"/>
<path d="M197.321 156.302C197.611 157.594 197.942 159.001 198.536 160.211C200.79 162.537 201.24 157.948 201.098 156.424C200.956 154.937 200.836 152.496 199.148 151.954C198.574 151.85 197.892 152.092 197.597 152.632C197.045 153.711 197.262 155.157 197.321 156.302ZM200.024 154L200.099 153.922L199.989 154.153L200.062 153.999L200.024 154Z" fill="#E0E0E0"/>
<path d="M205.07 173.569C206.071 174.047 206.582 172.778 207.298 172.345C207.65 168.635 206.805 168.306 204.416 171.137C204.584 171.974 204.034 173.206 205.071 173.608L205.07 173.569Z" fill="#E0E0E0"/>
<path d="M226.31 182.038C226.786 180.96 227.372 179.652 226.894 178.515C226.458 177.607 226.501 175.774 225.092 175.876C223.95 175.973 224.089 177.306 223.989 178.11C223.999 178.682 223.711 179.604 224.139 180.092C224.269 180.93 223.991 182.424 223.93 183.265C224.244 185.817 226.181 183.3 226.272 182.039L226.31 182.038Z" fill="#E0E0E0"/>
<path d="M220.706 194.624C222.045 194.866 222.16 192.803 222.716 191.953C225.266 191.677 227.165 189.199 223.463 189C222.082 188.567 220.34 189.209 220.332 190.851C220.62 191.991 219.436 193.998 220.744 194.623L220.706 194.624ZM222.936 191.491L223.049 191.374L223.052 191.565L222.752 191.838L222.936 191.452L222.936 191.491Z" fill="#E0E0E0"/>
<path d="M203.567 183.14C203.657 183.863 203.673 184.779 203.876 185.463C204.156 186.183 205.006 186.778 205.511 187.304C206.066 188.439 208.727 190.07 208.148 187.599C207.79 186.804 207.08 185.481 206.873 184.607L206.871 184.492C206.536 182.857 203.695 179.702 203.566 183.102L203.567 183.14Z" fill="#E0E0E0"/>
<path d="M213.011 192.893C213.612 192.386 214.852 191.409 215.492 190.977C217.305 187.929 215.679 186.584 213.054 188.999C212.501 190.039 210.061 194.245 213.011 192.931L213.011 192.893Z" fill="#E0E0E0"/>
<path d="M200.108 169.078C200.367 168.653 200.962 167.841 201.298 167.453C201.246 164.59 199.752 164.198 198.27 166.592C198.253 167.737 198.507 171.207 200.107 169.04L200.108 169.078Z" fill="#E0E0E0"/>
<path d="M214.002 169.856C214.457 169.733 215.331 169.564 215.788 169.518C217.504 167.386 216.719 166.179 214.062 166.876C213.315 167.768 211.457 170.437 213.964 169.857L214.002 169.856Z" fill="#E0E0E0"/>
<path d="M209.951 167.295C211.628 169.364 211.756 165.926 211.697 164.782C210.129 162.405 208.613 162.891 208.703 165.752C209.015 166.129 209.639 166.919 209.952 167.333L209.951 167.295Z" fill="#E0E0E0"/>
<path d="M209.446 179.33C209.553 178.908 209.804 178.025 209.911 177.641C208.723 175.22 207.316 175.398 206.792 178.042C207.269 179.102 208.882 181.821 209.446 179.33Z" fill="#E0E0E0"/>
<path d="M211.021 188.348C212.186 187.449 213.961 186.501 214.353 184.966C215.526 182.387 212.336 183.133 211.291 184.373C210.7 185.415 207.916 189.55 211.021 188.387L211.021 188.348Z" fill="#E0E0E0"/>
<path d="M229.716 184.801C229.214 182.329 227.152 184.275 226.951 185.806C227.679 190.183 228.862 190.237 230.081 185.978L229.716 184.801Z" fill="#E0E0E0"/>
<path d="M231.406 174.997C230.342 175.207 230.671 176.499 230.342 177.269C232.227 180.288 233.099 180.043 233.378 176.526C232.759 176.003 232.468 174.71 231.406 174.997Z" fill="#E0E0E0"/>
<path d="M220.772 173.129C221.919 175.399 222.778 172.329 222.986 171.219C221.798 168.797 220.391 168.975 219.867 171.619C220.103 171.996 220.574 172.751 220.772 173.129Z" fill="#E0E0E0"/>
<path d="M211.626 171.311L211.957 174.817C214.629 179.197 214.502 165.952 211.626 171.311Z" fill="#E0E0E0"/>
<path d="M204.561 164.416C202.806 164.371 203.309 168.981 204.646 169.11C205.977 168.933 206.313 164.307 204.561 164.416Z" fill="#E0E0E0"/>
<path d="M226.941 193.632C226.148 194.028 225.086 194.353 224.683 195.238C224.397 196.274 223.201 197.594 223.487 198.658C221.004 196.298 219.589 198.156 221.238 200.76C224.688 203.904 226.4 203.682 223.799 199.034C225.067 199.583 225.829 197.47 226.852 197.069C228.443 196.506 229.93 192.318 226.903 193.633L226.941 193.632Z" fill="#E0E0E0"/>
<path d="M186.078 162.882C188.724 165.811 189.744 165.258 188.873 161.419C186.89 159.279 185.454 160.03 186.078 162.882Z" fill="#E0E0E0"/>
<path d="M213.973 159.968C214.625 162.247 225.479 155.292 224.502 153.974C223.902 152.458 212.34 158.242 213.973 159.968Z" fill="#E0E0E0"/>
<path d="M239.741 199.277C238.042 196.025 235.96 196.827 236.787 200.362C237.257 201.04 238.159 202.437 238.553 203.155C241.035 205.4 239.877 200.458 239.703 199.278L239.741 199.277Z" fill="#E0E0E0"/>
<path d="M77.7136 192.077C81.7758 186.926 86.7748 180.879 90.8751 175.727C92.3615 173.6 95.3703 169.231 96.8178 167.067C97.1899 166.564 97.1012 165.879 96.5987 165.506C95.1252 164.159 92.5864 169.206 91.6813 169.757C88.6191 173.287 85.0171 178.582 82.3798 182.41C81.946 183.716 72.8993 193.615 77.7511 192.038L77.7136 192.077Z" fill="#E0E0E0"/>
<path d="M127.968 169.057C125.204 170.1 118.758 169.989 118.095 173.398C118.335 176.104 133.354 169.608 127.968 169.057Z" fill="#E0E0E0"/>
<path d="M122.692 49.0909C121.159 50.7985 118.289 54.4012 117.028 56.333C116.702 57.2933 113.063 60.5282 114.531 61.6086C114.148 61.501 113.61 61.2818 113.226 61.1361C109.588 62.3477 109.272 63.8423 113.435 64.2245C113.586 64.1454 113.964 63.9476 114.076 63.831L113.769 63.7221C115.038 64.3098 115.994 62.3454 114.724 61.7196C116.04 62.7645 118.365 58.561 119.195 58.0495C120.766 56.3794 123.636 52.7767 124.936 50.8824C126.275 49.0255 128.99 45.273 130.329 43.4543C130.544 42.6869 134.259 39.4124 132.908 38.5208C131.744 37.3968 129.421 41.753 128.704 42.1478C127.21 43.8929 124.224 47.3832 122.692 49.0909Z" fill="#E0E0E0"/>
<path d="M120.986 41.2577C119.914 34.7493 113.536 50.8993 112.838 52.3627L111.777 54.8253C111.296 55.6358 108.775 57.476 110.166 58.4814C109.879 61.5788 112.459 58.745 112.777 57.403C117.361 53.6927 122.198 47.1147 125.542 42.3199C125.871 37.3511 119.159 47.7427 118.134 47.9905L118.394 47.5658L121.024 41.2952L120.986 41.2577Z" fill="#E0E0E0"/>
<path d="M133.855 42.3592L134.048 42.4702C130.612 44.3271 127.525 48.6209 125.487 51.8648C123.646 53.349 116.431 61.2302 118.451 63.2931C120.447 64.0202 121.367 60.0713 122.722 59.1304C124.514 57.0362 126.913 54.7783 128.899 52.8715C131 51.0007 133.75 49.1564 136.204 47.8136C137.331 46.915 140.297 46.441 140.805 45.0193C141.11 45.0137 141.986 44.9977 142.249 44.7639C142.041 45.9129 142.934 46.7747 143.822 47.4075C137.138 50.9652 128.975 54.9316 122.802 59.358C120.218 64.0244 128.363 58.9894 129.421 58.512C132.062 56.975 137.304 53.749 139.827 52.0233C140.236 51.4432 146.137 48.8542 145.353 47.7232C146.559 46.9377 144.787 45.9392 144.316 45.2225C146.898 42.5031 144.044 40.7227 141.324 42.1466L141.401 42.1452C139.907 41.7907 130.726 38.0642 133.93 42.2815L133.855 42.3592ZM136.092 43.7691C136.092 43.7691 136.166 43.615 136.202 43.538C136.433 43.6483 138.357 44.6058 138.586 44.6016C136.768 45.2838 134.386 46.3961 132.687 47.3051C132.801 47.303 135.905 43.9633 136.093 43.8072L136.092 43.7691Z" fill="#E0E0E0"/>
<path d="M102.419 81.07C104.962 76.2899 100.024 77.2961 99.2114 80.8231C96.7862 85.8302 100.664 83.1253 102.419 81.07Z" fill="#E0E0E0"/>
<path d="M97.5031 70.7757C96.3668 64.9174 93.1197 70.8556 95.2288 73.604C95.8943 76.6459 98.0593 76.1865 97.47 73.1432C97.3417 72.382 97.7838 71.5341 97.5038 70.8139L97.5031 70.7757Z" fill="#E0E0E0"/>
<path d="M108.145 68.9402C109.32 66.4755 106.243 67.0661 105.158 68.2311C104.541 69.9221 101.689 72.4555 104.866 73.1229C104.716 73.2784 104.497 73.8168 104.387 74.0479L104.675 75.1879L105.449 75.8228C107.13 76.0212 109.958 74.2899 107.046 73.465L107.053 73.8847L106.938 73.8105C106.933 73.5815 106.852 73.3158 106.659 73.1666L106.732 72.9744C106.732 72.9744 106.617 72.9383 106.578 72.9009C108.1 72.7586 108.944 70.9489 106.958 70.7561L107.523 70.364L108.146 68.9783L108.145 68.9402Z" fill="#E0E0E0"/>
<path d="M86.2976 68.9568L85.8451 69.2323C84.6107 68.4531 83.4265 70.4216 84.6601 71.1627L84.6692 71.6588C84.6692 71.6588 85.121 71.3451 85.3102 71.2653C86.2742 71.8586 87.2 70.3528 86.236 69.7596C86.2325 69.5688 86.2248 69.149 86.2976 68.9568Z" fill="#E0E0E0"/>
<path d="M109.749 87.9223C108.724 92.3312 109.839 92.8453 112.596 89.2829C112.58 88.4052 113.278 86.9799 112.164 86.504C112.342 85.8136 112.361 84.7443 112.539 84.0539C111.159 81.5976 109.678 81.93 109.462 84.7208C109.968 85.2842 110.368 86.3077 110.873 86.8329C110.761 86.9113 109.899 87.7669 109.749 87.9223Z" fill="#E0E0E0"/>
<path d="M96.2395 89.3522L96.9777 90.1022C100.835 90.4518 101.198 89.4526 98.1057 87.1421C96.6122 86.7876 94.2699 87.9756 96.2388 89.314L96.2395 89.3522Z" fill="#E0E0E0"/>
<path d="M111.783 97.0092C113.008 99.3537 113.826 96.0939 113.995 94.9455C112.881 92.3699 111.359 92.5504 110.875 95.3078C111.112 95.7235 111.585 96.5929 111.783 97.0092Z" fill="#E0E0E0"/>
<path d="M139.89 61.7951C138.726 62.7326 128.591 67.3458 134.168 67.8931C136.852 66.6225 140.864 65.0223 143.351 63.3736C145.645 63.7135 149.701 62.4179 151.861 61.6914C152.577 61.2202 156.844 61.0279 156.436 59.5465C155.452 57.8847 151.101 59.7583 149.458 59.5592C150.693 58.2769 155.437 57.0451 155.171 54.9885C154.497 53.5883 151.268 56.3576 150.47 56.4867C147.374 58.1465 143.026 60.1728 139.89 61.757L139.89 61.7951Z" fill="#E0E0E0"/>
<path d="M99.3297 76.8888C100.337 75.687 102.029 74.3582 102.151 72.6763C102.823 69.839 99.7624 71.3455 98.987 72.7339C98.5879 73.8483 96.4261 78.6597 99.3297 76.8888Z" fill="#E0E0E0"/>
<path d="M124.531 83.0335C125.865 83.0092 126.19 77.8496 124.441 78.0723C122.684 77.9135 123.197 83.0579 124.531 83.0335Z" fill="#E0E0E0"/>
<path d="M95.0816 80.2112C95.0816 80.2112 95.4614 80.1279 95.5751 80.0877L95.455 77.6848C93.5831 77.4899 91.1874 77.839 89.3217 77.9875C89.4485 76.5727 87.3646 77.2978 86.5226 77.1223C85.4165 77.1043 84.2251 76.5916 83.1253 76.917C82.2742 76.2454 81.1079 77.1065 81.126 78.0988L81.0879 78.0995C81.0616 78.7489 81.6057 79.3116 82.1809 79.492C82.057 81.0595 83.976 81.7498 85.2685 81.5354C86.2381 82.4339 87.5104 81.1128 88.6546 81.1301C90.6373 81.1321 93.1447 80.6283 95.0823 80.2494L95.0816 80.2112ZM83.526 77.9787C83.526 77.9787 83.5308 78.2458 83.4567 78.3617L83.3805 78.3631C83.3805 78.3631 83.4518 78.0945 83.4879 77.9793L83.526 77.9787ZM83.5627 77.9016L83.5246 77.9023C83.5246 77.9023 83.5225 77.7878 83.5218 77.7497C83.5218 77.7497 83.5239 77.8642 83.5246 77.9023L83.5627 77.9016ZM94.8049 77.5821L94.6906 77.5842C94.6906 77.5842 94.7668 77.5828 94.8049 77.5821Z" fill="#E0E0E0"/>
<path d="M114.106 75.9322L114.101 75.6269C118.607 78.1025 118.96 76.569 115.923 73.0741C114.804 72.3691 111.971 71.7718 113.004 74.0053C112.394 74.0165 112.135 74.4793 111.877 74.9421C111.876 74.9039 111.798 74.7908 111.721 74.7541C110.618 74.8887 109.337 75.7519 108.277 76.153C106.691 77.0218 108.392 78.3269 109.64 77.7315C111.436 77.9278 113.456 77.9292 114.143 75.8552L114.106 75.9322Z" fill="#E0E0E0"/>
<path d="M106.893 73.3922L107.007 73.3901L107.004 73.2372L106.693 72.937C106.693 72.937 106.7 73.3192 106.893 73.4304L106.893 73.3922Z" fill="#E0E0E0"/>
<path d="M105.813 91.6207C107.846 98.5698 109.929 87.3464 106.421 87.2958C106.527 86.8358 106.955 85.2246 107.099 84.7639C107.299 83.195 105.751 79.8638 104.544 82.6726C104.065 83.5976 103.87 85.4335 104.194 86.4584C104.398 87.18 103.985 89.6308 105.389 89.2616C105.095 89.8778 105.575 91.0906 105.851 91.6201L105.813 91.6207Z" fill="#E0E0E0"/>
<path d="M149.598 293.039C149.049 292.247 148.573 291.225 147.875 290.551C146.432 288.821 143.843 291.082 146.15 292.185C149.09 300.721 153.795 293.23 159.087 292.789C158.251 295.019 161.554 296.333 160.821 293.75C162.461 287.536 152.486 292.528 149.906 293.224L149.984 293.299L149.869 293.301L149.636 293.076L149.598 293.039Z" fill="#E0E0E0"/>
</svg>
