<svg width="424" height="50" viewBox="0 0 424 50" fill="none" xmlns="http://www.w3.org/2000/svg">
<path d="M314.298 10.733C320.008 10.3142 325.851 10.162 331.732 10.2381C331.998 10.2381 332.265 10.2381 332.512 10.2571C333.311 10.2762 334.111 10.2952 334.891 10.3142C335.291 10.3333 335.71 10.3333 336.109 10.3523C337.023 10.3904 337.917 10.4284 338.831 10.4665C339.364 10.4855 339.916 10.5236 340.449 10.5426C341.058 10.5807 341.667 10.5997 342.276 10.6378C342.694 10.6568 343.094 10.6759 343.494 10.7139C363.268 12.0081 382.167 15.7575 394.881 20.9723C380.283 -11.3254 306.019 -1.63799 279.85 18.6884C279.241 19.1642 278.689 19.621 278.137 20.1158C278.023 20.211 277.909 20.3062 277.795 20.4204C277.243 20.9152 276.729 21.391 276.234 21.9049C275.758 22.3807 275.32 22.8755 274.902 23.3703C274.806 23.4845 274.692 23.6178 274.597 23.732C274.197 24.2268 273.798 24.7216 273.455 25.2355C271.914 27.5003 271.152 29.6129 271.019 31.5732C271 31.8587 271 32.1252 271 32.4106C271.057 34.4471 271.761 36.2742 272.941 37.911C274.121 39.5477 275.796 40.9751 277.795 42.2122C278.594 42.7071 279.45 43.1829 280.345 43.6206C281.239 44.0584 282.172 44.4771 283.143 44.8577C283.618 45.048 284.113 45.2384 284.608 45.4097C285.598 45.7713 286.625 46.0948 287.653 46.3993C288.167 46.5516 288.7 46.6848 289.214 46.8371C290.261 47.1035 291.326 47.3509 292.392 47.5793C296.655 48.4738 300.919 48.9496 304.554 49.0638C305.467 49.1019 306.324 49.1019 307.142 49.0829C307.961 49.0638 308.722 49.0258 309.445 48.9687C300.538 48.5119 279.222 40.88 277.852 29.2703C276.519 18.0223 292.906 12.3697 314.298 10.733Z" fill="#46C0C1"/>
<path d="M291.365 20.0396V32.1441H291.517L299.873 20.0396H302.765V37.7967H299.549V25.6922H299.397L291.023 37.7967H288.168V20.0396H291.365Z" fill="#333333"/>
<path d="M316.126 34.1424L320.085 24.474H323.891V37.7966H320.903V28.7182L317.23 37.7966H315.041L311.501 28.8133V37.7966H308.475V24.474H312.282L316.126 34.1424Z" fill="#333333"/>
<path d="M329.41 37.7966V24.474H340.658V37.7966H337.632V27.0433H332.417V37.7966H329.41Z" fill="#333333"/>
<path d="M345.301 37.7966L345.282 35.2082H345.739C346.196 35.2082 346.576 35.0749 346.843 34.7704C347.109 34.4849 347.319 33.9901 347.471 33.2859C347.604 32.5817 347.699 31.6111 347.756 30.374L347.985 24.474H357.691V37.7966H354.665V27.0624H350.84L350.63 31.3446C350.535 33.5714 350.135 35.1891 349.45 36.2359C348.765 37.2827 347.699 37.7966 346.272 37.7966H345.301Z" fill="#333333"/>
<path d="M369.016 38.044C367.721 38.044 366.58 37.7585 365.628 37.1875C364.676 36.6166 363.934 35.8172 363.42 34.7895C362.887 33.7617 362.64 32.5627 362.64 31.1924C362.64 29.8221 362.906 28.604 363.42 27.5763C363.934 26.5485 364.676 25.7492 365.628 25.1592C366.58 24.5882 367.702 24.3027 369.016 24.3027C370.31 24.3027 371.452 24.5882 372.403 25.1592C373.355 25.7302 374.097 26.5295 374.611 27.5763C375.125 28.604 375.391 29.803 375.391 31.1924C375.391 32.5627 375.125 33.7617 374.611 34.7895C374.097 35.8172 373.355 36.6166 372.403 37.1875C371.452 37.7585 370.329 38.044 369.016 38.044ZM369.035 35.5317C369.739 35.5317 370.329 35.3414 370.805 34.9417C371.281 34.5611 371.623 34.0282 371.851 33.3621C372.08 32.6959 372.194 31.9727 372.194 31.1543C372.194 30.3359 372.08 29.5937 371.851 28.9466C371.623 28.2805 371.261 27.7666 370.805 27.3669C370.329 26.9672 369.739 26.7769 369.035 26.7769C368.311 26.7769 367.721 26.9672 367.246 27.3669C366.77 27.7666 366.408 28.2805 366.18 28.9466C365.952 29.6127 365.818 30.355 365.818 31.1543C365.818 31.9537 365.932 32.6959 366.18 33.3621C366.408 34.0282 366.77 34.5421 367.246 34.9417C367.721 35.3414 368.331 35.5317 369.035 35.5317Z" fill="#333333"/>
<path d="M380.397 37.7966V24.474H385.992C387.572 24.474 388.809 24.7975 389.723 25.4256C390.636 26.0537 391.093 26.9292 391.093 28.0521C391.093 28.7943 390.826 29.4033 390.313 29.8791C389.799 30.3359 389.094 30.6595 388.2 30.8308C389.247 30.9259 390.103 31.2685 390.75 31.8775C391.397 32.4866 391.74 33.2479 391.74 34.1804C391.74 35.2843 391.321 36.1598 390.465 36.8069C389.608 37.454 388.409 37.7966 386.849 37.7966H380.397ZM383.347 29.9933H386.068C386.696 29.9933 387.21 29.8601 387.572 29.5746C387.933 29.3082 388.124 28.9275 388.124 28.4517C388.124 27.995 387.933 27.6333 387.553 27.3669C387.172 27.1004 386.658 26.9863 386.011 26.9863H383.366V29.9933H383.347ZM383.347 35.3224H386.868C387.439 35.3224 387.895 35.1891 388.238 34.9037C388.562 34.6372 388.733 34.2566 388.733 33.7808C388.733 33.2288 388.562 32.7911 388.238 32.4866C387.914 32.163 387.458 32.0108 386.868 32.0108H383.347V35.3224Z" fill="#333333"/>
<path d="M399.715 33.5333L405.044 24.474H408.28V37.7966H405.254V28.7182L399.925 37.7966H396.689V24.474H399.715V33.5333Z" fill="#333333"/>
<path d="M412.352 27.0433V24.474H424V27.0433H419.698V37.7966H416.653V27.0433H412.352Z" fill="#333333"/>
<path d="M2.66318 38.4246L4.65235 33.9038L0 24.3525H2.28507L4.78386 29.3829L5.81954 31.6351L6.72371 29.4158L8.89371 24.3525H11.1952L4.8825 38.4246H2.66318Z" fill="#46C0C1"/>
<path d="M22.3457 30.2707H24.4499C25.8473 30.2707 26.3733 29.1199 26.3733 28.1993C26.3733 26.6704 25.0253 26.1444 23.7102 26.1444C22.6416 26.1444 21.5566 26.7526 21.2936 27.8376L19.4688 27.3938C19.9784 25.2731 21.8361 24.2045 23.7102 24.2045C26.1268 24.2045 28.3625 25.3553 28.3954 28.1993C28.3954 29.3007 28.1324 30.4515 27.1131 31.1255C28.379 31.8653 29.0201 32.9996 29.0036 34.4956C28.9872 36.5176 27.2118 38.5726 23.8417 38.5726C20.8333 38.5726 19.403 36.83 19.0907 34.9066L20.9812 34.5613C21.1621 35.6792 22.0827 36.682 23.8581 36.682C26.0939 36.682 27.0145 35.4655 27.0145 34.2983C27.0145 33.2955 26.3076 32.1283 24.4828 32.1283H22.3786V30.2707H22.3457Z" fill="#46C0C1"/>
<path d="M43.5967 36.4191V40.6605H41.6075V38.4083H33.2563V40.6605H31.2343V36.7808L32.3521 36.5671C33.1577 35.7287 33.4371 33.9204 33.5522 32.6381L34.0947 24.3691H42.4459V36.4356H43.5967V36.4191ZM40.3581 36.4191V26.3089H36.0181L35.7222 31.3065C35.6236 33.4929 35.5414 35.2026 34.6372 36.4191H40.3581Z" fill="#46C0C1"/>
<path d="M47.9799 26.2921C49.2622 24.9934 51.0705 24.1714 53.0432 24.1714C55.0324 24.1714 56.8243 24.9934 58.123 26.2921C59.3888 27.5908 60.2108 29.3827 60.2108 31.3718C60.2108 33.361 59.3888 35.1529 58.123 36.4516C56.8243 37.7832 55.0324 38.5723 53.0432 38.5723C51.0705 38.5723 49.2622 37.7668 47.9799 36.4516C46.7141 35.1529 45.8921 33.361 45.8921 31.3718C45.8921 29.3827 46.7141 27.6072 47.9799 26.2921ZM56.6763 27.7387C55.7393 26.8017 54.4241 26.2099 53.0432 26.2099C51.6623 26.2099 50.38 26.7853 49.443 27.7387C48.5224 28.6593 47.9306 29.9416 47.9306 31.3718C47.9306 32.8021 48.506 34.0843 49.443 35.0049C50.3636 35.942 51.6459 36.5338 53.0432 36.5338C54.4241 36.5338 55.7393 35.9584 56.6763 35.0049C57.5805 34.0843 58.1559 32.8185 58.1559 31.3718C58.1559 29.9252 57.5805 28.6758 56.6763 27.7387Z" fill="#46C0C1"/>
<path d="M68.1776 24.3525C71.2025 24.3525 72.7313 26.7033 72.7313 29.0541C72.7313 31.405 71.2025 33.7229 68.1776 33.7229H65.087V38.4082H63.0321V24.3525H68.1776ZM68.1776 31.7173C69.8873 31.7173 70.7257 30.3857 70.7257 29.0706C70.7257 27.7225 69.8873 26.4074 68.1776 26.4074H65.087V31.7338H68.1776V31.7173Z" fill="#46C0C1"/>
<path d="M77.3288 26.2921C78.611 24.9934 80.4194 24.1714 82.3921 24.1714C84.3813 24.1714 86.1732 24.9934 87.4719 26.2921C88.7377 27.5908 89.5597 29.3827 89.5597 31.3718C89.5597 33.361 88.7377 35.1529 87.4719 36.4516C86.1732 37.7832 84.3813 38.5723 82.3921 38.5723C80.4194 38.5723 78.611 37.7668 77.3288 36.4516C76.0629 35.1529 75.241 33.361 75.241 31.3718C75.241 29.3827 76.0629 27.6072 77.3288 26.2921ZM86.0252 27.7387C85.0882 26.8017 83.773 26.2099 82.3921 26.2099C81.0112 26.2099 79.7289 26.7853 78.7919 27.7387C77.8713 28.6593 77.2794 29.9416 77.2794 31.3718C77.2794 32.8021 77.8548 34.0843 78.7919 35.0049C79.7125 35.942 80.9948 36.5338 82.3921 36.5338C83.773 36.5338 85.0882 35.9584 86.0252 35.0049C86.9294 34.0843 87.5047 32.8185 87.5047 31.3718C87.5047 29.9252 86.9294 28.6758 86.0252 27.7387Z" fill="#46C0C1"/>
<path d="M98.1516 24.3525C101.489 24.3525 103.182 28.6925 100.519 30.6816C102.13 31.3721 102.722 32.8516 102.722 34.1668C102.722 36.271 101.341 38.4082 98.6448 38.4082H92.2992V24.3525H98.1516ZM94.3212 29.9583H98.1187C100.322 29.9583 100.371 26.2923 98.1516 26.2923H94.3212V29.9583ZM94.3212 36.4354H98.6612C100.026 36.4354 100.716 35.2847 100.716 34.1832C100.716 33.0818 100.026 31.9475 98.6612 31.9475H94.3212V36.4354Z" fill="#46C0C1"/>
<path d="M106.311 38.4082V24.3525H108.366V29.0377H111.456C114.481 29.0377 116.01 31.3721 116.01 33.7065C116.01 36.0573 114.481 38.4082 111.456 38.4082H106.311ZM108.366 31.0433V36.4025H111.456C113.166 36.4025 114.004 35.0381 114.004 33.69C114.004 32.3585 113.166 31.0433 111.456 31.0433H108.366Z" fill="#46C0C1"/>
<path d="M125.457 32.2435L120.344 38.4083H117.714L122.153 33.1313C119.736 32.7038 118.519 30.8298 118.519 28.8406C118.519 26.6048 120.048 24.3691 123.09 24.3691H128.202V38.4248H126.18V26.424H123.09C121.38 26.424 120.541 27.6405 120.541 28.857C120.541 30.0735 121.38 31.3065 123.09 31.3065H125.457V32.2435Z" fill="#46C0C1"/>
<path d="M137.909 36.3697H144.419V38.4082H135.854V24.3525H144.402V26.3745H137.909V30.3364H144.271V32.3749H137.909V36.3697Z" fill="#46C0C1"/>
<path d="M148.73 26.3742C149.963 25.1083 151.689 24.2864 153.596 24.2864C156.802 24.2864 159.334 26.292 160.139 29.4648H158.134C157.394 27.3605 155.668 26.292 153.596 26.292C152.248 26.292 151.032 26.8674 150.144 27.8044C149.256 28.725 148.697 29.9744 148.697 31.4211C148.697 32.8184 149.256 34.0678 150.144 34.9884C151.032 35.909 152.248 36.5008 153.596 36.5008C155.717 36.5008 157.525 35.2843 158.249 33.1472H160.238C159.432 36.3364 156.868 38.5064 153.596 38.5064C151.689 38.5064 149.963 37.7009 148.73 36.4186C147.53 35.1364 146.725 33.3609 146.725 31.4211C146.725 29.4319 147.53 27.6564 148.73 26.3742Z" fill="#46C0C1"/>
<path d="M165.225 38.4082V26.2759H160.967V24.3525H171.489V26.2759H167.247V38.4082H165.225Z" fill="#46C0C1"/>
<path d="M174.115 38.4082V24.3525H176.169V29.0377H179.26C182.285 29.0377 183.814 31.3721 183.814 33.7065C183.814 36.0573 182.285 38.4082 179.26 38.4082H174.115ZM176.153 31.0433V36.4025H179.244C180.953 36.4025 181.792 35.0381 181.792 33.69C181.792 32.3585 180.953 31.0433 179.244 31.0433H176.153Z" fill="#46C0C1"/>
<path d="M202.01 38.4082V28.5938L195.237 38.4082H193.626V24.3525H195.631V34.249L202.47 24.3525H204.048V38.4082H202.01Z" fill="#46C0C1"/>
<path d="M211.195 38.4081H209.173V24.3524H210.817L215.453 31.1748L220.089 24.3524H221.7V38.4081H219.694V28.5116L216.012 33.9695H214.878L211.195 28.5116V38.4081Z" fill="#46C0C1"/>
<path d="M232.255 32.2435L227.142 38.4083H224.512L228.95 33.1312C226.534 32.7038 225.317 30.8297 225.317 28.8405C225.317 26.6048 226.846 24.369 229.887 24.369H235V38.4247H232.978V26.4239H229.887C228.178 26.4239 227.339 27.6405 227.339 28.857C227.339 30.0735 228.178 31.3064 229.887 31.3064H232.255V32.2435Z" fill="#46C0C1"/>
<line x1="244" y1="31.5" x2="264" y2="31.5" stroke="#46C0C1"/>
</svg>
