<svg width="153" height="50" viewBox="0 0 153 50" fill="none" xmlns="http://www.w3.org/2000/svg">
<path d="M43.2983 11.5611C49.008 11.1424 54.8509 10.9901 60.7318 11.0662C60.9983 11.0662 61.2647 11.0662 61.5122 11.0853C62.3115 11.1043 63.1109 11.1233 63.8912 11.1424C64.2909 11.1614 64.7096 11.1614 65.1092 11.1804C66.0228 11.2185 66.9173 11.2566 67.8309 11.2946C68.3638 11.3137 68.9157 11.3517 69.4486 11.3708C70.0576 11.4088 70.6666 11.4279 71.2757 11.4659C71.6944 11.485 72.0941 11.504 72.4938 11.5421C92.2682 12.8362 111.167 16.5856 123.881 21.8004C109.283 -10.4973 35.0193 -0.809861 8.84998 19.5166C8.24095 19.9924 7.68902 20.4491 7.13708 20.944C7.02289 21.0391 6.9087 21.1343 6.79451 21.2485C6.24257 21.7433 5.7287 22.2191 5.23386 22.733C4.75806 23.2088 4.32031 23.7036 3.90161 24.1985C3.80645 24.3127 3.69226 24.4459 3.5971 24.5601C3.19742 25.0549 2.79774 25.5498 2.45516 26.0636C0.913551 28.3285 0.152259 30.4411 0.0190334 32.4014C1.16135e-06 32.6869 0 32.9533 0 33.2388C0.0570967 35.2752 0.761291 37.1023 1.94129 38.7391C3.12129 40.3759 4.79612 41.8033 6.79451 43.0404C7.59386 43.5352 8.45031 44.011 9.34482 44.4488C10.2393 44.8865 11.1719 45.3052 12.1426 45.6859C12.6184 45.8762 13.1132 46.0665 13.608 46.2378C14.5977 46.5994 15.6255 46.923 16.6532 47.2275C17.1671 47.3797 17.7 47.513 18.2138 47.6652C19.2606 47.9317 20.3264 48.1791 21.3922 48.4075C25.6554 49.302 29.9187 49.7778 33.5538 49.892C34.4674 49.93 35.3238 49.93 36.1422 49.911C36.9606 49.892 37.7219 49.8539 38.4451 49.7968C29.538 49.34 8.22192 41.7081 6.8516 30.0985C5.51935 18.8504 21.9061 13.1979 43.2983 11.5611Z" fill="#46C0C1"/>
<path d="M20.3644 20.8672V32.9717H20.5167L28.8718 20.8672H31.7647V38.6243H28.5483V26.5198H28.396L20.0218 38.6243H17.167V20.8672H20.3644Z" fill="#333333"/>
<path d="M45.1256 34.9701L49.0843 25.3018H52.8907V38.6243H49.9026V29.5459L46.2294 38.6243H44.0407L40.5007 29.6411V38.6243H37.4746V25.3018H41.2811L45.1256 34.9701Z" fill="#333333"/>
<path d="M58.4102 38.6253V25.3027H69.6582V38.6253H66.6321V27.8721H61.4172V38.6253H58.4102Z" fill="#333333"/>
<path d="M74.3013 38.6243L74.2822 36.0359H74.739C75.1958 36.0359 75.5764 35.9027 75.8429 35.5982C76.1093 35.3127 76.3187 34.8179 76.4709 34.1137C76.6042 33.4095 76.6993 32.4388 76.7564 31.2017L76.9848 25.3018H86.6912V38.6243H83.6651V27.8901H79.8396L79.6303 32.1724C79.5351 34.3992 79.1354 36.0169 78.4503 37.0637C77.7651 38.1104 76.6993 38.6243 75.2719 38.6243H74.3013Z" fill="#333333"/>
<path d="M98.0164 38.8721C96.7222 38.8721 95.5803 38.5866 94.6287 38.0157C93.6771 37.4447 92.9348 36.6454 92.421 35.6176C91.8881 34.5899 91.6406 33.3908 91.6406 32.0205C91.6406 30.6502 91.9071 29.4321 92.421 28.4044C92.9348 27.3767 93.6771 26.5773 94.6287 25.9873C95.5803 25.4163 96.7032 25.1309 98.0164 25.1309C99.3106 25.1309 100.453 25.4163 101.404 25.9873C102.356 26.5583 103.098 27.3576 103.612 28.4044C104.126 29.4321 104.392 30.6312 104.392 32.0205C104.392 33.3908 104.126 34.5899 103.612 35.6176C103.098 36.6454 102.356 37.4447 101.404 38.0157C100.453 38.5866 99.3296 38.8721 98.0164 38.8721ZM98.0355 36.3599C98.7397 36.3599 99.3296 36.1696 99.8055 35.7699C100.281 35.3892 100.624 34.8563 100.852 34.1902C101.081 33.5241 101.195 32.8008 101.195 31.9825C101.195 31.1641 101.081 30.4218 100.852 29.7747C100.624 29.1086 100.262 28.5947 99.8055 28.195C99.3296 27.7954 98.7397 27.605 98.0355 27.605C97.3122 27.605 96.7222 27.7954 96.2464 28.195C95.7706 28.5947 95.409 29.1086 95.1806 29.7747C94.9522 30.4409 94.819 31.1831 94.819 31.9825C94.819 32.7818 94.9332 33.5241 95.1806 34.1902C95.409 34.8563 95.7706 35.3702 96.2464 35.7699C96.7222 36.1696 97.3313 36.3599 98.0355 36.3599Z" fill="#333333"/>
<path d="M109.397 38.6243V25.3018H114.993C116.573 25.3018 117.81 25.6253 118.723 26.2534C119.637 26.8814 120.094 27.7569 120.094 28.8798C120.094 29.6221 119.827 30.2311 119.313 30.7069C118.799 31.1637 118.095 31.4872 117.201 31.6585C118.247 31.7537 119.104 32.0963 119.751 32.7053C120.398 33.3143 120.741 34.0756 120.741 35.0082C120.741 36.1121 120.322 36.9875 119.466 37.6346C118.609 38.2817 117.41 38.6243 115.849 38.6243H109.397ZM112.347 30.8211H115.069C115.697 30.8211 116.211 30.6879 116.573 30.4024C116.934 30.1359 117.125 29.7553 117.125 29.2795C117.125 28.8227 116.934 28.4611 116.554 28.1947C116.173 27.9282 115.659 27.814 115.012 27.814H112.366V30.8211H112.347ZM112.347 36.1501H115.868C116.439 36.1501 116.896 36.0169 117.239 35.7314C117.562 35.465 117.734 35.0843 117.734 34.6085C117.734 34.0566 117.562 33.6188 117.239 33.3143C116.915 32.9908 116.458 32.8385 115.868 32.8385H112.347V36.1501Z" fill="#333333"/>
<path d="M128.715 34.3621L134.044 25.3027H137.279V38.6253H134.253V29.5469L128.924 38.6253H125.688V25.3027H128.715V34.3621Z" fill="#333333"/>
<path d="M141.352 27.8721V25.3027H152.999V27.8721H148.698V38.6253H145.653V27.8721H141.352Z" fill="#333333"/>
</svg>
