<svg width="174" height="28" viewBox="0 0 174 28" fill="none" xmlns="http://www.w3.org/2000/svg">
<path d="M165.048 7.59116V4.90077H165.624C166.105 4.90077 166.489 4.90077 166.777 5.09294C167.258 5.28512 167.45 5.66946 167.45 6.24597C167.45 7.30291 166.585 7.59116 165.624 7.59116H165.048ZM163.703 12.1072H165.048V8.6481H165.624C166.105 8.84027 166.777 10.0894 167.834 12.1072H169.372C168.315 10.1855 167.546 8.74419 166.97 8.35984C168.123 8.07159 168.891 7.39899 168.891 6.14988C168.891 5.28512 168.411 4.42035 167.354 4.13209C166.97 3.93992 166.489 3.84384 165.913 3.84384H163.703V12.1072ZM166.201 14.5093C162.55 14.5093 160.051 11.7228 160.051 8.07159C160.051 4.42035 162.55 1.63387 166.201 1.63387C169.852 1.63387 172.35 4.42035 172.35 8.07159C172.35 11.7228 169.852 14.5093 166.201 14.5093ZM166.201 15.7584C170.525 15.7584 173.792 12.3954 173.792 8.07159C173.792 3.74775 170.525 0.384766 166.201 0.384766C161.781 0.384766 158.706 3.74775 158.706 8.07159C158.61 12.4915 161.781 15.7584 166.201 15.7584Z" fill="black"/>
<path d="M0.742188 21.5235H3.52866V12.2033H6.60339C7.27599 12.2033 8.04467 12.8759 9.00552 14.7015L12.4646 21.5235H15.7315L11.6959 14.0289C10.8311 12.3954 10.0625 11.3385 9.00552 10.9541V10.8581C11.2155 9.51287 11.6959 5.86163 12.7528 4.03601C13.1372 3.36341 13.5215 3.07515 14.2902 3.07515C14.5785 3.07515 14.9628 3.07515 15.3472 3.26732V0.673021C14.8667 0.480851 14.2902 0.384766 13.8098 0.384766C12.1763 0.384766 11.1194 1.24953 10.4468 2.59473C9.10161 5.47729 8.81335 9.80112 5.54645 9.80112H3.52866V0.576936H0.742188V21.5235Z" fill="black"/>
<path d="M146.888 13.7402L148.809 8.35946C149.482 6.53384 149.77 5.57299 150.058 4.80431H150.155C150.443 5.57299 150.731 6.53384 151.308 8.26338L153.229 13.7402H146.888ZM141.026 21.5231H144.005L146.023 16.0463H154.094L156.112 21.5231H159.187L151.115 0.576554H149.002L141.026 21.5231ZM122.578 21.7153C124.404 21.7153 125.845 20.9466 126.998 19.2171C129.112 15.758 130.553 7.68687 130.937 2.97869H135.646V21.5231H138.432V0.576554H128.439C128.055 5.66907 126.71 14.1246 124.788 17.4876C124.115 18.5445 123.251 19.0249 122.29 19.0249C122.194 19.0249 121.905 19.0249 121.617 18.9288V21.5231C121.905 21.6192 122.386 21.7153 122.578 21.7153ZM110.375 19.4093C105.955 19.4093 103.073 16.1424 103.073 11.1459C103.073 6.1495 105.955 2.8826 110.375 2.8826C114.987 2.8826 117.678 6.43776 117.678 11.1459C117.678 16.1424 114.795 19.4093 110.375 19.4093ZM110.375 21.8114C116.236 21.8114 120.656 17.6797 120.656 11.1459C120.656 4.90039 116.429 0.480469 110.375 0.480469C104.418 0.480469 100.094 4.90039 100.094 11.1459C100.094 17.5837 104.514 21.8114 110.375 21.8114ZM79.2436 21.5231H81.6457L91.3504 8.64772C92.5034 7.11035 93.3681 5.86124 94.0407 4.90039H94.1368C94.1368 5.86124 94.0407 6.8221 94.0407 8.35946V21.4271H96.8272V0.576554H94.1368L84.8165 12.8755C83.5674 14.5089 82.7027 15.758 82.0301 16.815H81.934C82.0301 15.758 82.0301 14.7011 82.0301 13.1637V0.576554H79.2436V21.5231ZM70.2116 19.121H60.6991V19.0249C62.813 15.8541 65.023 10.2812 66.0799 2.8826H70.2116V19.121ZM56.2792 27.2883H58.9696V21.4271H72.8059V27.2883H75.4963V19.0249H72.9981V0.576554H63.7739C62.5248 8.55163 60.4109 15.2776 57.4322 19.0249H56.1831V27.2883H56.2792ZM47.1511 11.6264V2.8826H48.5924C49.9376 2.8826 50.8024 3.17086 51.571 3.5552C52.8201 4.32388 53.3967 5.57299 53.3967 7.30252C53.3967 9.03206 52.7241 10.3773 51.3789 11.0499C50.7063 11.4342 49.7454 11.6264 48.4963 11.6264H47.1511ZM44.3646 21.5231H47.1511V13.9324H48.4002C50.2258 13.9324 51.6671 13.6442 52.7241 13.1637C55.3184 12.0107 56.3753 9.70466 56.3753 7.30252C56.3753 4.61214 55.2223 2.59435 53.2045 1.53741C52.0515 0.86481 50.6102 0.576554 48.5924 0.576554H44.2686V21.5231H44.3646Z" fill="black"/>
<path d="M25.0526 15.9492L24.0918 18.6396C24.4761 18.9279 24.8605 19.3122 25.2448 19.6005C26.2057 20.4652 27.2626 21.33 28.4156 22.2908C28.5117 22.3869 28.7039 22.483 28.8961 22.483C29.0882 22.483 29.2804 22.3869 29.3765 22.2908C30.4334 21.33 31.4904 20.4652 32.5473 19.6005C33.0277 19.12 33.6042 18.7357 34.0847 18.3514L33.2199 15.9492H25.0526Z" fill="#E50046"/>
<path d="M22.842 0C20.9203 0 19.0946 0.768682 17.8455 2.20996C16.5964 3.55516 15.9238 5.38078 15.9238 7.30248C15.9238 9.41636 16.7886 11.3381 18.6142 13.4519C19.479 14.5089 20.632 15.5658 21.8811 16.6228L27.4541 1.92171C26.4932 0.960853 24.9558 0 22.842 0Z" fill="#E50046"/>
<path d="M39.1776 13.548C41.0032 11.4341 41.868 9.51244 41.868 7.39857C41.868 5.47686 41.1954 3.65124 39.9462 2.30605C38.6971 0.768682 36.8715 0 34.9498 0C33.0281 0 31.5868 0.768682 30.626 1.72953L36.295 16.3345C37.448 15.3736 38.4089 14.4128 39.1776 13.548Z" fill="#E50046"/>
<path d="M29.1845 4.70898C28.8962 5.47767 28.5119 6.43852 27.9354 8.26414L26.0137 13.6449H32.3553L30.4336 8.16805C29.761 6.43852 29.4727 5.47767 29.1845 4.70898Z" fill="#E50046"/>
<path d="M29.5687 2.97762C29.2804 3.36197 29.0882 3.65022 28.8961 4.03456C28.7039 3.74631 28.5117 3.36197 28.2235 2.97762C28.0313 2.68937 27.743 2.30503 27.4548 2.01677L21.8818 16.7178C22.5544 17.2943 23.3231 17.9669 24.0918 18.6395L25.0526 15.9491H33.1238L33.9886 18.3513C34.7573 17.6787 35.5259 17.0061 36.1985 16.4296L30.6256 1.72852C30.2413 2.11286 29.8569 2.4972 29.5687 2.97762ZM25.9174 13.6431L27.8391 8.26232C28.5117 6.43669 28.8 5.47584 29.0882 4.70716H29.1843C29.4726 5.47584 29.7608 6.43669 30.3373 8.16623L32.259 13.6431H25.9174Z" fill="white"/>
</svg>
